<?xml version="1.0" encoding="utf-8" standalone="no"?>
<!DOCTYPE svg PUBLIC "-//W3C//DTD SVG 1.1//EN"
  "http://www.w3.org/Graphics/SVG/1.1/DTD/svg11.dtd">
<svg xmlns:xlink="http://www.w3.org/1999/xlink" width="396pt" height="287.928pt" viewBox="0 0 396 287.928" xmlns="http://www.w3.org/2000/svg" version="1.1">
 <metadata>
  <rdf:RDF xmlns:dc="http://purl.org/dc/elements/1.1/" xmlns:cc="http://creativecommons.org/ns#" xmlns:rdf="http://www.w3.org/1999/02/22-rdf-syntax-ns#">
   <cc:Work>
    <dc:type rdf:resource="http://purl.org/dc/dcmitype/StillImage"/>
    <dc:date>2024-09-21T14:26:58.202922</dc:date>
    <dc:format>image/svg+xml</dc:format>
    <dc:creator>
     <cc:Agent>
      <dc:title>Matplotlib v3.8.3, https://matplotlib.org/</dc:title>
     </cc:Agent>
    </dc:creator>
   </cc:Work>
  </rdf:RDF>
 </metadata>
 <defs>
  <style type="text/css">*{stroke-linejoin: round; stroke-linecap: butt}</style>
 </defs>
 <g id="figure_1">
  <g id="patch_1">
   <path d="M 0 287.928 
L 396 287.928 
L 396 0 
L 0 0 
z
" style="fill: #ffffff"/>
  </g>
  <g id="axes_1">
   <g id="patch_2">
    <path d="M 49.5 251.937 
L 356.4 251.937 
L 356.4 28.7928 
L 49.5 28.7928 
z
" style="fill: #ffffff"/>
   </g>
   <g id="matplotlib.axis_1">
    <g id="xtick_1">
     <g id="line2d_1">
      <defs>
       <path id="m183bea07d2" d="M 0 0 
L 0 -5 
" style="stroke: #000000; stroke-width: 0.5"/>
      </defs>
      <g>
       <use xlink:href="#m183bea07d2" x="63.45" y="251.937" style="stroke: #000000; stroke-width: 0.5"/>
      </g>
     </g>
     <g id="text_1">
      <!-- $\mathdefault{0}$ -->
      <g transform="translate(61.21 260.755906) scale(0.07 -0.07)">
       <defs>
        <path id="DejaVuSans-30" d="M 2034 4250 
Q 1547 4250 1301 3770 
Q 1056 3291 1056 2328 
Q 1056 1369 1301 889 
Q 1547 409 2034 409 
Q 2525 409 2770 889 
Q 3016 1369 3016 2328 
Q 3016 3291 2770 3770 
Q 2525 4250 2034 4250 
z
M 2034 4750 
Q 2819 4750 3233 4129 
Q 3647 3509 3647 2328 
Q 3647 1150 3233 529 
Q 2819 -91 2034 -91 
Q 1250 -91 836 529 
Q 422 1150 422 2328 
Q 422 3509 836 4129 
Q 1250 4750 2034 4750 
z
" transform="scale(0.015625)"/>
       </defs>
       <use xlink:href="#DejaVuSans-30" transform="translate(0 0.78125)"/>
      </g>
     </g>
    </g>
    <g id="xtick_2">
     <g id="line2d_2">
      <g>
       <use xlink:href="#m183bea07d2" x="119.25" y="251.937" style="stroke: #000000; stroke-width: 0.5"/>
      </g>
     </g>
     <g id="text_2">
      <!-- $\mathdefault{2}$ -->
      <g transform="translate(117.01 260.755906) scale(0.07 -0.07)">
       <defs>
        <path id="DejaVuSans-32" d="M 1228 531 
L 3431 531 
L 3431 0 
L 469 0 
L 469 531 
Q 828 903 1448 1529 
Q 2069 2156 2228 2338 
Q 2531 2678 2651 2914 
Q 2772 3150 2772 3378 
Q 2772 3750 2511 3984 
Q 2250 4219 1831 4219 
Q 1534 4219 1204 4116 
Q 875 4013 500 3803 
L 500 4441 
Q 881 4594 1212 4672 
Q 1544 4750 1819 4750 
Q 2544 4750 2975 4387 
Q 3406 4025 3406 3419 
Q 3406 3131 3298 2873 
Q 3191 2616 2906 2266 
Q 2828 2175 2409 1742 
Q 1991 1309 1228 531 
z
" transform="scale(0.015625)"/>
       </defs>
       <use xlink:href="#DejaVuSans-32" transform="translate(0 0.78125)"/>
      </g>
     </g>
    </g>
    <g id="xtick_3">
     <g id="line2d_3">
      <g>
       <use xlink:href="#m183bea07d2" x="175.05" y="251.937" style="stroke: #000000; stroke-width: 0.5"/>
      </g>
     </g>
     <g id="text_3">
      <!-- $\mathdefault{4}$ -->
      <g transform="translate(172.81 260.755906) scale(0.07 -0.07)">
       <defs>
        <path id="DejaVuSans-34" d="M 2419 4116 
L 825 1625 
L 2419 1625 
L 2419 4116 
z
M 2253 4666 
L 3047 4666 
L 3047 1625 
L 3713 1625 
L 3713 1100 
L 3047 1100 
L 3047 0 
L 2419 0 
L 2419 1100 
L 313 1100 
L 313 1709 
L 2253 4666 
z
" transform="scale(0.015625)"/>
       </defs>
       <use xlink:href="#DejaVuSans-34" transform="translate(0 0.09375)"/>
      </g>
     </g>
    </g>
    <g id="xtick_4">
     <g id="line2d_4">
      <g>
       <use xlink:href="#m183bea07d2" x="230.85" y="251.937" style="stroke: #000000; stroke-width: 0.5"/>
      </g>
     </g>
     <g id="text_4">
      <!-- $\mathdefault{6}$ -->
      <g transform="translate(228.61 260.755906) scale(0.07 -0.07)">
       <defs>
        <path id="DejaVuSans-36" d="M 2113 2584 
Q 1688 2584 1439 2293 
Q 1191 2003 1191 1497 
Q 1191 994 1439 701 
Q 1688 409 2113 409 
Q 2538 409 2786 701 
Q 3034 994 3034 1497 
Q 3034 2003 2786 2293 
Q 2538 2584 2113 2584 
z
M 3366 4563 
L 3366 3988 
Q 3128 4100 2886 4159 
Q 2644 4219 2406 4219 
Q 1781 4219 1451 3797 
Q 1122 3375 1075 2522 
Q 1259 2794 1537 2939 
Q 1816 3084 2150 3084 
Q 2853 3084 3261 2657 
Q 3669 2231 3669 1497 
Q 3669 778 3244 343 
Q 2819 -91 2113 -91 
Q 1303 -91 875 529 
Q 447 1150 447 2328 
Q 447 3434 972 4092 
Q 1497 4750 2381 4750 
Q 2619 4750 2861 4703 
Q 3103 4656 3366 4563 
z
" transform="scale(0.015625)"/>
       </defs>
       <use xlink:href="#DejaVuSans-36" transform="translate(0 0.78125)"/>
      </g>
     </g>
    </g>
    <g id="xtick_5">
     <g id="line2d_5">
      <g>
       <use xlink:href="#m183bea07d2" x="286.65" y="251.937" style="stroke: #000000; stroke-width: 0.5"/>
      </g>
     </g>
     <g id="text_5">
      <!-- $\mathdefault{8}$ -->
      <g transform="translate(284.41 260.755906) scale(0.07 -0.07)">
       <defs>
        <path id="DejaVuSans-38" d="M 2034 2216 
Q 1584 2216 1326 1975 
Q 1069 1734 1069 1313 
Q 1069 891 1326 650 
Q 1584 409 2034 409 
Q 2484 409 2743 651 
Q 3003 894 3003 1313 
Q 3003 1734 2745 1975 
Q 2488 2216 2034 2216 
z
M 1403 2484 
Q 997 2584 770 2862 
Q 544 3141 544 3541 
Q 544 4100 942 4425 
Q 1341 4750 2034 4750 
Q 2731 4750 3128 4425 
Q 3525 4100 3525 3541 
Q 3525 3141 3298 2862 
Q 3072 2584 2669 2484 
Q 3125 2378 3379 2068 
Q 3634 1759 3634 1313 
Q 3634 634 3220 271 
Q 2806 -91 2034 -91 
Q 1263 -91 848 271 
Q 434 634 434 1313 
Q 434 1759 690 2068 
Q 947 2378 1403 2484 
z
M 1172 3481 
Q 1172 3119 1398 2916 
Q 1625 2713 2034 2713 
Q 2441 2713 2670 2916 
Q 2900 3119 2900 3481 
Q 2900 3844 2670 4047 
Q 2441 4250 2034 4250 
Q 1625 4250 1398 4047 
Q 1172 3844 1172 3481 
z
" transform="scale(0.015625)"/>
       </defs>
       <use xlink:href="#DejaVuSans-38" transform="translate(0 0.78125)"/>
      </g>
     </g>
    </g>
    <g id="xtick_6">
     <g id="line2d_6">
      <g>
       <use xlink:href="#m183bea07d2" x="342.45" y="251.937" style="stroke: #000000; stroke-width: 0.5"/>
      </g>
     </g>
     <g id="text_6">
      <!-- $\mathdefault{10}$ -->
      <g transform="translate(337.97 260.755906) scale(0.07 -0.07)">
       <defs>
        <path id="DejaVuSans-31" d="M 794 531 
L 1825 531 
L 1825 4091 
L 703 3866 
L 703 4441 
L 1819 4666 
L 2450 4666 
L 2450 531 
L 3481 531 
L 3481 0 
L 794 0 
L 794 531 
z
" transform="scale(0.015625)"/>
       </defs>
       <use xlink:href="#DejaVuSans-31" transform="translate(0 0.78125)"/>
       <use xlink:href="#DejaVuSans-30" transform="translate(63.623047 0.78125)"/>
      </g>
     </g>
    </g>
    <g id="xtick_7">
     <g id="line2d_7">
      <defs>
       <path id="m848a90b9c3" d="M 0 0 
L 0 -3 
" style="stroke: #000000; stroke-width: 0.5"/>
      </defs>
      <g>
       <use xlink:href="#m848a90b9c3" x="49.5" y="251.937" style="stroke: #000000; stroke-width: 0.5"/>
      </g>
     </g>
    </g>
    <g id="xtick_8">
     <g id="line2d_8">
      <g>
       <use xlink:href="#m848a90b9c3" x="77.4" y="251.937" style="stroke: #000000; stroke-width: 0.5"/>
      </g>
     </g>
    </g>
    <g id="xtick_9">
     <g id="line2d_9">
      <g>
       <use xlink:href="#m848a90b9c3" x="91.35" y="251.937" style="stroke: #000000; stroke-width: 0.5"/>
      </g>
     </g>
    </g>
    <g id="xtick_10">
     <g id="line2d_10">
      <g>
       <use xlink:href="#m848a90b9c3" x="105.3" y="251.937" style="stroke: #000000; stroke-width: 0.5"/>
      </g>
     </g>
    </g>
    <g id="xtick_11">
     <g id="line2d_11">
      <g>
       <use xlink:href="#m848a90b9c3" x="133.2" y="251.937" style="stroke: #000000; stroke-width: 0.5"/>
      </g>
     </g>
    </g>
    <g id="xtick_12">
     <g id="line2d_12">
      <g>
       <use xlink:href="#m848a90b9c3" x="147.15" y="251.937" style="stroke: #000000; stroke-width: 0.5"/>
      </g>
     </g>
    </g>
    <g id="xtick_13">
     <g id="line2d_13">
      <g>
       <use xlink:href="#m848a90b9c3" x="161.1" y="251.937" style="stroke: #000000; stroke-width: 0.5"/>
      </g>
     </g>
    </g>
    <g id="xtick_14">
     <g id="line2d_14">
      <g>
       <use xlink:href="#m848a90b9c3" x="189" y="251.937" style="stroke: #000000; stroke-width: 0.5"/>
      </g>
     </g>
    </g>
    <g id="xtick_15">
     <g id="line2d_15">
      <g>
       <use xlink:href="#m848a90b9c3" x="202.95" y="251.937" style="stroke: #000000; stroke-width: 0.5"/>
      </g>
     </g>
    </g>
    <g id="xtick_16">
     <g id="line2d_16">
      <g>
       <use xlink:href="#m848a90b9c3" x="216.9" y="251.937" style="stroke: #000000; stroke-width: 0.5"/>
      </g>
     </g>
    </g>
    <g id="xtick_17">
     <g id="line2d_17">
      <g>
       <use xlink:href="#m848a90b9c3" x="244.8" y="251.937" style="stroke: #000000; stroke-width: 0.5"/>
      </g>
     </g>
    </g>
    <g id="xtick_18">
     <g id="line2d_18">
      <g>
       <use xlink:href="#m848a90b9c3" x="258.75" y="251.937" style="stroke: #000000; stroke-width: 0.5"/>
      </g>
     </g>
    </g>
    <g id="xtick_19">
     <g id="line2d_19">
      <g>
       <use xlink:href="#m848a90b9c3" x="272.7" y="251.937" style="stroke: #000000; stroke-width: 0.5"/>
      </g>
     </g>
    </g>
    <g id="xtick_20">
     <g id="line2d_20">
      <g>
       <use xlink:href="#m848a90b9c3" x="300.6" y="251.937" style="stroke: #000000; stroke-width: 0.5"/>
      </g>
     </g>
    </g>
    <g id="xtick_21">
     <g id="line2d_21">
      <g>
       <use xlink:href="#m848a90b9c3" x="314.55" y="251.937" style="stroke: #000000; stroke-width: 0.5"/>
      </g>
     </g>
    </g>
    <g id="xtick_22">
     <g id="line2d_22">
      <g>
       <use xlink:href="#m848a90b9c3" x="328.5" y="251.937" style="stroke: #000000; stroke-width: 0.5"/>
      </g>
     </g>
    </g>
    <g id="xtick_23">
     <g id="line2d_23">
      <g>
       <use xlink:href="#m848a90b9c3" x="356.4" y="251.937" style="stroke: #000000; stroke-width: 0.5"/>
      </g>
     </g>
    </g>
    <g id="text_7">
     <!-- Time (s) -->
     <g transform="translate(182.258594 273.810125) scale(0.1 -0.1)">
      <defs>
       <path id="DejaVuSerif-54" d="M 1222 0 
L 1222 331 
L 1819 331 
L 1819 4294 
L 447 4294 
L 447 3566 
L 63 3566 
L 63 4666 
L 4206 4666 
L 4206 3566 
L 3822 3566 
L 3822 4294 
L 2450 4294 
L 2450 331 
L 3047 331 
L 3047 0 
L 1222 0 
z
" transform="scale(0.015625)"/>
       <path id="DejaVuSerif-69" d="M 622 4353 
Q 622 4497 726 4603 
Q 831 4709 978 4709 
Q 1122 4709 1226 4603 
Q 1331 4497 1331 4353 
Q 1331 4206 1228 4103 
Q 1125 4000 978 4000 
Q 831 4000 726 4103 
Q 622 4206 622 4353 
z
M 1356 331 
L 1900 331 
L 1900 0 
L 231 0 
L 231 331 
L 781 331 
L 781 2988 
L 231 2988 
L 231 3322 
L 1356 3322 
L 1356 331 
z
" transform="scale(0.015625)"/>
       <path id="DejaVuSerif-6d" d="M 3316 2675 
Q 3481 3041 3739 3227 
Q 3997 3413 4341 3413 
Q 4863 3413 5119 3089 
Q 5375 2766 5375 2113 
L 5375 331 
L 5894 331 
L 5894 0 
L 4300 0 
L 4300 331 
L 4800 331 
L 4800 2047 
Q 4800 2556 4650 2772 
Q 4500 2988 4153 2988 
Q 3769 2988 3567 2697 
Q 3366 2406 3366 1850 
L 3366 331 
L 3866 331 
L 3866 0 
L 2291 0 
L 2291 331 
L 2791 331 
L 2791 2069 
Q 2791 2566 2641 2777 
Q 2491 2988 2144 2988 
Q 1759 2988 1557 2697 
Q 1356 2406 1356 1850 
L 1356 331 
L 1856 331 
L 1856 0 
L 263 0 
L 263 331 
L 781 331 
L 781 2994 
L 231 2994 
L 231 3322 
L 1356 3322 
L 1356 2731 
Q 1516 3063 1762 3238 
Q 2009 3413 2322 3413 
Q 2709 3413 2968 3220 
Q 3228 3028 3316 2675 
z
" transform="scale(0.015625)"/>
       <path id="DejaVuSerif-65" d="M 3469 1600 
L 991 1600 
L 991 1575 
Q 991 903 1244 561 
Q 1497 219 1991 219 
Q 2369 219 2611 417 
Q 2853 616 2950 1006 
L 3413 1006 
Q 3275 459 2904 184 
Q 2534 -91 1931 -91 
Q 1203 -91 761 389 
Q 319 869 319 1663 
Q 319 2450 753 2931 
Q 1188 3413 1894 3413 
Q 2647 3413 3050 2948 
Q 3453 2484 3469 1600 
z
M 2791 1931 
Q 2772 2513 2545 2808 
Q 2319 3103 1894 3103 
Q 1497 3103 1269 2806 
Q 1041 2509 991 1931 
L 2791 1931 
z
" transform="scale(0.015625)"/>
       <path id="DejaVuSerif-20" transform="scale(0.015625)"/>
       <path id="DejaVuSerif-28" d="M 2041 -997 
Q 1281 -656 893 83 
Q 506 822 506 1931 
Q 506 3044 893 3783 
Q 1281 4522 2041 4863 
L 2041 4556 
Q 1559 4225 1350 3623 
Q 1141 3022 1141 1931 
Q 1141 844 1350 242 
Q 1559 -359 2041 -691 
L 2041 -997 
z
" transform="scale(0.015625)"/>
       <path id="DejaVuSerif-73" d="M 359 184 
L 359 959 
L 691 959 
Q 703 588 923 403 
Q 1144 219 1575 219 
Q 1963 219 2166 364 
Q 2369 509 2369 788 
Q 2369 1006 2220 1140 
Q 2072 1275 1594 1428 
L 1178 1569 
Q 750 1706 558 1912 
Q 366 2119 366 2438 
Q 366 2894 700 3153 
Q 1034 3413 1625 3413 
Q 1888 3413 2178 3344 
Q 2469 3275 2778 3144 
L 2778 2419 
L 2447 2419 
Q 2434 2741 2221 2922 
Q 2009 3103 1644 3103 
Q 1281 3103 1095 2975 
Q 909 2847 909 2591 
Q 909 2381 1050 2254 
Q 1191 2128 1613 1997 
L 2069 1856 
Q 2541 1709 2748 1489 
Q 2956 1269 2956 922 
Q 2956 450 2595 179 
Q 2234 -91 1600 -91 
Q 1278 -91 972 -22 
Q 666 47 359 184 
z
" transform="scale(0.015625)"/>
       <path id="DejaVuSerif-29" d="M 453 -997 
L 453 -691 
Q 934 -359 1145 242 
Q 1356 844 1356 1931 
Q 1356 3022 1145 3623 
Q 934 4225 453 4556 
L 453 4863 
Q 1216 4522 1603 3783 
Q 1991 3044 1991 1931 
Q 1991 822 1603 83 
Q 1216 -656 453 -997 
z
" transform="scale(0.015625)"/>
      </defs>
      <use xlink:href="#DejaVuSerif-54"/>
      <use xlink:href="#DejaVuSerif-69" x="66.699219"/>
      <use xlink:href="#DejaVuSerif-6d" x="98.681641"/>
      <use xlink:href="#DejaVuSerif-65" x="193.505859"/>
      <use xlink:href="#DejaVuSerif-20" x="252.685547"/>
      <use xlink:href="#DejaVuSerif-28" x="284.472656"/>
      <use xlink:href="#DejaVuSerif-73" x="323.486328"/>
      <use xlink:href="#DejaVuSerif-29" x="374.804688"/>
     </g>
    </g>
   </g>
   <g id="matplotlib.axis_2">
    <g id="ytick_1">
     <g id="line2d_24">
      <defs>
       <path id="m40e8ef202e" d="M 0 0 
L 5 0 
" style="stroke: #000000; stroke-width: 0.5"/>
      </defs>
      <g>
       <use xlink:href="#m40e8ef202e" x="49.5" y="241.794082" style="stroke: #000000; stroke-width: 0.5"/>
      </g>
     </g>
     <g id="text_8">
      <!-- $\mathdefault{0.000}$ -->
      <g transform="translate(25.91 244.453535) scale(0.07 -0.07)">
       <defs>
        <path id="DejaVuSans-2e" d="M 684 794 
L 1344 794 
L 1344 0 
L 684 0 
L 684 794 
z
" transform="scale(0.015625)"/>
       </defs>
       <use xlink:href="#DejaVuSans-30" transform="translate(0 0.78125)"/>
       <use xlink:href="#DejaVuSans-2e" transform="translate(63.623047 0.78125)"/>
       <use xlink:href="#DejaVuSans-30" transform="translate(95.410156 0.78125)"/>
       <use xlink:href="#DejaVuSans-30" transform="translate(159.033203 0.78125)"/>
       <use xlink:href="#DejaVuSans-30" transform="translate(222.65625 0.78125)"/>
      </g>
     </g>
    </g>
    <g id="ytick_2">
     <g id="line2d_25">
      <g>
       <use xlink:href="#m40e8ef202e" x="49.5" y="215.38161" style="stroke: #000000; stroke-width: 0.5"/>
      </g>
     </g>
     <g id="text_9">
      <!-- $\mathdefault{0.025}$ -->
      <g transform="translate(25.91 218.041063) scale(0.07 -0.07)">
       <defs>
        <path id="DejaVuSans-35" d="M 691 4666 
L 3169 4666 
L 3169 4134 
L 1269 4134 
L 1269 2991 
Q 1406 3038 1543 3061 
Q 1681 3084 1819 3084 
Q 2600 3084 3056 2656 
Q 3513 2228 3513 1497 
Q 3513 744 3044 326 
Q 2575 -91 1722 -91 
Q 1428 -91 1123 -41 
Q 819 9 494 109 
L 494 744 
Q 775 591 1075 516 
Q 1375 441 1709 441 
Q 2250 441 2565 725 
Q 2881 1009 2881 1497 
Q 2881 1984 2565 2268 
Q 2250 2553 1709 2553 
Q 1456 2553 1204 2497 
Q 953 2441 691 2322 
L 691 4666 
z
" transform="scale(0.015625)"/>
       </defs>
       <use xlink:href="#DejaVuSans-30" transform="translate(0 0.78125)"/>
       <use xlink:href="#DejaVuSans-2e" transform="translate(63.623047 0.78125)"/>
       <use xlink:href="#DejaVuSans-30" transform="translate(95.410156 0.78125)"/>
       <use xlink:href="#DejaVuSans-32" transform="translate(159.033203 0.78125)"/>
       <use xlink:href="#DejaVuSans-35" transform="translate(222.65625 0.78125)"/>
      </g>
     </g>
    </g>
    <g id="ytick_3">
     <g id="line2d_26">
      <g>
       <use xlink:href="#m40e8ef202e" x="49.5" y="188.969137" style="stroke: #000000; stroke-width: 0.5"/>
      </g>
     </g>
     <g id="text_10">
      <!-- $\mathdefault{0.050}$ -->
      <g transform="translate(25.91 191.62859) scale(0.07 -0.07)">
       <use xlink:href="#DejaVuSans-30" transform="translate(0 0.78125)"/>
       <use xlink:href="#DejaVuSans-2e" transform="translate(63.623047 0.78125)"/>
       <use xlink:href="#DejaVuSans-30" transform="translate(95.410156 0.78125)"/>
       <use xlink:href="#DejaVuSans-35" transform="translate(159.033203 0.78125)"/>
       <use xlink:href="#DejaVuSans-30" transform="translate(222.65625 0.78125)"/>
      </g>
     </g>
    </g>
    <g id="ytick_4">
     <g id="line2d_27">
      <g>
       <use xlink:href="#m40e8ef202e" x="49.5" y="162.556665" style="stroke: #000000; stroke-width: 0.5"/>
      </g>
     </g>
     <g id="text_11">
      <!-- $\mathdefault{0.075}$ -->
      <g transform="translate(25.91 165.216118) scale(0.07 -0.07)">
       <defs>
        <path id="DejaVuSans-37" d="M 525 4666 
L 3525 4666 
L 3525 4397 
L 1831 0 
L 1172 0 
L 2766 4134 
L 525 4134 
L 525 4666 
z
" transform="scale(0.015625)"/>
       </defs>
       <use xlink:href="#DejaVuSans-30" transform="translate(0 0.78125)"/>
       <use xlink:href="#DejaVuSans-2e" transform="translate(63.623047 0.78125)"/>
       <use xlink:href="#DejaVuSans-30" transform="translate(95.410156 0.78125)"/>
       <use xlink:href="#DejaVuSans-37" transform="translate(159.033203 0.78125)"/>
       <use xlink:href="#DejaVuSans-35" transform="translate(222.65625 0.78125)"/>
      </g>
     </g>
    </g>
    <g id="ytick_5">
     <g id="line2d_28">
      <g>
       <use xlink:href="#m40e8ef202e" x="49.5" y="136.144193" style="stroke: #000000; stroke-width: 0.5"/>
      </g>
     </g>
     <g id="text_12">
      <!-- $\mathdefault{0.100}$ -->
      <g transform="translate(25.91 138.803646) scale(0.07 -0.07)">
       <use xlink:href="#DejaVuSans-30" transform="translate(0 0.78125)"/>
       <use xlink:href="#DejaVuSans-2e" transform="translate(63.623047 0.78125)"/>
       <use xlink:href="#DejaVuSans-31" transform="translate(95.410156 0.78125)"/>
       <use xlink:href="#DejaVuSans-30" transform="translate(159.033203 0.78125)"/>
       <use xlink:href="#DejaVuSans-30" transform="translate(222.65625 0.78125)"/>
      </g>
     </g>
    </g>
    <g id="ytick_6">
     <g id="line2d_29">
      <g>
       <use xlink:href="#m40e8ef202e" x="49.5" y="109.73172" style="stroke: #000000; stroke-width: 0.5"/>
      </g>
     </g>
     <g id="text_13">
      <!-- $\mathdefault{0.125}$ -->
      <g transform="translate(25.91 112.391173) scale(0.07 -0.07)">
       <use xlink:href="#DejaVuSans-30" transform="translate(0 0.78125)"/>
       <use xlink:href="#DejaVuSans-2e" transform="translate(63.623047 0.78125)"/>
       <use xlink:href="#DejaVuSans-31" transform="translate(95.410156 0.78125)"/>
       <use xlink:href="#DejaVuSans-32" transform="translate(159.033203 0.78125)"/>
       <use xlink:href="#DejaVuSans-35" transform="translate(222.65625 0.78125)"/>
      </g>
     </g>
    </g>
    <g id="ytick_7">
     <g id="line2d_30">
      <g>
       <use xlink:href="#m40e8ef202e" x="49.5" y="83.319248" style="stroke: #000000; stroke-width: 0.5"/>
      </g>
     </g>
     <g id="text_14">
      <!-- $\mathdefault{0.150}$ -->
      <g transform="translate(25.91 85.978701) scale(0.07 -0.07)">
       <use xlink:href="#DejaVuSans-30" transform="translate(0 0.78125)"/>
       <use xlink:href="#DejaVuSans-2e" transform="translate(63.623047 0.78125)"/>
       <use xlink:href="#DejaVuSans-31" transform="translate(95.410156 0.78125)"/>
       <use xlink:href="#DejaVuSans-35" transform="translate(159.033203 0.78125)"/>
       <use xlink:href="#DejaVuSans-30" transform="translate(222.65625 0.78125)"/>
      </g>
     </g>
    </g>
    <g id="ytick_8">
     <g id="line2d_31">
      <g>
       <use xlink:href="#m40e8ef202e" x="49.5" y="56.906776" style="stroke: #000000; stroke-width: 0.5"/>
      </g>
     </g>
     <g id="text_15">
      <!-- $\mathdefault{0.175}$ -->
      <g transform="translate(25.91 59.566229) scale(0.07 -0.07)">
       <use xlink:href="#DejaVuSans-30" transform="translate(0 0.78125)"/>
       <use xlink:href="#DejaVuSans-2e" transform="translate(63.623047 0.78125)"/>
       <use xlink:href="#DejaVuSans-31" transform="translate(95.410156 0.78125)"/>
       <use xlink:href="#DejaVuSans-37" transform="translate(159.033203 0.78125)"/>
       <use xlink:href="#DejaVuSans-35" transform="translate(222.65625 0.78125)"/>
      </g>
     </g>
    </g>
    <g id="ytick_9">
     <g id="line2d_32">
      <g>
       <use xlink:href="#m40e8ef202e" x="49.5" y="30.494303" style="stroke: #000000; stroke-width: 0.5"/>
      </g>
     </g>
     <g id="text_16">
      <!-- $\mathdefault{0.200}$ -->
      <g transform="translate(26.33 33.153756) scale(0.07 -0.07)">
       <use xlink:href="#DejaVuSans-30" transform="translate(0 0.78125)"/>
       <use xlink:href="#DejaVuSans-2e" transform="translate(63.623047 0.78125)"/>
       <use xlink:href="#DejaVuSans-32" transform="translate(89.910156 0.78125)"/>
       <use xlink:href="#DejaVuSans-30" transform="translate(153.533203 0.78125)"/>
       <use xlink:href="#DejaVuSans-30" transform="translate(217.15625 0.78125)"/>
      </g>
     </g>
    </g>
    <g id="ytick_10">
     <g id="line2d_33">
      <defs>
       <path id="mc5067c01d9" d="M 0 0 
L 3 0 
" style="stroke: #000000; stroke-width: 0.5"/>
      </defs>
      <g>
       <use xlink:href="#mc5067c01d9" x="49.5" y="247.076576" style="stroke: #000000; stroke-width: 0.5"/>
      </g>
     </g>
    </g>
    <g id="ytick_11">
     <g id="line2d_34">
      <g>
       <use xlink:href="#mc5067c01d9" x="49.5" y="236.511587" style="stroke: #000000; stroke-width: 0.5"/>
      </g>
     </g>
    </g>
    <g id="ytick_12">
     <g id="line2d_35">
      <g>
       <use xlink:href="#mc5067c01d9" x="49.5" y="231.229093" style="stroke: #000000; stroke-width: 0.5"/>
      </g>
     </g>
    </g>
    <g id="ytick_13">
     <g id="line2d_36">
      <g>
       <use xlink:href="#mc5067c01d9" x="49.5" y="225.946598" style="stroke: #000000; stroke-width: 0.5"/>
      </g>
     </g>
    </g>
    <g id="ytick_14">
     <g id="line2d_37">
      <g>
       <use xlink:href="#mc5067c01d9" x="49.5" y="220.664104" style="stroke: #000000; stroke-width: 0.5"/>
      </g>
     </g>
    </g>
    <g id="ytick_15">
     <g id="line2d_38">
      <g>
       <use xlink:href="#mc5067c01d9" x="49.5" y="210.099115" style="stroke: #000000; stroke-width: 0.5"/>
      </g>
     </g>
    </g>
    <g id="ytick_16">
     <g id="line2d_39">
      <g>
       <use xlink:href="#mc5067c01d9" x="49.5" y="204.816621" style="stroke: #000000; stroke-width: 0.5"/>
      </g>
     </g>
    </g>
    <g id="ytick_17">
     <g id="line2d_40">
      <g>
       <use xlink:href="#mc5067c01d9" x="49.5" y="199.534126" style="stroke: #000000; stroke-width: 0.5"/>
      </g>
     </g>
    </g>
    <g id="ytick_18">
     <g id="line2d_41">
      <g>
       <use xlink:href="#mc5067c01d9" x="49.5" y="194.251632" style="stroke: #000000; stroke-width: 0.5"/>
      </g>
     </g>
    </g>
    <g id="ytick_19">
     <g id="line2d_42">
      <g>
       <use xlink:href="#mc5067c01d9" x="49.5" y="183.686643" style="stroke: #000000; stroke-width: 0.5"/>
      </g>
     </g>
    </g>
    <g id="ytick_20">
     <g id="line2d_43">
      <g>
       <use xlink:href="#mc5067c01d9" x="49.5" y="178.404148" style="stroke: #000000; stroke-width: 0.5"/>
      </g>
     </g>
    </g>
    <g id="ytick_21">
     <g id="line2d_44">
      <g>
       <use xlink:href="#mc5067c01d9" x="49.5" y="173.121654" style="stroke: #000000; stroke-width: 0.5"/>
      </g>
     </g>
    </g>
    <g id="ytick_22">
     <g id="line2d_45">
      <g>
       <use xlink:href="#mc5067c01d9" x="49.5" y="167.839159" style="stroke: #000000; stroke-width: 0.5"/>
      </g>
     </g>
    </g>
    <g id="ytick_23">
     <g id="line2d_46">
      <g>
       <use xlink:href="#mc5067c01d9" x="49.5" y="157.27417" style="stroke: #000000; stroke-width: 0.5"/>
      </g>
     </g>
    </g>
    <g id="ytick_24">
     <g id="line2d_47">
      <g>
       <use xlink:href="#mc5067c01d9" x="49.5" y="151.991676" style="stroke: #000000; stroke-width: 0.5"/>
      </g>
     </g>
    </g>
    <g id="ytick_25">
     <g id="line2d_48">
      <g>
       <use xlink:href="#mc5067c01d9" x="49.5" y="146.709182" style="stroke: #000000; stroke-width: 0.5"/>
      </g>
     </g>
    </g>
    <g id="ytick_26">
     <g id="line2d_49">
      <g>
       <use xlink:href="#mc5067c01d9" x="49.5" y="141.426687" style="stroke: #000000; stroke-width: 0.5"/>
      </g>
     </g>
    </g>
    <g id="ytick_27">
     <g id="line2d_50">
      <g>
       <use xlink:href="#mc5067c01d9" x="49.5" y="130.861698" style="stroke: #000000; stroke-width: 0.5"/>
      </g>
     </g>
    </g>
    <g id="ytick_28">
     <g id="line2d_51">
      <g>
       <use xlink:href="#mc5067c01d9" x="49.5" y="125.579204" style="stroke: #000000; stroke-width: 0.5"/>
      </g>
     </g>
    </g>
    <g id="ytick_29">
     <g id="line2d_52">
      <g>
       <use xlink:href="#mc5067c01d9" x="49.5" y="120.296709" style="stroke: #000000; stroke-width: 0.5"/>
      </g>
     </g>
    </g>
    <g id="ytick_30">
     <g id="line2d_53">
      <g>
       <use xlink:href="#mc5067c01d9" x="49.5" y="115.014215" style="stroke: #000000; stroke-width: 0.5"/>
      </g>
     </g>
    </g>
    <g id="ytick_31">
     <g id="line2d_54">
      <g>
       <use xlink:href="#mc5067c01d9" x="49.5" y="104.449226" style="stroke: #000000; stroke-width: 0.5"/>
      </g>
     </g>
    </g>
    <g id="ytick_32">
     <g id="line2d_55">
      <g>
       <use xlink:href="#mc5067c01d9" x="49.5" y="99.166731" style="stroke: #000000; stroke-width: 0.5"/>
      </g>
     </g>
    </g>
    <g id="ytick_33">
     <g id="line2d_56">
      <g>
       <use xlink:href="#mc5067c01d9" x="49.5" y="93.884237" style="stroke: #000000; stroke-width: 0.5"/>
      </g>
     </g>
    </g>
    <g id="ytick_34">
     <g id="line2d_57">
      <g>
       <use xlink:href="#mc5067c01d9" x="49.5" y="88.601742" style="stroke: #000000; stroke-width: 0.5"/>
      </g>
     </g>
    </g>
    <g id="ytick_35">
     <g id="line2d_58">
      <g>
       <use xlink:href="#mc5067c01d9" x="49.5" y="78.036754" style="stroke: #000000; stroke-width: 0.5"/>
      </g>
     </g>
    </g>
    <g id="ytick_36">
     <g id="line2d_59">
      <g>
       <use xlink:href="#mc5067c01d9" x="49.5" y="72.754259" style="stroke: #000000; stroke-width: 0.5"/>
      </g>
     </g>
    </g>
    <g id="ytick_37">
     <g id="line2d_60">
      <g>
       <use xlink:href="#mc5067c01d9" x="49.5" y="67.471765" style="stroke: #000000; stroke-width: 0.5"/>
      </g>
     </g>
    </g>
    <g id="ytick_38">
     <g id="line2d_61">
      <g>
       <use xlink:href="#mc5067c01d9" x="49.5" y="62.18927" style="stroke: #000000; stroke-width: 0.5"/>
      </g>
     </g>
    </g>
    <g id="ytick_39">
     <g id="line2d_62">
      <g>
       <use xlink:href="#mc5067c01d9" x="49.5" y="51.624281" style="stroke: #000000; stroke-width: 0.5"/>
      </g>
     </g>
    </g>
    <g id="ytick_40">
     <g id="line2d_63">
      <g>
       <use xlink:href="#mc5067c01d9" x="49.5" y="46.341787" style="stroke: #000000; stroke-width: 0.5"/>
      </g>
     </g>
    </g>
    <g id="ytick_41">
     <g id="line2d_64">
      <g>
       <use xlink:href="#mc5067c01d9" x="49.5" y="41.059292" style="stroke: #000000; stroke-width: 0.5"/>
      </g>
     </g>
    </g>
    <g id="ytick_42">
     <g id="line2d_65">
      <g>
       <use xlink:href="#mc5067c01d9" x="49.5" y="35.776798" style="stroke: #000000; stroke-width: 0.5"/>
      </g>
     </g>
    </g>
    <g id="text_17">
     <!-- Error in Count -->
     <g transform="translate(19.830312 177.478181) rotate(-90) scale(0.1 -0.1)">
      <defs>
       <path id="DejaVuSerif-45" d="M 353 0 
L 353 331 
L 947 331 
L 947 4331 
L 353 4331 
L 353 4666 
L 4109 4666 
L 4109 3628 
L 3725 3628 
L 3725 4281 
L 1581 4281 
L 1581 2719 
L 3109 2719 
L 3109 3303 
L 3494 3303 
L 3494 1753 
L 3109 1753 
L 3109 2338 
L 1581 2338 
L 1581 384 
L 3775 384 
L 3775 1038 
L 4159 1038 
L 4159 0 
L 353 0 
z
" transform="scale(0.015625)"/>
       <path id="DejaVuSerif-72" d="M 3059 3328 
L 3059 2497 
L 2728 2497 
Q 2713 2744 2591 2866 
Q 2469 2988 2234 2988 
Q 1809 2988 1582 2694 
Q 1356 2400 1356 1850 
L 1356 331 
L 2022 331 
L 2022 0 
L 263 0 
L 263 331 
L 781 331 
L 781 2994 
L 231 2994 
L 231 3322 
L 1356 3322 
L 1356 2731 
Q 1525 3078 1790 3245 
Q 2056 3413 2438 3413 
Q 2578 3413 2733 3391 
Q 2888 3369 3059 3328 
z
" transform="scale(0.015625)"/>
       <path id="DejaVuSerif-6f" d="M 1925 219 
Q 2388 219 2623 584 
Q 2859 950 2859 1663 
Q 2859 2375 2623 2739 
Q 2388 3103 1925 3103 
Q 1463 3103 1227 2739 
Q 991 2375 991 1663 
Q 991 950 1228 584 
Q 1466 219 1925 219 
z
M 1925 -91 
Q 1200 -91 759 389 
Q 319 869 319 1663 
Q 319 2456 758 2934 
Q 1197 3413 1925 3413 
Q 2653 3413 3092 2934 
Q 3531 2456 3531 1663 
Q 3531 869 3092 389 
Q 2653 -91 1925 -91 
z
" transform="scale(0.015625)"/>
       <path id="DejaVuSerif-6e" d="M 263 0 
L 263 331 
L 781 331 
L 781 2988 
L 231 2988 
L 231 3322 
L 1356 3322 
L 1356 2731 
Q 1516 3069 1770 3241 
Q 2025 3413 2363 3413 
Q 2913 3413 3172 3097 
Q 3431 2781 3431 2113 
L 3431 331 
L 3944 331 
L 3944 0 
L 2356 0 
L 2356 331 
L 2853 331 
L 2853 1931 
Q 2853 2541 2703 2767 
Q 2553 2994 2175 2994 
Q 1775 2994 1565 2701 
Q 1356 2409 1356 1850 
L 1356 331 
L 1856 331 
L 1856 0 
L 263 0 
z
" transform="scale(0.015625)"/>
       <path id="DejaVuSerif-43" d="M 4513 1234 
Q 4306 581 3820 245 
Q 3334 -91 2591 -91 
Q 2134 -91 1743 65 
Q 1353 222 1050 525 
Q 700 875 529 1320 
Q 359 1766 359 2328 
Q 359 3416 987 4083 
Q 1616 4750 2644 4750 
Q 3025 4750 3456 4650 
Q 3888 4550 4384 4347 
L 4384 3272 
L 4031 3272 
Q 3916 3859 3567 4137 
Q 3219 4416 2591 4416 
Q 1844 4416 1459 3886 
Q 1075 3356 1075 2328 
Q 1075 1303 1459 773 
Q 1844 244 2591 244 
Q 3113 244 3450 492 
Q 3788 741 3938 1234 
L 4513 1234 
z
" transform="scale(0.015625)"/>
       <path id="DejaVuSerif-75" d="M 2266 3322 
L 3341 3322 
L 3341 331 
L 3884 331 
L 3884 0 
L 2766 0 
L 2766 588 
Q 2606 256 2353 82 
Q 2100 -91 1766 -91 
Q 1213 -91 952 223 
Q 691 538 691 1209 
L 691 2988 
L 172 2988 
L 172 3322 
L 1269 3322 
L 1269 1388 
Q 1269 781 1417 556 
Q 1566 331 1947 331 
Q 2347 331 2556 625 
Q 2766 919 2766 1478 
L 2766 2988 
L 2266 2988 
L 2266 3322 
z
" transform="scale(0.015625)"/>
       <path id="DejaVuSerif-74" d="M 691 2988 
L 184 2988 
L 184 3322 
L 691 3322 
L 691 4353 
L 1269 4353 
L 1269 3322 
L 2350 3322 
L 2350 2988 
L 1269 2988 
L 1269 878 
Q 1269 456 1350 337 
Q 1431 219 1650 219 
Q 1875 219 1978 351 
Q 2081 484 2088 781 
L 2522 781 
Q 2497 328 2275 118 
Q 2053 -91 1600 -91 
Q 1103 -91 897 129 
Q 691 350 691 878 
L 691 2988 
z
" transform="scale(0.015625)"/>
      </defs>
      <use xlink:href="#DejaVuSerif-45"/>
      <use xlink:href="#DejaVuSerif-72" x="72.998047"/>
      <use xlink:href="#DejaVuSerif-72" x="120.800781"/>
      <use xlink:href="#DejaVuSerif-6f" x="168.603516"/>
      <use xlink:href="#DejaVuSerif-72" x="228.808594"/>
      <use xlink:href="#DejaVuSerif-20" x="276.611328"/>
      <use xlink:href="#DejaVuSerif-69" x="308.398438"/>
      <use xlink:href="#DejaVuSerif-6e" x="340.380859"/>
      <use xlink:href="#DejaVuSerif-20" x="404.785156"/>
      <use xlink:href="#DejaVuSerif-43" x="436.572266"/>
      <use xlink:href="#DejaVuSerif-6f" x="513.085938"/>
      <use xlink:href="#DejaVuSerif-75" x="573.291016"/>
      <use xlink:href="#DejaVuSerif-6e" x="637.695312"/>
      <use xlink:href="#DejaVuSerif-74" x="702.099609"/>
     </g>
    </g>
   </g>
   <g id="line2d_66">
    <path d="M 63.45 241.794082 
L 66.24 190.686814 
L 69.03 149.553772 
L 71.82 116.934711 
L 74.61 91.559453 
L 77.4 72.32469 
L 80.19 58.273504 
L 82.98 48.577298 
L 85.77 42.519858 
L 88.56 39.483305 
L 91.35 38.935718 
L 94.14 40.420241 
L 96.93 43.545494 
L 99.72 47.977139 
L 102.51 53.430478 
L 105.3 59.663941 
L 108.09 66.473383 
L 110.88 73.687073 
L 113.67 81.161318 
L 116.46 88.77662 
L 119.25 96.434323 
L 122.04 104.053682 
L 124.83 111.569308 
L 127.62 118.928939 
L 130.41 126.091498 
L 133.2 133.025409 
L 135.99 139.707137 
L 138.78 146.119911 
L 141.57 152.252638 
L 144.36 158.098947 
L 147.15 163.656374 
L 149.94 168.925663 
L 152.73 173.910164 
L 155.52 178.615311 
L 158.31 183.04819 
L 161.1 187.217162 
L 163.89 191.131548 
L 166.68 194.801361 
L 169.47 198.237081 
L 172.26 201.449472 
L 175.05 204.449424 
L 177.84 207.247828 
L 180.63 209.855469 
L 183.42 212.282947 
L 186.21 214.540609 
L 189 216.638495 
L 191.79 218.586303 
L 194.58 220.393359 
L 197.37 222.068597 
L 200.16 223.620545 
L 202.95 225.057324 
L 205.74 226.386642 
L 208.53 227.615798 
L 211.32 228.75169 
L 214.11 229.800822 
L 216.9 230.769318 
L 219.69 231.662931 
L 222.48 232.487058 
L 225.27 233.246757 
L 228.06 233.94676 
L 230.85 234.591486 
L 233.64 235.185064 
L 236.43 235.731339 
L 239.22 236.233894 
L 242.01 236.696065 
L 244.8 237.120949 
L 247.59 237.511425 
L 250.38 237.870166 
L 253.17 238.199649 
L 255.96 238.502171 
L 258.75 238.779856 
L 261.54 239.034675 
L 264.33 239.268447 
L 267.12 239.482855 
L 269.91 239.679452 
L 272.7 239.859676 
L 275.49 240.02485 
L 278.28 240.176196 
L 281.07 240.314842 
L 283.86 240.441826 
L 286.65 240.558104 
L 289.44 240.664557 
L 292.23 240.761996 
L 295.02 240.851168 
L 297.81 240.932758 
L 300.6 241.007398 
L 303.39 241.075668 
L 306.18 241.1381 
L 308.97 241.195185 
L 311.76 241.247371 
L 314.55 241.295071 
L 317.34 241.338665 
L 320.13 241.3785 
L 322.92 241.414894 
L 325.71 241.448141 
L 328.5 241.478507 
L 331.29 241.506239 
L 334.08 241.531562 
L 336.87 241.554682 
L 339.66 241.575788 
L 342.45 241.595053 
" clip-path="url(#pd88e851e6a)" style="fill: none; stroke: #1f77b4; stroke-width: 0.7; stroke-linecap: square"/>
   </g>
   <g id="line2d_67">
    <path d="M 63.45 241.794082 
L 64.845 228.805226 
L 66.24 217.099286 
L 67.635 206.581223 
L 69.03 197.162254 
L 70.425 188.759469 
L 71.82 181.295468 
L 73.215 174.698018 
L 74.61 168.899728 
L 76.005 163.837755 
L 77.4 159.453511 
L 78.795 155.6924 
L 80.19 152.503566 
L 81.585 149.839657 
L 82.98 147.6566 
L 84.375 145.913399 
L 85.77 144.571932 
L 87.165 143.59677 
L 88.56 142.955005 
L 89.955 142.616084 
L 91.35 142.55166 
L 92.745 142.735448 
L 94.14 143.143089 
L 95.535 143.752024 
L 96.93 144.541377 
L 98.325 145.491844 
L 101.115 147.806135 
L 103.905 150.568074 
L 106.695 153.669945 
L 110.88 158.764792 
L 116.46 166.012707 
L 127.62 180.616461 
L 133.2 187.489792 
L 137.385 192.344494 
L 141.57 196.90941 
L 145.755 201.16979 
L 149.94 205.120799 
L 154.125 208.765015 
L 158.31 212.110435 
L 162.495 215.168897 
L 166.68 217.954837 
L 170.865 220.484323 
L 175.05 222.774307 
L 179.235 224.842057 
L 183.42 226.704729 
L 189 228.89812 
L 194.58 230.794426 
L 200.16 232.428854 
L 205.74 233.833691 
L 211.32 235.038185 
L 218.295 236.30177 
L 225.27 237.338066 
L 233.64 238.335338 
L 242.01 239.115897 
L 251.775 239.812321 
L 262.935 240.393991 
L 276.885 240.89117 
L 295.02 241.286805 
L 318.735 241.557575 
L 342.45 241.684763 
L 342.45 241.684763 
" clip-path="url(#pd88e851e6a)" style="fill: none; stroke: #ff7f0e; stroke-width: 0.7; stroke-linecap: square"/>
   </g>
   <g id="line2d_68">
    <path d="M 63.45 241.794082 
L 65.403 238.323779 
L 67.356 235.323844 
L 69.309 232.74646 
L 71.262 230.548134 
L 73.215 228.689325 
L 75.168 227.134111 
L 77.121 225.84988 
L 79.074 224.807044 
L 81.306 223.876531 
L 83.538 223.190344 
L 86.049 222.670558 
L 88.56 222.378938 
L 91.35 222.279492 
L 94.419 222.394611 
L 98.046 222.770672 
L 102.231 223.446724 
L 107.253 224.492378 
L 114.507 226.254477 
L 135.432 231.464816 
L 143.802 233.258626 
L 151.893 234.769315 
L 160.263 236.101794 
L 168.912 237.249645 
L 178.119 238.244695 
L 188.163 239.103284 
L 199.323 239.830951 
L 212.157 240.439294 
L 227.502 240.932967 
L 246.474 241.308203 
L 271.863 241.57188 
L 310.644 241.728666 
L 342.45 241.770536 
L 342.45 241.770536 
" clip-path="url(#pd88e851e6a)" style="fill: none; stroke: #2ca02c; stroke-width: 0.7; stroke-linecap: square"/>
   </g>
   <g id="line2d_69">
    <path d="M 63.45 241.794082 
L 67.6908 241.103933 
L 72.4617 240.55808 
L 77.9301 240.161628 
L 84.4308 239.920488 
L 92.5497 239.851718 
L 103.8492 239.995701 
L 128.8476 240.606003 
L 156.078 241.160141 
L 183.7827 241.489062 
L 220.6944 241.68796 
L 285.4224 241.779368 
L 342.45 241.791688 
L 342.45 241.791688 
" clip-path="url(#pd88e851e6a)" style="fill: none; stroke: #d62728; stroke-width: 0.7; stroke-linecap: square"/>
   </g>
   <g id="patch_3">
    <path d="M 49.5 251.937 
L 49.5 28.7928 
" style="fill: none; stroke: #000000; stroke-width: 0.5; stroke-linejoin: miter; stroke-linecap: square"/>
   </g>
   <g id="patch_4">
    <path d="M 356.4 251.937 
L 356.4 28.7928 
" style="fill: none; stroke: #000000; stroke-width: 0.5; stroke-linejoin: miter; stroke-linecap: square"/>
   </g>
   <g id="patch_5">
    <path d="M 49.5 251.937 
L 356.4 251.937 
" style="fill: none; stroke: #000000; stroke-width: 0.5; stroke-linejoin: miter; stroke-linecap: square"/>
   </g>
   <g id="patch_6">
    <path d="M 49.5 28.7928 
L 356.4 28.7928 
" style="fill: none; stroke: #000000; stroke-width: 0.5; stroke-linejoin: miter; stroke-linecap: square"/>
   </g>
   <g id="legend_1">
    <g id="patch_7">
     <path d="M 259.310938 95.5053 
L 349.4 95.5053 
Q 351.4 95.5053 351.4 93.5053 
L 351.4 35.7928 
Q 351.4 33.7928 349.4 33.7928 
L 259.310938 33.7928 
Q 257.310938 33.7928 257.310938 35.7928 
L 257.310938 93.5053 
Q 257.310938 95.5053 259.310938 95.5053 
z
" style="fill: #ffffff; opacity: 0.8; stroke: #cccccc; stroke-linejoin: miter"/>
    </g>
    <g id="line2d_70">
     <path d="M 261.310938 41.891237 
L 281.310938 41.891237 
" style="fill: none; stroke: #1f77b4; stroke-width: 0.7; stroke-linecap: square"/>
    </g>
    <g id="line2d_71"/>
    <g id="text_18">
     <!-- h = 0.1 s -->
     <g transform="translate(289.310938 45.391237) scale(0.1 -0.1)">
      <defs>
       <path id="DejaVuSans-68" d="M 3513 2113 
L 3513 0 
L 2938 0 
L 2938 2094 
Q 2938 2591 2744 2837 
Q 2550 3084 2163 3084 
Q 1697 3084 1428 2787 
Q 1159 2491 1159 1978 
L 1159 0 
L 581 0 
L 581 4863 
L 1159 4863 
L 1159 2956 
Q 1366 3272 1645 3428 
Q 1925 3584 2291 3584 
Q 2894 3584 3203 3211 
Q 3513 2838 3513 2113 
z
" transform="scale(0.015625)"/>
       <path id="DejaVuSans-20" transform="scale(0.015625)"/>
       <path id="DejaVuSans-3d" d="M 678 2906 
L 4684 2906 
L 4684 2381 
L 678 2381 
L 678 2906 
z
M 678 1631 
L 4684 1631 
L 4684 1100 
L 678 1100 
L 678 1631 
z
" transform="scale(0.015625)"/>
       <path id="DejaVuSans-73" d="M 2834 3397 
L 2834 2853 
Q 2591 2978 2328 3040 
Q 2066 3103 1784 3103 
Q 1356 3103 1142 2972 
Q 928 2841 928 2578 
Q 928 2378 1081 2264 
Q 1234 2150 1697 2047 
L 1894 2003 
Q 2506 1872 2764 1633 
Q 3022 1394 3022 966 
Q 3022 478 2636 193 
Q 2250 -91 1575 -91 
Q 1294 -91 989 -36 
Q 684 19 347 128 
L 347 722 
Q 666 556 975 473 
Q 1284 391 1588 391 
Q 1994 391 2212 530 
Q 2431 669 2431 922 
Q 2431 1156 2273 1281 
Q 2116 1406 1581 1522 
L 1381 1569 
Q 847 1681 609 1914 
Q 372 2147 372 2553 
Q 372 3047 722 3315 
Q 1072 3584 1716 3584 
Q 2034 3584 2315 3537 
Q 2597 3491 2834 3397 
z
" transform="scale(0.015625)"/>
      </defs>
      <use xlink:href="#DejaVuSans-68"/>
      <use xlink:href="#DejaVuSans-20" x="63.378906"/>
      <use xlink:href="#DejaVuSans-3d" x="95.166016"/>
      <use xlink:href="#DejaVuSans-20" x="178.955078"/>
      <use xlink:href="#DejaVuSans-30" x="210.742188"/>
      <use xlink:href="#DejaVuSans-2e" x="274.365234"/>
      <use xlink:href="#DejaVuSans-31" x="306.152344"/>
      <use xlink:href="#DejaVuSans-20" x="369.775391"/>
      <use xlink:href="#DejaVuSans-73" x="401.5625"/>
     </g>
    </g>
    <g id="line2d_72">
     <path d="M 261.310938 56.569362 
L 281.310938 56.569362 
" style="fill: none; stroke: #ff7f0e; stroke-width: 0.7; stroke-linecap: square"/>
    </g>
    <g id="line2d_73"/>
    <g id="text_19">
     <!-- h = 0.05 s -->
     <g transform="translate(289.310938 60.069362) scale(0.1 -0.1)">
      <use xlink:href="#DejaVuSans-68"/>
      <use xlink:href="#DejaVuSans-20" x="63.378906"/>
      <use xlink:href="#DejaVuSans-3d" x="95.166016"/>
      <use xlink:href="#DejaVuSans-20" x="178.955078"/>
      <use xlink:href="#DejaVuSans-30" x="210.742188"/>
      <use xlink:href="#DejaVuSans-2e" x="274.365234"/>
      <use xlink:href="#DejaVuSans-30" x="306.152344"/>
      <use xlink:href="#DejaVuSans-35" x="369.775391"/>
      <use xlink:href="#DejaVuSans-20" x="433.398438"/>
      <use xlink:href="#DejaVuSans-73" x="465.185547"/>
     </g>
    </g>
    <g id="line2d_74">
     <path d="M 261.310938 71.247487 
L 281.310938 71.247487 
" style="fill: none; stroke: #2ca02c; stroke-width: 0.7; stroke-linecap: square"/>
    </g>
    <g id="line2d_75"/>
    <g id="text_20">
     <!-- h = 0.01 s -->
     <g transform="translate(289.310938 74.747487) scale(0.1 -0.1)">
      <use xlink:href="#DejaVuSans-68"/>
      <use xlink:href="#DejaVuSans-20" x="63.378906"/>
      <use xlink:href="#DejaVuSans-3d" x="95.166016"/>
      <use xlink:href="#DejaVuSans-20" x="178.955078"/>
      <use xlink:href="#DejaVuSans-30" x="210.742188"/>
      <use xlink:href="#DejaVuSans-2e" x="274.365234"/>
      <use xlink:href="#DejaVuSans-30" x="306.152344"/>
      <use xlink:href="#DejaVuSans-31" x="369.775391"/>
      <use xlink:href="#DejaVuSans-20" x="433.398438"/>
      <use xlink:href="#DejaVuSans-73" x="465.185547"/>
     </g>
    </g>
    <g id="line2d_76">
     <path d="M 261.310938 85.925612 
L 281.310938 85.925612 
" style="fill: none; stroke: #d62728; stroke-width: 0.7; stroke-linecap: square"/>
    </g>
    <g id="line2d_77"/>
    <g id="text_21">
     <!-- h = 0.001 s -->
     <g transform="translate(289.310938 89.425612) scale(0.1 -0.1)">
      <use xlink:href="#DejaVuSans-68"/>
      <use xlink:href="#DejaVuSans-20" x="63.378906"/>
      <use xlink:href="#DejaVuSans-3d" x="95.166016"/>
      <use xlink:href="#DejaVuSans-20" x="178.955078"/>
      <use xlink:href="#DejaVuSans-30" x="210.742188"/>
      <use xlink:href="#DejaVuSans-2e" x="274.365234"/>
      <use xlink:href="#DejaVuSans-30" x="306.152344"/>
      <use xlink:href="#DejaVuSans-30" x="369.775391"/>
      <use xlink:href="#DejaVuSans-31" x="433.398438"/>
      <use xlink:href="#DejaVuSans-20" x="497.021484"/>
      <use xlink:href="#DejaVuSans-73" x="528.808594"/>
     </g>
    </g>
   </g>
  </g>
 </g>
 <defs>
  <clipPath id="pd88e851e6a">
   <rect x="49.5" y="28.7928" width="306.9" height="223.1442"/>
  </clipPath>
 </defs>
</svg>
