<?xml version="1.0" encoding="utf-8" standalone="no"?>
<!DOCTYPE svg PUBLIC "-//W3C//DTD SVG 1.1//EN"
  "http://www.w3.org/Graphics/SVG/1.1/DTD/svg11.dtd">
<svg xmlns:xlink="http://www.w3.org/1999/xlink" width="396pt" height="287.928pt" viewBox="0 0 396 287.928" xmlns="http://www.w3.org/2000/svg" version="1.1">
 <metadata>
  <rdf:RDF xmlns:dc="http://purl.org/dc/elements/1.1/" xmlns:cc="http://creativecommons.org/ns#" xmlns:rdf="http://www.w3.org/1999/02/22-rdf-syntax-ns#">
   <cc:Work>
    <dc:type rdf:resource="http://purl.org/dc/dcmitype/StillImage"/>
    <dc:date>2024-09-21T14:34:48.949364</dc:date>
    <dc:format>image/svg+xml</dc:format>
    <dc:creator>
     <cc:Agent>
      <dc:title>Matplotlib v3.8.3, https://matplotlib.org/</dc:title>
     </cc:Agent>
    </dc:creator>
   </cc:Work>
  </rdf:RDF>
 </metadata>
 <defs>
  <style type="text/css">*{stroke-linejoin: round; stroke-linecap: butt}</style>
 </defs>
 <g id="figure_1">
  <g id="patch_1">
   <path d="M 0 287.928 
L 396 287.928 
L 396 0 
L 0 0 
z
" style="fill: #ffffff"/>
  </g>
  <g id="axes_1">
   <g id="patch_2">
    <path d="M 49.5 251.937 
L 356.4 251.937 
L 356.4 28.7928 
L 49.5 28.7928 
z
" style="fill: #ffffff"/>
   </g>
   <g id="matplotlib.axis_1">
    <g id="xtick_1">
     <g id="line2d_1">
      <defs>
       <path id="m9c0114bc8a" d="M 0 0 
L 0 -5 
" style="stroke: #000000; stroke-width: 0.5"/>
      </defs>
      <g>
       <use xlink:href="#m9c0114bc8a" x="49.5" y="251.937" style="stroke: #000000; stroke-width: 0.5"/>
      </g>
     </g>
     <g id="text_1">
      <!-- $\mathdefault{0}$ -->
      <g transform="translate(47.26 260.755906) scale(0.07 -0.07)">
       <defs>
        <path id="DejaVuSans-30" d="M 2034 4250 
Q 1547 4250 1301 3770 
Q 1056 3291 1056 2328 
Q 1056 1369 1301 889 
Q 1547 409 2034 409 
Q 2525 409 2770 889 
Q 3016 1369 3016 2328 
Q 3016 3291 2770 3770 
Q 2525 4250 2034 4250 
z
M 2034 4750 
Q 2819 4750 3233 4129 
Q 3647 3509 3647 2328 
Q 3647 1150 3233 529 
Q 2819 -91 2034 -91 
Q 1250 -91 836 529 
Q 422 1150 422 2328 
Q 422 3509 836 4129 
Q 1250 4750 2034 4750 
z
" transform="scale(0.015625)"/>
       </defs>
       <use xlink:href="#DejaVuSans-30" transform="translate(0 0.78125)"/>
      </g>
     </g>
    </g>
    <g id="xtick_2">
     <g id="line2d_2">
      <g>
       <use xlink:href="#m9c0114bc8a" x="110.88" y="251.937" style="stroke: #000000; stroke-width: 0.5"/>
      </g>
     </g>
     <g id="text_2">
      <!-- $\mathdefault{2}$ -->
      <g transform="translate(108.64 260.755906) scale(0.07 -0.07)">
       <defs>
        <path id="DejaVuSans-32" d="M 1228 531 
L 3431 531 
L 3431 0 
L 469 0 
L 469 531 
Q 828 903 1448 1529 
Q 2069 2156 2228 2338 
Q 2531 2678 2651 2914 
Q 2772 3150 2772 3378 
Q 2772 3750 2511 3984 
Q 2250 4219 1831 4219 
Q 1534 4219 1204 4116 
Q 875 4013 500 3803 
L 500 4441 
Q 881 4594 1212 4672 
Q 1544 4750 1819 4750 
Q 2544 4750 2975 4387 
Q 3406 4025 3406 3419 
Q 3406 3131 3298 2873 
Q 3191 2616 2906 2266 
Q 2828 2175 2409 1742 
Q 1991 1309 1228 531 
z
" transform="scale(0.015625)"/>
       </defs>
       <use xlink:href="#DejaVuSans-32" transform="translate(0 0.78125)"/>
      </g>
     </g>
    </g>
    <g id="xtick_3">
     <g id="line2d_3">
      <g>
       <use xlink:href="#m9c0114bc8a" x="172.26" y="251.937" style="stroke: #000000; stroke-width: 0.5"/>
      </g>
     </g>
     <g id="text_3">
      <!-- $\mathdefault{4}$ -->
      <g transform="translate(170.02 260.755906) scale(0.07 -0.07)">
       <defs>
        <path id="DejaVuSans-34" d="M 2419 4116 
L 825 1625 
L 2419 1625 
L 2419 4116 
z
M 2253 4666 
L 3047 4666 
L 3047 1625 
L 3713 1625 
L 3713 1100 
L 3047 1100 
L 3047 0 
L 2419 0 
L 2419 1100 
L 313 1100 
L 313 1709 
L 2253 4666 
z
" transform="scale(0.015625)"/>
       </defs>
       <use xlink:href="#DejaVuSans-34" transform="translate(0 0.09375)"/>
      </g>
     </g>
    </g>
    <g id="xtick_4">
     <g id="line2d_4">
      <g>
       <use xlink:href="#m9c0114bc8a" x="233.64" y="251.937" style="stroke: #000000; stroke-width: 0.5"/>
      </g>
     </g>
     <g id="text_4">
      <!-- $\mathdefault{6}$ -->
      <g transform="translate(231.4 260.755906) scale(0.07 -0.07)">
       <defs>
        <path id="DejaVuSans-36" d="M 2113 2584 
Q 1688 2584 1439 2293 
Q 1191 2003 1191 1497 
Q 1191 994 1439 701 
Q 1688 409 2113 409 
Q 2538 409 2786 701 
Q 3034 994 3034 1497 
Q 3034 2003 2786 2293 
Q 2538 2584 2113 2584 
z
M 3366 4563 
L 3366 3988 
Q 3128 4100 2886 4159 
Q 2644 4219 2406 4219 
Q 1781 4219 1451 3797 
Q 1122 3375 1075 2522 
Q 1259 2794 1537 2939 
Q 1816 3084 2150 3084 
Q 2853 3084 3261 2657 
Q 3669 2231 3669 1497 
Q 3669 778 3244 343 
Q 2819 -91 2113 -91 
Q 1303 -91 875 529 
Q 447 1150 447 2328 
Q 447 3434 972 4092 
Q 1497 4750 2381 4750 
Q 2619 4750 2861 4703 
Q 3103 4656 3366 4563 
z
" transform="scale(0.015625)"/>
       </defs>
       <use xlink:href="#DejaVuSans-36" transform="translate(0 0.78125)"/>
      </g>
     </g>
    </g>
    <g id="xtick_5">
     <g id="line2d_5">
      <g>
       <use xlink:href="#m9c0114bc8a" x="295.02" y="251.937" style="stroke: #000000; stroke-width: 0.5"/>
      </g>
     </g>
     <g id="text_5">
      <!-- $\mathdefault{8}$ -->
      <g transform="translate(292.78 260.755906) scale(0.07 -0.07)">
       <defs>
        <path id="DejaVuSans-38" d="M 2034 2216 
Q 1584 2216 1326 1975 
Q 1069 1734 1069 1313 
Q 1069 891 1326 650 
Q 1584 409 2034 409 
Q 2484 409 2743 651 
Q 3003 894 3003 1313 
Q 3003 1734 2745 1975 
Q 2488 2216 2034 2216 
z
M 1403 2484 
Q 997 2584 770 2862 
Q 544 3141 544 3541 
Q 544 4100 942 4425 
Q 1341 4750 2034 4750 
Q 2731 4750 3128 4425 
Q 3525 4100 3525 3541 
Q 3525 3141 3298 2862 
Q 3072 2584 2669 2484 
Q 3125 2378 3379 2068 
Q 3634 1759 3634 1313 
Q 3634 634 3220 271 
Q 2806 -91 2034 -91 
Q 1263 -91 848 271 
Q 434 634 434 1313 
Q 434 1759 690 2068 
Q 947 2378 1403 2484 
z
M 1172 3481 
Q 1172 3119 1398 2916 
Q 1625 2713 2034 2713 
Q 2441 2713 2670 2916 
Q 2900 3119 2900 3481 
Q 2900 3844 2670 4047 
Q 2441 4250 2034 4250 
Q 1625 4250 1398 4047 
Q 1172 3844 1172 3481 
z
" transform="scale(0.015625)"/>
       </defs>
       <use xlink:href="#DejaVuSans-38" transform="translate(0 0.78125)"/>
      </g>
     </g>
    </g>
    <g id="xtick_6">
     <g id="line2d_6">
      <g>
       <use xlink:href="#m9c0114bc8a" x="356.4" y="251.937" style="stroke: #000000; stroke-width: 0.5"/>
      </g>
     </g>
     <g id="text_6">
      <!-- $\mathdefault{10}$ -->
      <g transform="translate(351.92 260.755906) scale(0.07 -0.07)">
       <defs>
        <path id="DejaVuSans-31" d="M 794 531 
L 1825 531 
L 1825 4091 
L 703 3866 
L 703 4441 
L 1819 4666 
L 2450 4666 
L 2450 531 
L 3481 531 
L 3481 0 
L 794 0 
L 794 531 
z
" transform="scale(0.015625)"/>
       </defs>
       <use xlink:href="#DejaVuSans-31" transform="translate(0 0.78125)"/>
       <use xlink:href="#DejaVuSans-30" transform="translate(63.623047 0.78125)"/>
      </g>
     </g>
    </g>
    <g id="xtick_7">
     <g id="line2d_7">
      <defs>
       <path id="m85e1f2abf3" d="M 0 0 
L 0 -3 
" style="stroke: #000000; stroke-width: 0.5"/>
      </defs>
      <g>
       <use xlink:href="#m85e1f2abf3" x="64.845" y="251.937" style="stroke: #000000; stroke-width: 0.5"/>
      </g>
     </g>
    </g>
    <g id="xtick_8">
     <g id="line2d_8">
      <g>
       <use xlink:href="#m85e1f2abf3" x="80.19" y="251.937" style="stroke: #000000; stroke-width: 0.5"/>
      </g>
     </g>
    </g>
    <g id="xtick_9">
     <g id="line2d_9">
      <g>
       <use xlink:href="#m85e1f2abf3" x="95.535" y="251.937" style="stroke: #000000; stroke-width: 0.5"/>
      </g>
     </g>
    </g>
    <g id="xtick_10">
     <g id="line2d_10">
      <g>
       <use xlink:href="#m85e1f2abf3" x="126.225" y="251.937" style="stroke: #000000; stroke-width: 0.5"/>
      </g>
     </g>
    </g>
    <g id="xtick_11">
     <g id="line2d_11">
      <g>
       <use xlink:href="#m85e1f2abf3" x="141.57" y="251.937" style="stroke: #000000; stroke-width: 0.5"/>
      </g>
     </g>
    </g>
    <g id="xtick_12">
     <g id="line2d_12">
      <g>
       <use xlink:href="#m85e1f2abf3" x="156.915" y="251.937" style="stroke: #000000; stroke-width: 0.5"/>
      </g>
     </g>
    </g>
    <g id="xtick_13">
     <g id="line2d_13">
      <g>
       <use xlink:href="#m85e1f2abf3" x="187.605" y="251.937" style="stroke: #000000; stroke-width: 0.5"/>
      </g>
     </g>
    </g>
    <g id="xtick_14">
     <g id="line2d_14">
      <g>
       <use xlink:href="#m85e1f2abf3" x="202.95" y="251.937" style="stroke: #000000; stroke-width: 0.5"/>
      </g>
     </g>
    </g>
    <g id="xtick_15">
     <g id="line2d_15">
      <g>
       <use xlink:href="#m85e1f2abf3" x="218.295" y="251.937" style="stroke: #000000; stroke-width: 0.5"/>
      </g>
     </g>
    </g>
    <g id="xtick_16">
     <g id="line2d_16">
      <g>
       <use xlink:href="#m85e1f2abf3" x="248.985" y="251.937" style="stroke: #000000; stroke-width: 0.5"/>
      </g>
     </g>
    </g>
    <g id="xtick_17">
     <g id="line2d_17">
      <g>
       <use xlink:href="#m85e1f2abf3" x="264.33" y="251.937" style="stroke: #000000; stroke-width: 0.5"/>
      </g>
     </g>
    </g>
    <g id="xtick_18">
     <g id="line2d_18">
      <g>
       <use xlink:href="#m85e1f2abf3" x="279.675" y="251.937" style="stroke: #000000; stroke-width: 0.5"/>
      </g>
     </g>
    </g>
    <g id="xtick_19">
     <g id="line2d_19">
      <g>
       <use xlink:href="#m85e1f2abf3" x="310.365" y="251.937" style="stroke: #000000; stroke-width: 0.5"/>
      </g>
     </g>
    </g>
    <g id="xtick_20">
     <g id="line2d_20">
      <g>
       <use xlink:href="#m85e1f2abf3" x="325.71" y="251.937" style="stroke: #000000; stroke-width: 0.5"/>
      </g>
     </g>
    </g>
    <g id="xtick_21">
     <g id="line2d_21">
      <g>
       <use xlink:href="#m85e1f2abf3" x="341.055" y="251.937" style="stroke: #000000; stroke-width: 0.5"/>
      </g>
     </g>
    </g>
    <g id="text_7">
     <!-- t -->
     <g transform="translate(200.940625 273.810125) scale(0.1 -0.1)">
      <defs>
       <path id="DejaVuSerif-74" d="M 691 2988 
L 184 2988 
L 184 3322 
L 691 3322 
L 691 4353 
L 1269 4353 
L 1269 3322 
L 2350 3322 
L 2350 2988 
L 1269 2988 
L 1269 878 
Q 1269 456 1350 337 
Q 1431 219 1650 219 
Q 1875 219 1978 351 
Q 2081 484 2088 781 
L 2522 781 
Q 2497 328 2275 118 
Q 2053 -91 1600 -91 
Q 1103 -91 897 129 
Q 691 350 691 878 
L 691 2988 
z
" transform="scale(0.015625)"/>
      </defs>
      <use xlink:href="#DejaVuSerif-74"/>
     </g>
    </g>
   </g>
   <g id="matplotlib.axis_2">
    <g id="ytick_1">
     <g id="line2d_22">
      <defs>
       <path id="m4391e69593" d="M 0 0 
L 5 0 
" style="stroke: #000000; stroke-width: 0.5"/>
      </defs>
      <g>
       <use xlink:href="#m4391e69593" x="49.5" y="240.753499" style="stroke: #000000; stroke-width: 0.5"/>
      </g>
     </g>
     <g id="text_8">
      <!-- $\mathdefault{−1}$ -->
      <g transform="translate(35.64 243.412952) scale(0.07 -0.07)">
       <defs>
        <path id="DejaVuSans-2212" d="M 678 2272 
L 4684 2272 
L 4684 1741 
L 678 1741 
L 678 2272 
z
" transform="scale(0.015625)"/>
       </defs>
       <use xlink:href="#DejaVuSans-2212" transform="translate(0 0.09375)"/>
       <use xlink:href="#DejaVuSans-31" transform="translate(83.789062 0.09375)"/>
      </g>
     </g>
    </g>
    <g id="ytick_2">
     <g id="line2d_23">
      <g>
       <use xlink:href="#m4391e69593" x="49.5" y="192.266157" style="stroke: #000000; stroke-width: 0.5"/>
      </g>
     </g>
     <g id="text_9">
      <!-- $\mathdefault{0}$ -->
      <g transform="translate(41.52 194.92561) scale(0.07 -0.07)">
       <use xlink:href="#DejaVuSans-30" transform="translate(0 0.78125)"/>
      </g>
     </g>
    </g>
    <g id="ytick_3">
     <g id="line2d_24">
      <g>
       <use xlink:href="#m4391e69593" x="49.5" y="143.778815" style="stroke: #000000; stroke-width: 0.5"/>
      </g>
     </g>
     <g id="text_10">
      <!-- $\mathdefault{1}$ -->
      <g transform="translate(41.52 146.438268) scale(0.07 -0.07)">
       <use xlink:href="#DejaVuSans-31" transform="translate(0 0.09375)"/>
      </g>
     </g>
    </g>
    <g id="ytick_4">
     <g id="line2d_25">
      <g>
       <use xlink:href="#m4391e69593" x="49.5" y="95.291473" style="stroke: #000000; stroke-width: 0.5"/>
      </g>
     </g>
     <g id="text_11">
      <!-- $\mathdefault{2}$ -->
      <g transform="translate(41.52 97.950926) scale(0.07 -0.07)">
       <use xlink:href="#DejaVuSans-32" transform="translate(0 0.78125)"/>
      </g>
     </g>
    </g>
    <g id="ytick_5">
     <g id="line2d_26">
      <g>
       <use xlink:href="#m4391e69593" x="49.5" y="46.804131" style="stroke: #000000; stroke-width: 0.5"/>
      </g>
     </g>
     <g id="text_12">
      <!-- $\mathdefault{3}$ -->
      <g transform="translate(41.52 49.463584) scale(0.07 -0.07)">
       <defs>
        <path id="DejaVuSans-33" d="M 2597 2516 
Q 3050 2419 3304 2112 
Q 3559 1806 3559 1356 
Q 3559 666 3084 287 
Q 2609 -91 1734 -91 
Q 1441 -91 1130 -33 
Q 819 25 488 141 
L 488 750 
Q 750 597 1062 519 
Q 1375 441 1716 441 
Q 2309 441 2620 675 
Q 2931 909 2931 1356 
Q 2931 1769 2642 2001 
Q 2353 2234 1838 2234 
L 1294 2234 
L 1294 2753 
L 1863 2753 
Q 2328 2753 2575 2939 
Q 2822 3125 2822 3475 
Q 2822 3834 2567 4026 
Q 2313 4219 1838 4219 
Q 1578 4219 1281 4162 
Q 984 4106 628 3988 
L 628 4550 
Q 988 4650 1302 4700 
Q 1616 4750 1894 4750 
Q 2613 4750 3031 4423 
Q 3450 4097 3450 3541 
Q 3450 3153 3228 2886 
Q 3006 2619 2597 2516 
z
" transform="scale(0.015625)"/>
       </defs>
       <use xlink:href="#DejaVuSans-33" transform="translate(0 0.78125)"/>
      </g>
     </g>
    </g>
    <g id="ytick_6">
     <g id="line2d_27">
      <defs>
       <path id="m5dc37df1ce" d="M 0 0 
L 3 0 
" style="stroke: #000000; stroke-width: 0.5"/>
      </defs>
      <g>
       <use xlink:href="#m5dc37df1ce" x="49.5" y="250.450968" style="stroke: #000000; stroke-width: 0.5"/>
      </g>
     </g>
    </g>
    <g id="ytick_7">
     <g id="line2d_28">
      <g>
       <use xlink:href="#m5dc37df1ce" x="49.5" y="231.056031" style="stroke: #000000; stroke-width: 0.5"/>
      </g>
     </g>
    </g>
    <g id="ytick_8">
     <g id="line2d_29">
      <g>
       <use xlink:href="#m5dc37df1ce" x="49.5" y="221.358562" style="stroke: #000000; stroke-width: 0.5"/>
      </g>
     </g>
    </g>
    <g id="ytick_9">
     <g id="line2d_30">
      <g>
       <use xlink:href="#m5dc37df1ce" x="49.5" y="211.661094" style="stroke: #000000; stroke-width: 0.5"/>
      </g>
     </g>
    </g>
    <g id="ytick_10">
     <g id="line2d_31">
      <g>
       <use xlink:href="#m5dc37df1ce" x="49.5" y="201.963626" style="stroke: #000000; stroke-width: 0.5"/>
      </g>
     </g>
    </g>
    <g id="ytick_11">
     <g id="line2d_32">
      <g>
       <use xlink:href="#m5dc37df1ce" x="49.5" y="182.568689" style="stroke: #000000; stroke-width: 0.5"/>
      </g>
     </g>
    </g>
    <g id="ytick_12">
     <g id="line2d_33">
      <g>
       <use xlink:href="#m5dc37df1ce" x="49.5" y="172.87122" style="stroke: #000000; stroke-width: 0.5"/>
      </g>
     </g>
    </g>
    <g id="ytick_13">
     <g id="line2d_34">
      <g>
       <use xlink:href="#m5dc37df1ce" x="49.5" y="163.173752" style="stroke: #000000; stroke-width: 0.5"/>
      </g>
     </g>
    </g>
    <g id="ytick_14">
     <g id="line2d_35">
      <g>
       <use xlink:href="#m5dc37df1ce" x="49.5" y="153.476283" style="stroke: #000000; stroke-width: 0.5"/>
      </g>
     </g>
    </g>
    <g id="ytick_15">
     <g id="line2d_36">
      <g>
       <use xlink:href="#m5dc37df1ce" x="49.5" y="134.081347" style="stroke: #000000; stroke-width: 0.5"/>
      </g>
     </g>
    </g>
    <g id="ytick_16">
     <g id="line2d_37">
      <g>
       <use xlink:href="#m5dc37df1ce" x="49.5" y="124.383878" style="stroke: #000000; stroke-width: 0.5"/>
      </g>
     </g>
    </g>
    <g id="ytick_17">
     <g id="line2d_38">
      <g>
       <use xlink:href="#m5dc37df1ce" x="49.5" y="114.68641" style="stroke: #000000; stroke-width: 0.5"/>
      </g>
     </g>
    </g>
    <g id="ytick_18">
     <g id="line2d_39">
      <g>
       <use xlink:href="#m5dc37df1ce" x="49.5" y="104.988941" style="stroke: #000000; stroke-width: 0.5"/>
      </g>
     </g>
    </g>
    <g id="ytick_19">
     <g id="line2d_40">
      <g>
       <use xlink:href="#m5dc37df1ce" x="49.5" y="85.594004" style="stroke: #000000; stroke-width: 0.5"/>
      </g>
     </g>
    </g>
    <g id="ytick_20">
     <g id="line2d_41">
      <g>
       <use xlink:href="#m5dc37df1ce" x="49.5" y="75.896536" style="stroke: #000000; stroke-width: 0.5"/>
      </g>
     </g>
    </g>
    <g id="ytick_21">
     <g id="line2d_42">
      <g>
       <use xlink:href="#m5dc37df1ce" x="49.5" y="66.199067" style="stroke: #000000; stroke-width: 0.5"/>
      </g>
     </g>
    </g>
    <g id="ytick_22">
     <g id="line2d_43">
      <g>
       <use xlink:href="#m5dc37df1ce" x="49.5" y="56.501599" style="stroke: #000000; stroke-width: 0.5"/>
      </g>
     </g>
    </g>
    <g id="ytick_23">
     <g id="line2d_44">
      <g>
       <use xlink:href="#m5dc37df1ce" x="49.5" y="37.106662" style="stroke: #000000; stroke-width: 0.5"/>
      </g>
     </g>
    </g>
    <g id="text_13">
     <!-- x -->
     <g transform="translate(29.560313 143.184431) rotate(-90) scale(0.1 -0.1)">
      <defs>
       <path id="DejaVuSerif-78" d="M 1863 2028 
L 2559 2988 
L 2113 2988 
L 2113 3322 
L 3391 3322 
L 3391 2988 
L 2950 2988 
L 2059 1759 
L 3097 331 
L 3531 331 
L 3531 0 
L 1997 0 
L 1997 331 
L 2419 331 
L 1697 1325 
L 972 331 
L 1403 331 
L 1403 0 
L 141 0 
L 141 331 
L 581 331 
L 1497 1594 
L 488 2988 
L 78 2988 
L 78 3322 
L 1563 3322 
L 1563 2988 
L 1166 2988 
L 1863 2028 
z
" transform="scale(0.015625)"/>
      </defs>
      <use xlink:href="#DejaVuSerif-78"/>
     </g>
    </g>
   </g>
   <g id="line2d_45">
    <path d="M 49.5 192.266157 
L 49.807207 187.414997 
L 50.421622 183.863701 
L 51.343243 180.383289 
L 52.572072 176.925441 
L 53.800901 174.114777 
L 55.336937 171.120439 
L 57.18018 168.010355 
L 59.330631 164.82385 
L 61.788288 161.584725 
L 64.553153 158.308034 
L 67.625225 155.003687 
L 71.004505 151.678437 
L 74.998198 148.069982 
L 79.299099 144.487768 
L 84.214414 140.697615 
L 89.436937 136.954418 
L 95.273874 133.050198 
L 101.725225 129.014764 
L 108.790991 124.871683 
L 116.471171 120.639632 
L 124.765766 116.333486 
L 133.674775 111.965164 
L 143.198198 107.544283 
L 153.643243 102.946822 
L 164.702703 98.32384 
L 176.683784 93.559645 
L 189.586486 88.673719 
L 203.410811 83.682492 
L 218.156757 78.599835 
L 233.824324 73.437481 
L 250.413514 68.205377 
L 268.231532 62.821052 
L 287.278378 57.302725 
L 307.246847 51.749886 
L 328.444144 46.085955 
L 350.87027 40.323353 
L 356.4 38.935718 
L 356.4 38.935718 
" clip-path="url(#p9a831c6b26)" style="fill: none; stroke-dasharray: 2.59,1.12; stroke-dashoffset: 0; stroke: #000000; stroke-width: 0.7"/>
   </g>
   <g id="line2d_46">
    <path d="M 49.5 46.804131 
L 51.0345 68.623435 
L 52.569 84.266663 
L 54.1035 96.051995 
L 55.638 105.234301 
L 57.1725 112.560274 
L 58.707 118.505405 
L 60.2415 123.388475 
L 61.776 127.432084 
L 63.3105 130.79693 
L 64.845 133.602307 
L 66.3795 135.938934 
L 67.914 137.877268 
L 69.4485 139.473084 
L 70.983 140.771304 
L 72.5175 141.808692 
L 74.052 142.615799 
L 75.5865 143.218369 
L 77.121 143.638392 
L 78.6555 143.894891 
L 80.19 144.004516 
L 81.7245 143.981999 
L 84.7935 143.591903 
L 87.8625 142.815577 
L 90.9315 141.728895 
L 94.0005 140.396314 
L 98.604 138.055076 
L 103.2075 135.437284 
L 110.88 130.772922 
L 124.6905 122.35911 
L 132.363 117.954337 
L 140.0355 113.797027 
L 147.708 109.875958 
L 156.915 105.445787 
L 166.122 101.270608 
L 176.8635 96.667521 
L 187.605 92.305469 
L 199.881 87.567823 
L 213.6915 82.504933 
L 227.502 77.682945 
L 242.847 72.56775 
L 259.7265 67.195954 
L 276.606 62.056272 
L 295.02 56.680663 
L 314.9685 51.09632 
L 336.4515 45.327141 
L 356.4 40.171401 
L 356.4 40.171401 
" clip-path="url(#p9a831c6b26)" style="fill: none; stroke: #1f77b4; stroke-width: 0.7; stroke-linecap: square"/>
   </g>
   <g id="line2d_47">
    <path d="M 49.5 143.778815 
L 51.0345 146.203182 
L 52.569 148.269955 
L 54.1035 150.023571 
L 55.638 151.500021 
L 57.1725 152.728871 
L 58.707 153.734743 
L 60.2415 154.53842 
L 61.776 155.157679 
L 63.3105 155.607931 
L 64.845 155.902714 
L 66.3795 156.054083 
L 67.914 156.072904 
L 69.4485 155.969102 
L 72.5175 155.429674 
L 75.5865 154.502436 
L 78.6555 153.247291 
L 81.7245 151.719267 
L 84.7935 149.969403 
L 89.397 147.031048 
L 95.535 142.744607 
L 113.949 129.572565 
L 120.087 125.506199 
L 126.225 121.673579 
L 132.363 118.067163 
L 140.0355 113.845161 
L 147.708 109.895487 
L 155.3805 106.172759 
L 164.5875 101.952894 
L 175.329 97.309849 
L 186.0705 92.915506 
L 198.3465 88.147022 
L 210.6225 83.60786 
L 224.433 78.735504 
L 239.778 73.572059 
L 255.123 68.636606 
L 272.0025 63.43673 
L 290.4165 58.003578 
L 310.365 52.364538 
L 330.3135 46.951386 
L 351.7965 41.345129 
L 356.4 40.171401 
L 356.4 40.171401 
" clip-path="url(#p9a831c6b26)" style="fill: none; stroke: #ff7f0e; stroke-width: 0.7; stroke-linecap: square"/>
   </g>
   <g id="line2d_48">
    <path d="M 49.5 192.266157 
L 51.0345 192.266157 
L 52.569 192.144939 
L 54.1035 191.902517 
L 55.638 191.538998 
L 57.1725 191.05467 
L 60.2415 189.726183 
L 63.3105 187.926354 
L 66.3795 185.672823 
L 69.4485 182.993692 
L 72.5175 179.928838 
L 75.5865 176.530103 
L 80.19 170.945304 
L 86.328 162.973095 
L 94.0005 152.981752 
L 98.604 147.329621 
L 103.2075 142.087185 
L 107.811 137.304371 
L 112.4145 132.979532 
L 117.018 129.076771 
L 121.6215 125.542533 
L 126.225 122.318335 
L 130.8285 119.348863 
L 136.9665 115.703994 
L 143.1045 112.337248 
L 150.777 108.422047 
L 158.4495 104.753954 
L 167.6565 100.602573 
L 178.398 96.031956 
L 189.1395 91.699957 
L 201.4155 86.992179 
L 215.226 81.957946 
L 229.0365 77.160523 
L 244.3815 72.068927 
L 261.261 66.719595 
L 278.1405 61.599502 
L 296.5545 56.242659 
L 316.503 50.676189 
L 337.986 44.923959 
L 356.4 40.171401 
L 356.4 40.171401 
" clip-path="url(#p9a831c6b26)" style="fill: none; stroke: #2ca02c; stroke-width: 0.7; stroke-linecap: square"/>
   </g>
   <g id="line2d_49">
    <path d="M 49.5 216.509828 
L 52.569 217.631477 
L 55.638 218.374537 
L 58.707 218.701187 
L 60.2415 218.694488 
L 61.776 218.566206 
L 63.3105 218.30973 
L 64.845 217.918193 
L 66.3795 217.384565 
L 67.914 216.70178 
L 69.4485 215.862887 
L 70.983 214.861225 
L 72.5175 213.690632 
L 74.052 212.345685 
L 75.5865 210.821957 
L 77.121 209.116304 
L 78.6555 207.227159 
L 81.7245 202.901758 
L 84.7935 197.875464 
L 87.8625 192.219045 
L 90.9315 186.046678 
L 95.535 176.164113 
L 103.2075 159.567812 
L 106.2765 153.388309 
L 109.3455 147.657691 
L 112.4145 142.438961 
L 115.4835 137.751867 
L 118.5525 133.58115 
L 121.6215 129.887135 
L 124.6905 126.616127 
L 127.7595 123.709042 
L 130.8285 121.107621 
L 133.8975 118.758317 
L 138.501 115.606579 
L 143.1045 112.790863 
L 147.708 110.217537 
L 153.846 107.052469 
L 161.5185 103.389018 
L 170.7255 99.282764 
L 181.467 94.774758 
L 192.2085 90.500918 
L 204.4845 85.851105 
L 218.295 80.87266 
L 232.1055 76.123201 
L 247.4505 71.077792 
L 264.33 65.772523 
L 282.744 60.239076 
L 301.158 54.937342 
L 321.1065 49.423452 
L 342.5895 43.721166 
L 356.4 40.171401 
L 356.4 40.171401 
" clip-path="url(#p9a831c6b26)" style="fill: none; stroke: #d62728; stroke-width: 0.7; stroke-linecap: square"/>
   </g>
   <g id="line2d_50">
    <path d="M 49.5 226.207297 
L 54.1035 229.661464 
L 58.707 232.785447 
L 63.3105 235.562413 
L 66.3795 237.201281 
L 69.4485 238.647542 
L 72.5175 239.873221 
L 75.5865 240.840951 
L 78.6555 241.502 
L 81.7245 241.794082 
L 83.259 241.778038 
L 84.7935 241.639138 
L 86.328 241.364856 
L 87.8625 240.941503 
L 89.397 240.354248 
L 90.9315 239.587177 
L 92.466 238.623419 
L 94.0005 237.445343 
L 95.535 236.034848 
L 97.0695 234.37376 
L 98.604 232.444354 
L 100.1385 230.230016 
L 101.673 227.716027 
L 103.2075 224.890501 
L 104.742 221.745411 
L 106.2765 218.277688 
L 107.811 214.490316 
L 110.88 206.004671 
L 113.949 196.46572 
L 118.5525 180.885708 
L 123.156 165.077431 
L 126.225 155.15371 
L 129.294 146.128663 
L 132.363 138.199211 
L 133.8975 134.66785 
L 135.432 131.421904 
L 136.9665 128.451191 
L 138.501 125.741139 
L 140.0355 123.274117 
L 141.57 121.03063 
L 144.639 117.132872 
L 147.708 113.888331 
L 150.777 111.152772 
L 153.846 108.804915 
L 156.915 106.747755 
L 159.984 104.906439 
L 164.5875 102.430281 
L 170.7255 99.473991 
L 178.398 96.101391 
L 187.605 92.323794 
L 198.3465 88.150529 
L 210.6225 83.608346 
L 224.433 78.735551 
L 239.778 73.572062 
L 255.123 68.636606 
L 272.0025 63.43673 
L 290.4165 58.003578 
L 310.365 52.364538 
L 330.3135 46.951386 
L 351.7965 41.345129 
L 356.4 40.171401 
L 356.4 40.171401 
" clip-path="url(#p9a831c6b26)" style="fill: none; stroke: #9467bd; stroke-width: 0.7; stroke-linecap: square"/>
   </g>
   <g id="patch_3">
    <path d="M 49.5 251.937 
L 49.5 28.7928 
" style="fill: none; stroke: #000000; stroke-width: 0.5; stroke-linejoin: miter; stroke-linecap: square"/>
   </g>
   <g id="patch_4">
    <path d="M 356.4 251.937 
L 356.4 28.7928 
" style="fill: none; stroke: #000000; stroke-width: 0.5; stroke-linejoin: miter; stroke-linecap: square"/>
   </g>
   <g id="patch_5">
    <path d="M 49.5 251.937 
L 356.4 251.937 
" style="fill: none; stroke: #000000; stroke-width: 0.5; stroke-linejoin: miter; stroke-linecap: square"/>
   </g>
   <g id="patch_6">
    <path d="M 49.5 28.7928 
L 356.4 28.7928 
" style="fill: none; stroke: #000000; stroke-width: 0.5; stroke-linejoin: miter; stroke-linecap: square"/>
   </g>
   <g id="legend_1">
    <g id="patch_7">
     <path d="M 273.225 246.937 
L 349.4 246.937 
Q 351.4 246.937 351.4 244.937 
L 351.4 157.86825 
Q 351.4 155.86825 349.4 155.86825 
L 273.225 155.86825 
Q 271.225 155.86825 271.225 157.86825 
L 271.225 244.937 
Q 271.225 246.937 273.225 246.937 
z
" style="fill: #ffffff; opacity: 0.8; stroke: #cccccc; stroke-linejoin: miter"/>
    </g>
    <g id="line2d_51">
     <path d="M 275.225 163.966688 
L 295.225 163.966688 
" style="fill: none; stroke-dasharray: 2.59,1.12; stroke-dashoffset: 0; stroke: #000000; stroke-width: 0.7"/>
    </g>
    <g id="line2d_52"/>
    <g id="text_14">
     <!-- x = √t -->
     <g transform="translate(303.225 167.466688) scale(0.1 -0.1)">
      <defs>
       <path id="DejaVuSans-78" d="M 3513 3500 
L 2247 1797 
L 3578 0 
L 2900 0 
L 1881 1375 
L 863 0 
L 184 0 
L 1544 1831 
L 300 3500 
L 978 3500 
L 1906 2253 
L 2834 3500 
L 3513 3500 
z
" transform="scale(0.015625)"/>
       <path id="DejaVuSans-20" transform="scale(0.015625)"/>
       <path id="DejaVuSans-3d" d="M 678 2906 
L 4684 2906 
L 4684 2381 
L 678 2381 
L 678 2906 
z
M 678 1631 
L 4684 1631 
L 4684 1100 
L 678 1100 
L 678 1631 
z
" transform="scale(0.015625)"/>
       <path id="DejaVuSans-221a" d="M 3488 5191 
L 4078 5191 
L 4078 4891 
L 3719 4891 
L 1863 -128 
L 1656 -128 
L 659 2631 
L 269 2491 
L 191 2741 
L 1075 3047 
L 1875 831 
L 3488 5191 
z
" transform="scale(0.015625)"/>
       <path id="DejaVuSans-74" d="M 1172 4494 
L 1172 3500 
L 2356 3500 
L 2356 3053 
L 1172 3053 
L 1172 1153 
Q 1172 725 1289 603 
Q 1406 481 1766 481 
L 2356 481 
L 2356 0 
L 1766 0 
Q 1100 0 847 248 
Q 594 497 594 1153 
L 594 3053 
L 172 3053 
L 172 3500 
L 594 3500 
L 594 4494 
L 1172 4494 
z
" transform="scale(0.015625)"/>
      </defs>
      <use xlink:href="#DejaVuSans-78"/>
      <use xlink:href="#DejaVuSans-20" x="59.179688"/>
      <use xlink:href="#DejaVuSans-3d" x="90.966797"/>
      <use xlink:href="#DejaVuSans-20" x="174.755859"/>
      <use xlink:href="#DejaVuSans-221a" x="206.542969"/>
      <use xlink:href="#DejaVuSans-74" x="270.263672"/>
     </g>
    </g>
    <g id="line2d_53">
     <path d="M 275.225 178.644813 
L 295.225 178.644813 
" style="fill: none; stroke: #1f77b4; stroke-width: 0.7; stroke-linecap: square"/>
    </g>
    <g id="line2d_54"/>
    <g id="text_15">
     <!-- x₀ = 3 -->
     <g transform="translate(303.225 182.144813) scale(0.1 -0.1)">
      <defs>
       <path id="DejaVuSans-2080" d="M 1781 2115 
Q 1625 2384 1309 2384 
Q 994 2384 838 2115 
Q 678 1846 678 1309 
Q 678 768 838 500 
Q 994 231 1309 231 
Q 1625 231 1781 500 
Q 1941 768 1941 1309 
Q 1941 1846 1781 2115 
z
M 1309 2662 
Q 1813 2662 2078 2315 
Q 2344 1968 2344 1309 
Q 2344 646 2078 299 
Q 1813 -47 1309 -47 
Q 803 -47 537 299 
Q 272 646 272 1309 
Q 272 1968 537 2315 
Q 803 2662 1309 2662 
z
" transform="scale(0.015625)"/>
      </defs>
      <use xlink:href="#DejaVuSans-78"/>
      <use xlink:href="#DejaVuSans-2080" x="59.179688"/>
      <use xlink:href="#DejaVuSans-20" x="99.267578"/>
      <use xlink:href="#DejaVuSans-3d" x="131.054688"/>
      <use xlink:href="#DejaVuSans-20" x="214.84375"/>
      <use xlink:href="#DejaVuSans-33" x="246.630859"/>
     </g>
    </g>
    <g id="line2d_55">
     <path d="M 275.225 193.322938 
L 295.225 193.322938 
" style="fill: none; stroke: #ff7f0e; stroke-width: 0.7; stroke-linecap: square"/>
    </g>
    <g id="line2d_56"/>
    <g id="text_16">
     <!-- x₀ = 1 -->
     <g transform="translate(303.225 196.822938) scale(0.1 -0.1)">
      <use xlink:href="#DejaVuSans-78"/>
      <use xlink:href="#DejaVuSans-2080" x="59.179688"/>
      <use xlink:href="#DejaVuSans-20" x="99.267578"/>
      <use xlink:href="#DejaVuSans-3d" x="131.054688"/>
      <use xlink:href="#DejaVuSans-20" x="214.84375"/>
      <use xlink:href="#DejaVuSans-31" x="246.630859"/>
     </g>
    </g>
    <g id="line2d_57">
     <path d="M 275.225 208.001063 
L 295.225 208.001063 
" style="fill: none; stroke: #2ca02c; stroke-width: 0.7; stroke-linecap: square"/>
    </g>
    <g id="line2d_58"/>
    <g id="text_17">
     <!-- x₀ = 0 -->
     <g transform="translate(303.225 211.501063) scale(0.1 -0.1)">
      <use xlink:href="#DejaVuSans-78"/>
      <use xlink:href="#DejaVuSans-2080" x="59.179688"/>
      <use xlink:href="#DejaVuSans-20" x="99.267578"/>
      <use xlink:href="#DejaVuSans-3d" x="131.054688"/>
      <use xlink:href="#DejaVuSans-20" x="214.84375"/>
      <use xlink:href="#DejaVuSans-30" x="246.630859"/>
     </g>
    </g>
    <g id="line2d_59">
     <path d="M 275.225 222.679188 
L 295.225 222.679188 
" style="fill: none; stroke: #d62728; stroke-width: 0.7; stroke-linecap: square"/>
    </g>
    <g id="line2d_60"/>
    <g id="text_18">
     <!-- x₀ = -0.5 -->
     <g transform="translate(303.225 226.179188) scale(0.1 -0.1)">
      <defs>
       <path id="DejaVuSans-2d" d="M 313 2009 
L 1997 2009 
L 1997 1497 
L 313 1497 
L 313 2009 
z
" transform="scale(0.015625)"/>
       <path id="DejaVuSans-2e" d="M 684 794 
L 1344 794 
L 1344 0 
L 684 0 
L 684 794 
z
" transform="scale(0.015625)"/>
       <path id="DejaVuSans-35" d="M 691 4666 
L 3169 4666 
L 3169 4134 
L 1269 4134 
L 1269 2991 
Q 1406 3038 1543 3061 
Q 1681 3084 1819 3084 
Q 2600 3084 3056 2656 
Q 3513 2228 3513 1497 
Q 3513 744 3044 326 
Q 2575 -91 1722 -91 
Q 1428 -91 1123 -41 
Q 819 9 494 109 
L 494 744 
Q 775 591 1075 516 
Q 1375 441 1709 441 
Q 2250 441 2565 725 
Q 2881 1009 2881 1497 
Q 2881 1984 2565 2268 
Q 2250 2553 1709 2553 
Q 1456 2553 1204 2497 
Q 953 2441 691 2322 
L 691 4666 
z
" transform="scale(0.015625)"/>
      </defs>
      <use xlink:href="#DejaVuSans-78"/>
      <use xlink:href="#DejaVuSans-2080" x="59.179688"/>
      <use xlink:href="#DejaVuSans-20" x="99.267578"/>
      <use xlink:href="#DejaVuSans-3d" x="131.054688"/>
      <use xlink:href="#DejaVuSans-20" x="214.84375"/>
      <use xlink:href="#DejaVuSans-2d" x="246.630859"/>
      <use xlink:href="#DejaVuSans-30" x="282.714844"/>
      <use xlink:href="#DejaVuSans-2e" x="346.337891"/>
      <use xlink:href="#DejaVuSans-35" x="378.125"/>
     </g>
    </g>
    <g id="line2d_61">
     <path d="M 275.225 237.357313 
L 295.225 237.357313 
" style="fill: none; stroke: #9467bd; stroke-width: 0.7; stroke-linecap: square"/>
    </g>
    <g id="line2d_62"/>
    <g id="text_19">
     <!-- x₀ = -0.7 -->
     <g transform="translate(303.225 240.857313) scale(0.1 -0.1)">
      <defs>
       <path id="DejaVuSans-37" d="M 525 4666 
L 3525 4666 
L 3525 4397 
L 1831 0 
L 1172 0 
L 2766 4134 
L 525 4134 
L 525 4666 
z
" transform="scale(0.015625)"/>
      </defs>
      <use xlink:href="#DejaVuSans-78"/>
      <use xlink:href="#DejaVuSans-2080" x="59.179688"/>
      <use xlink:href="#DejaVuSans-20" x="99.267578"/>
      <use xlink:href="#DejaVuSans-3d" x="131.054688"/>
      <use xlink:href="#DejaVuSans-20" x="214.84375"/>
      <use xlink:href="#DejaVuSans-2d" x="246.630859"/>
      <use xlink:href="#DejaVuSans-30" x="282.714844"/>
      <use xlink:href="#DejaVuSans-2e" x="346.337891"/>
      <use xlink:href="#DejaVuSans-37" x="378.125"/>
     </g>
    </g>
   </g>
  </g>
 </g>
 <defs>
  <clipPath id="p9a831c6b26">
   <rect x="49.5" y="28.7928" width="306.9" height="223.1442"/>
  </clipPath>
 </defs>
</svg>
