<?xml version="1.0" encoding="utf-8" standalone="no"?>
<!DOCTYPE svg PUBLIC "-//W3C//DTD SVG 1.1//EN"
  "http://www.w3.org/Graphics/SVG/1.1/DTD/svg11.dtd">
<svg xmlns:xlink="http://www.w3.org/1999/xlink" width="396pt" height="287.928pt" viewBox="0 0 396 287.928" xmlns="http://www.w3.org/2000/svg" version="1.1">
 <metadata>
  <rdf:RDF xmlns:dc="http://purl.org/dc/elements/1.1/" xmlns:cc="http://creativecommons.org/ns#" xmlns:rdf="http://www.w3.org/1999/02/22-rdf-syntax-ns#">
   <cc:Work>
    <dc:type rdf:resource="http://purl.org/dc/dcmitype/StillImage"/>
    <dc:date>2024-09-21T18:05:39.936787</dc:date>
    <dc:format>image/svg+xml</dc:format>
    <dc:creator>
     <cc:Agent>
      <dc:title>Matplotlib v3.8.3, https://matplotlib.org/</dc:title>
     </cc:Agent>
    </dc:creator>
   </cc:Work>
  </rdf:RDF>
 </metadata>
 <defs>
  <style type="text/css">*{stroke-linejoin: round; stroke-linecap: butt}</style>
 </defs>
 <g id="figure_1">
  <g id="patch_1">
   <path d="M 0 287.928 
L 396 287.928 
L 396 0 
L 0 0 
z
" style="fill: #ffffff"/>
  </g>
  <g id="axes_1">
   <g id="patch_2">
    <path d="M 49.5 251.937 
L 356.4 251.937 
L 356.4 28.7928 
L 49.5 28.7928 
z
" style="fill: #ffffff"/>
   </g>
   <g id="matplotlib.axis_1">
    <g id="xtick_1">
     <g id="line2d_1">
      <defs>
       <path id="me1de95f1b2" d="M 0 0 
L 0 -5 
" style="stroke: #000000; stroke-width: 0.5"/>
      </defs>
      <g>
       <use xlink:href="#me1de95f1b2" x="49.5" y="251.937" style="stroke: #000000; stroke-width: 0.5"/>
      </g>
     </g>
     <g id="text_1">
      <!-- $\mathdefault{0}$ -->
      <g transform="translate(47.26 260.755906) scale(0.07 -0.07)">
       <defs>
        <path id="DejaVuSans-30" d="M 2034 4250 
Q 1547 4250 1301 3770 
Q 1056 3291 1056 2328 
Q 1056 1369 1301 889 
Q 1547 409 2034 409 
Q 2525 409 2770 889 
Q 3016 1369 3016 2328 
Q 3016 3291 2770 3770 
Q 2525 4250 2034 4250 
z
M 2034 4750 
Q 2819 4750 3233 4129 
Q 3647 3509 3647 2328 
Q 3647 1150 3233 529 
Q 2819 -91 2034 -91 
Q 1250 -91 836 529 
Q 422 1150 422 2328 
Q 422 3509 836 4129 
Q 1250 4750 2034 4750 
z
" transform="scale(0.015625)"/>
       </defs>
       <use xlink:href="#DejaVuSans-30" transform="translate(0 0.78125)"/>
      </g>
     </g>
    </g>
    <g id="xtick_2">
     <g id="line2d_2">
      <g>
       <use xlink:href="#me1de95f1b2" x="100.65" y="251.937" style="stroke: #000000; stroke-width: 0.5"/>
      </g>
     </g>
     <g id="text_2">
      <!-- $\mathdefault{5}$ -->
      <g transform="translate(98.41 260.755906) scale(0.07 -0.07)">
       <defs>
        <path id="DejaVuSans-35" d="M 691 4666 
L 3169 4666 
L 3169 4134 
L 1269 4134 
L 1269 2991 
Q 1406 3038 1543 3061 
Q 1681 3084 1819 3084 
Q 2600 3084 3056 2656 
Q 3513 2228 3513 1497 
Q 3513 744 3044 326 
Q 2575 -91 1722 -91 
Q 1428 -91 1123 -41 
Q 819 9 494 109 
L 494 744 
Q 775 591 1075 516 
Q 1375 441 1709 441 
Q 2250 441 2565 725 
Q 2881 1009 2881 1497 
Q 2881 1984 2565 2268 
Q 2250 2553 1709 2553 
Q 1456 2553 1204 2497 
Q 953 2441 691 2322 
L 691 4666 
z
" transform="scale(0.015625)"/>
       </defs>
       <use xlink:href="#DejaVuSans-35" transform="translate(0 0.09375)"/>
      </g>
     </g>
    </g>
    <g id="xtick_3">
     <g id="line2d_3">
      <g>
       <use xlink:href="#me1de95f1b2" x="151.8" y="251.937" style="stroke: #000000; stroke-width: 0.5"/>
      </g>
     </g>
     <g id="text_3">
      <!-- $\mathdefault{10}$ -->
      <g transform="translate(147.32 260.755906) scale(0.07 -0.07)">
       <defs>
        <path id="DejaVuSans-31" d="M 794 531 
L 1825 531 
L 1825 4091 
L 703 3866 
L 703 4441 
L 1819 4666 
L 2450 4666 
L 2450 531 
L 3481 531 
L 3481 0 
L 794 0 
L 794 531 
z
" transform="scale(0.015625)"/>
       </defs>
       <use xlink:href="#DejaVuSans-31" transform="translate(0 0.78125)"/>
       <use xlink:href="#DejaVuSans-30" transform="translate(63.623047 0.78125)"/>
      </g>
     </g>
    </g>
    <g id="xtick_4">
     <g id="line2d_4">
      <g>
       <use xlink:href="#me1de95f1b2" x="202.95" y="251.937" style="stroke: #000000; stroke-width: 0.5"/>
      </g>
     </g>
     <g id="text_4">
      <!-- $\mathdefault{15}$ -->
      <g transform="translate(198.47 260.755906) scale(0.07 -0.07)">
       <use xlink:href="#DejaVuSans-31" transform="translate(0 0.09375)"/>
       <use xlink:href="#DejaVuSans-35" transform="translate(63.623047 0.09375)"/>
      </g>
     </g>
    </g>
    <g id="xtick_5">
     <g id="line2d_5">
      <g>
       <use xlink:href="#me1de95f1b2" x="254.1" y="251.937" style="stroke: #000000; stroke-width: 0.5"/>
      </g>
     </g>
     <g id="text_5">
      <!-- $\mathdefault{20}$ -->
      <g transform="translate(249.62 260.755906) scale(0.07 -0.07)">
       <defs>
        <path id="DejaVuSans-32" d="M 1228 531 
L 3431 531 
L 3431 0 
L 469 0 
L 469 531 
Q 828 903 1448 1529 
Q 2069 2156 2228 2338 
Q 2531 2678 2651 2914 
Q 2772 3150 2772 3378 
Q 2772 3750 2511 3984 
Q 2250 4219 1831 4219 
Q 1534 4219 1204 4116 
Q 875 4013 500 3803 
L 500 4441 
Q 881 4594 1212 4672 
Q 1544 4750 1819 4750 
Q 2544 4750 2975 4387 
Q 3406 4025 3406 3419 
Q 3406 3131 3298 2873 
Q 3191 2616 2906 2266 
Q 2828 2175 2409 1742 
Q 1991 1309 1228 531 
z
" transform="scale(0.015625)"/>
       </defs>
       <use xlink:href="#DejaVuSans-32" transform="translate(0 0.78125)"/>
       <use xlink:href="#DejaVuSans-30" transform="translate(63.623047 0.78125)"/>
      </g>
     </g>
    </g>
    <g id="xtick_6">
     <g id="line2d_6">
      <g>
       <use xlink:href="#me1de95f1b2" x="305.25" y="251.937" style="stroke: #000000; stroke-width: 0.5"/>
      </g>
     </g>
     <g id="text_6">
      <!-- $\mathdefault{25}$ -->
      <g transform="translate(300.77 260.755906) scale(0.07 -0.07)">
       <use xlink:href="#DejaVuSans-32" transform="translate(0 0.78125)"/>
       <use xlink:href="#DejaVuSans-35" transform="translate(63.623047 0.78125)"/>
      </g>
     </g>
    </g>
    <g id="xtick_7">
     <g id="line2d_7">
      <g>
       <use xlink:href="#me1de95f1b2" x="356.4" y="251.937" style="stroke: #000000; stroke-width: 0.5"/>
      </g>
     </g>
     <g id="text_7">
      <!-- $\mathdefault{30}$ -->
      <g transform="translate(351.92 260.755906) scale(0.07 -0.07)">
       <defs>
        <path id="DejaVuSans-33" d="M 2597 2516 
Q 3050 2419 3304 2112 
Q 3559 1806 3559 1356 
Q 3559 666 3084 287 
Q 2609 -91 1734 -91 
Q 1441 -91 1130 -33 
Q 819 25 488 141 
L 488 750 
Q 750 597 1062 519 
Q 1375 441 1716 441 
Q 2309 441 2620 675 
Q 2931 909 2931 1356 
Q 2931 1769 2642 2001 
Q 2353 2234 1838 2234 
L 1294 2234 
L 1294 2753 
L 1863 2753 
Q 2328 2753 2575 2939 
Q 2822 3125 2822 3475 
Q 2822 3834 2567 4026 
Q 2313 4219 1838 4219 
Q 1578 4219 1281 4162 
Q 984 4106 628 3988 
L 628 4550 
Q 988 4650 1302 4700 
Q 1616 4750 1894 4750 
Q 2613 4750 3031 4423 
Q 3450 4097 3450 3541 
Q 3450 3153 3228 2886 
Q 3006 2619 2597 2516 
z
" transform="scale(0.015625)"/>
       </defs>
       <use xlink:href="#DejaVuSans-33" transform="translate(0 0.78125)"/>
       <use xlink:href="#DejaVuSans-30" transform="translate(63.623047 0.78125)"/>
      </g>
     </g>
    </g>
    <g id="xtick_8">
     <g id="line2d_8">
      <defs>
       <path id="m5ac8c71e92" d="M 0 0 
L 0 -3 
" style="stroke: #000000; stroke-width: 0.5"/>
      </defs>
      <g>
       <use xlink:href="#m5ac8c71e92" x="59.73" y="251.937" style="stroke: #000000; stroke-width: 0.5"/>
      </g>
     </g>
    </g>
    <g id="xtick_9">
     <g id="line2d_9">
      <g>
       <use xlink:href="#m5ac8c71e92" x="69.96" y="251.937" style="stroke: #000000; stroke-width: 0.5"/>
      </g>
     </g>
    </g>
    <g id="xtick_10">
     <g id="line2d_10">
      <g>
       <use xlink:href="#m5ac8c71e92" x="80.19" y="251.937" style="stroke: #000000; stroke-width: 0.5"/>
      </g>
     </g>
    </g>
    <g id="xtick_11">
     <g id="line2d_11">
      <g>
       <use xlink:href="#m5ac8c71e92" x="90.42" y="251.937" style="stroke: #000000; stroke-width: 0.5"/>
      </g>
     </g>
    </g>
    <g id="xtick_12">
     <g id="line2d_12">
      <g>
       <use xlink:href="#m5ac8c71e92" x="110.88" y="251.937" style="stroke: #000000; stroke-width: 0.5"/>
      </g>
     </g>
    </g>
    <g id="xtick_13">
     <g id="line2d_13">
      <g>
       <use xlink:href="#m5ac8c71e92" x="121.11" y="251.937" style="stroke: #000000; stroke-width: 0.5"/>
      </g>
     </g>
    </g>
    <g id="xtick_14">
     <g id="line2d_14">
      <g>
       <use xlink:href="#m5ac8c71e92" x="131.34" y="251.937" style="stroke: #000000; stroke-width: 0.5"/>
      </g>
     </g>
    </g>
    <g id="xtick_15">
     <g id="line2d_15">
      <g>
       <use xlink:href="#m5ac8c71e92" x="141.57" y="251.937" style="stroke: #000000; stroke-width: 0.5"/>
      </g>
     </g>
    </g>
    <g id="xtick_16">
     <g id="line2d_16">
      <g>
       <use xlink:href="#m5ac8c71e92" x="162.03" y="251.937" style="stroke: #000000; stroke-width: 0.5"/>
      </g>
     </g>
    </g>
    <g id="xtick_17">
     <g id="line2d_17">
      <g>
       <use xlink:href="#m5ac8c71e92" x="172.26" y="251.937" style="stroke: #000000; stroke-width: 0.5"/>
      </g>
     </g>
    </g>
    <g id="xtick_18">
     <g id="line2d_18">
      <g>
       <use xlink:href="#m5ac8c71e92" x="182.49" y="251.937" style="stroke: #000000; stroke-width: 0.5"/>
      </g>
     </g>
    </g>
    <g id="xtick_19">
     <g id="line2d_19">
      <g>
       <use xlink:href="#m5ac8c71e92" x="192.72" y="251.937" style="stroke: #000000; stroke-width: 0.5"/>
      </g>
     </g>
    </g>
    <g id="xtick_20">
     <g id="line2d_20">
      <g>
       <use xlink:href="#m5ac8c71e92" x="213.18" y="251.937" style="stroke: #000000; stroke-width: 0.5"/>
      </g>
     </g>
    </g>
    <g id="xtick_21">
     <g id="line2d_21">
      <g>
       <use xlink:href="#m5ac8c71e92" x="223.41" y="251.937" style="stroke: #000000; stroke-width: 0.5"/>
      </g>
     </g>
    </g>
    <g id="xtick_22">
     <g id="line2d_22">
      <g>
       <use xlink:href="#m5ac8c71e92" x="233.64" y="251.937" style="stroke: #000000; stroke-width: 0.5"/>
      </g>
     </g>
    </g>
    <g id="xtick_23">
     <g id="line2d_23">
      <g>
       <use xlink:href="#m5ac8c71e92" x="243.87" y="251.937" style="stroke: #000000; stroke-width: 0.5"/>
      </g>
     </g>
    </g>
    <g id="xtick_24">
     <g id="line2d_24">
      <g>
       <use xlink:href="#m5ac8c71e92" x="264.33" y="251.937" style="stroke: #000000; stroke-width: 0.5"/>
      </g>
     </g>
    </g>
    <g id="xtick_25">
     <g id="line2d_25">
      <g>
       <use xlink:href="#m5ac8c71e92" x="274.56" y="251.937" style="stroke: #000000; stroke-width: 0.5"/>
      </g>
     </g>
    </g>
    <g id="xtick_26">
     <g id="line2d_26">
      <g>
       <use xlink:href="#m5ac8c71e92" x="284.79" y="251.937" style="stroke: #000000; stroke-width: 0.5"/>
      </g>
     </g>
    </g>
    <g id="xtick_27">
     <g id="line2d_27">
      <g>
       <use xlink:href="#m5ac8c71e92" x="295.02" y="251.937" style="stroke: #000000; stroke-width: 0.5"/>
      </g>
     </g>
    </g>
    <g id="xtick_28">
     <g id="line2d_28">
      <g>
       <use xlink:href="#m5ac8c71e92" x="315.48" y="251.937" style="stroke: #000000; stroke-width: 0.5"/>
      </g>
     </g>
    </g>
    <g id="xtick_29">
     <g id="line2d_29">
      <g>
       <use xlink:href="#m5ac8c71e92" x="325.71" y="251.937" style="stroke: #000000; stroke-width: 0.5"/>
      </g>
     </g>
    </g>
    <g id="xtick_30">
     <g id="line2d_30">
      <g>
       <use xlink:href="#m5ac8c71e92" x="335.94" y="251.937" style="stroke: #000000; stroke-width: 0.5"/>
      </g>
     </g>
    </g>
    <g id="xtick_31">
     <g id="line2d_31">
      <g>
       <use xlink:href="#m5ac8c71e92" x="346.17" y="251.937" style="stroke: #000000; stroke-width: 0.5"/>
      </g>
     </g>
    </g>
    <g id="text_8">
     <!-- Time (s) -->
     <g transform="translate(182.258594 273.810125) scale(0.1 -0.1)">
      <defs>
       <path id="DejaVuSerif-54" d="M 1222 0 
L 1222 331 
L 1819 331 
L 1819 4294 
L 447 4294 
L 447 3566 
L 63 3566 
L 63 4666 
L 4206 4666 
L 4206 3566 
L 3822 3566 
L 3822 4294 
L 2450 4294 
L 2450 331 
L 3047 331 
L 3047 0 
L 1222 0 
z
" transform="scale(0.015625)"/>
       <path id="DejaVuSerif-69" d="M 622 4353 
Q 622 4497 726 4603 
Q 831 4709 978 4709 
Q 1122 4709 1226 4603 
Q 1331 4497 1331 4353 
Q 1331 4206 1228 4103 
Q 1125 4000 978 4000 
Q 831 4000 726 4103 
Q 622 4206 622 4353 
z
M 1356 331 
L 1900 331 
L 1900 0 
L 231 0 
L 231 331 
L 781 331 
L 781 2988 
L 231 2988 
L 231 3322 
L 1356 3322 
L 1356 331 
z
" transform="scale(0.015625)"/>
       <path id="DejaVuSerif-6d" d="M 3316 2675 
Q 3481 3041 3739 3227 
Q 3997 3413 4341 3413 
Q 4863 3413 5119 3089 
Q 5375 2766 5375 2113 
L 5375 331 
L 5894 331 
L 5894 0 
L 4300 0 
L 4300 331 
L 4800 331 
L 4800 2047 
Q 4800 2556 4650 2772 
Q 4500 2988 4153 2988 
Q 3769 2988 3567 2697 
Q 3366 2406 3366 1850 
L 3366 331 
L 3866 331 
L 3866 0 
L 2291 0 
L 2291 331 
L 2791 331 
L 2791 2069 
Q 2791 2566 2641 2777 
Q 2491 2988 2144 2988 
Q 1759 2988 1557 2697 
Q 1356 2406 1356 1850 
L 1356 331 
L 1856 331 
L 1856 0 
L 263 0 
L 263 331 
L 781 331 
L 781 2994 
L 231 2994 
L 231 3322 
L 1356 3322 
L 1356 2731 
Q 1516 3063 1762 3238 
Q 2009 3413 2322 3413 
Q 2709 3413 2968 3220 
Q 3228 3028 3316 2675 
z
" transform="scale(0.015625)"/>
       <path id="DejaVuSerif-65" d="M 3469 1600 
L 991 1600 
L 991 1575 
Q 991 903 1244 561 
Q 1497 219 1991 219 
Q 2369 219 2611 417 
Q 2853 616 2950 1006 
L 3413 1006 
Q 3275 459 2904 184 
Q 2534 -91 1931 -91 
Q 1203 -91 761 389 
Q 319 869 319 1663 
Q 319 2450 753 2931 
Q 1188 3413 1894 3413 
Q 2647 3413 3050 2948 
Q 3453 2484 3469 1600 
z
M 2791 1931 
Q 2772 2513 2545 2808 
Q 2319 3103 1894 3103 
Q 1497 3103 1269 2806 
Q 1041 2509 991 1931 
L 2791 1931 
z
" transform="scale(0.015625)"/>
       <path id="DejaVuSerif-20" transform="scale(0.015625)"/>
       <path id="DejaVuSerif-28" d="M 2041 -997 
Q 1281 -656 893 83 
Q 506 822 506 1931 
Q 506 3044 893 3783 
Q 1281 4522 2041 4863 
L 2041 4556 
Q 1559 4225 1350 3623 
Q 1141 3022 1141 1931 
Q 1141 844 1350 242 
Q 1559 -359 2041 -691 
L 2041 -997 
z
" transform="scale(0.015625)"/>
       <path id="DejaVuSerif-73" d="M 359 184 
L 359 959 
L 691 959 
Q 703 588 923 403 
Q 1144 219 1575 219 
Q 1963 219 2166 364 
Q 2369 509 2369 788 
Q 2369 1006 2220 1140 
Q 2072 1275 1594 1428 
L 1178 1569 
Q 750 1706 558 1912 
Q 366 2119 366 2438 
Q 366 2894 700 3153 
Q 1034 3413 1625 3413 
Q 1888 3413 2178 3344 
Q 2469 3275 2778 3144 
L 2778 2419 
L 2447 2419 
Q 2434 2741 2221 2922 
Q 2009 3103 1644 3103 
Q 1281 3103 1095 2975 
Q 909 2847 909 2591 
Q 909 2381 1050 2254 
Q 1191 2128 1613 1997 
L 2069 1856 
Q 2541 1709 2748 1489 
Q 2956 1269 2956 922 
Q 2956 450 2595 179 
Q 2234 -91 1600 -91 
Q 1278 -91 972 -22 
Q 666 47 359 184 
z
" transform="scale(0.015625)"/>
       <path id="DejaVuSerif-29" d="M 453 -997 
L 453 -691 
Q 934 -359 1145 242 
Q 1356 844 1356 1931 
Q 1356 3022 1145 3623 
Q 934 4225 453 4556 
L 453 4863 
Q 1216 4522 1603 3783 
Q 1991 3044 1991 1931 
Q 1991 822 1603 83 
Q 1216 -656 453 -997 
z
" transform="scale(0.015625)"/>
      </defs>
      <use xlink:href="#DejaVuSerif-54"/>
      <use xlink:href="#DejaVuSerif-69" x="66.699219"/>
      <use xlink:href="#DejaVuSerif-6d" x="98.681641"/>
      <use xlink:href="#DejaVuSerif-65" x="193.505859"/>
      <use xlink:href="#DejaVuSerif-20" x="252.685547"/>
      <use xlink:href="#DejaVuSerif-28" x="284.472656"/>
      <use xlink:href="#DejaVuSerif-73" x="323.486328"/>
      <use xlink:href="#DejaVuSerif-29" x="374.804688"/>
     </g>
    </g>
   </g>
   <g id="matplotlib.axis_2">
    <g id="ytick_1">
     <g id="line2d_32">
      <defs>
       <path id="m415ad90171" d="M 0 0 
L 5 0 
" style="stroke: #000000; stroke-width: 0.5"/>
      </defs>
      <g>
       <use xlink:href="#m415ad90171" x="49.5" y="230.916529" style="stroke: #000000; stroke-width: 0.5"/>
      </g>
     </g>
     <g id="text_9">
      <!-- $\mathdefault{−4}$ -->
      <g transform="translate(35.64 233.575982) scale(0.07 -0.07)">
       <defs>
        <path id="DejaVuSans-2212" d="M 678 2272 
L 4684 2272 
L 4684 1741 
L 678 1741 
L 678 2272 
z
" transform="scale(0.015625)"/>
        <path id="DejaVuSans-34" d="M 2419 4116 
L 825 1625 
L 2419 1625 
L 2419 4116 
z
M 2253 4666 
L 3047 4666 
L 3047 1625 
L 3713 1625 
L 3713 1100 
L 3047 1100 
L 3047 0 
L 2419 0 
L 2419 1100 
L 313 1100 
L 313 1709 
L 2253 4666 
z
" transform="scale(0.015625)"/>
       </defs>
       <use xlink:href="#DejaVuSans-2212" transform="translate(0 0.09375)"/>
       <use xlink:href="#DejaVuSans-34" transform="translate(83.789062 0.09375)"/>
      </g>
     </g>
    </g>
    <g id="ytick_2">
     <g id="line2d_33">
      <g>
       <use xlink:href="#m415ad90171" x="49.5" y="181.650246" style="stroke: #000000; stroke-width: 0.5"/>
      </g>
     </g>
     <g id="text_10">
      <!-- $\mathdefault{−2}$ -->
      <g transform="translate(35.64 184.309699) scale(0.07 -0.07)">
       <use xlink:href="#DejaVuSans-2212" transform="translate(0 0.78125)"/>
       <use xlink:href="#DejaVuSans-32" transform="translate(83.789062 0.78125)"/>
      </g>
     </g>
    </g>
    <g id="ytick_3">
     <g id="line2d_34">
      <g>
       <use xlink:href="#m415ad90171" x="49.5" y="132.383962" style="stroke: #000000; stroke-width: 0.5"/>
      </g>
     </g>
     <g id="text_11">
      <!-- $\mathdefault{0}$ -->
      <g transform="translate(41.52 135.043416) scale(0.07 -0.07)">
       <use xlink:href="#DejaVuSans-30" transform="translate(0 0.78125)"/>
      </g>
     </g>
    </g>
    <g id="ytick_4">
     <g id="line2d_35">
      <g>
       <use xlink:href="#m415ad90171" x="49.5" y="83.117679" style="stroke: #000000; stroke-width: 0.5"/>
      </g>
     </g>
     <g id="text_12">
      <!-- $\mathdefault{2}$ -->
      <g transform="translate(41.52 85.777132) scale(0.07 -0.07)">
       <use xlink:href="#DejaVuSans-32" transform="translate(0 0.78125)"/>
      </g>
     </g>
    </g>
    <g id="ytick_5">
     <g id="line2d_36">
      <g>
       <use xlink:href="#m415ad90171" x="49.5" y="33.851396" style="stroke: #000000; stroke-width: 0.5"/>
      </g>
     </g>
     <g id="text_13">
      <!-- $\mathdefault{4}$ -->
      <g transform="translate(41.52 36.510849) scale(0.07 -0.07)">
       <use xlink:href="#DejaVuSans-34" transform="translate(0 0.09375)"/>
      </g>
     </g>
    </g>
    <g id="ytick_6">
     <g id="line2d_37">
      <defs>
       <path id="mcd915a8954" d="M 0 0 
L 3 0 
" style="stroke: #000000; stroke-width: 0.5"/>
      </defs>
      <g>
       <use xlink:href="#mcd915a8954" x="49.5" y="243.2331" style="stroke: #000000; stroke-width: 0.5"/>
      </g>
     </g>
    </g>
    <g id="ytick_7">
     <g id="line2d_38">
      <g>
       <use xlink:href="#mcd915a8954" x="49.5" y="218.599958" style="stroke: #000000; stroke-width: 0.5"/>
      </g>
     </g>
    </g>
    <g id="ytick_8">
     <g id="line2d_39">
      <g>
       <use xlink:href="#mcd915a8954" x="49.5" y="206.283387" style="stroke: #000000; stroke-width: 0.5"/>
      </g>
     </g>
    </g>
    <g id="ytick_9">
     <g id="line2d_40">
      <g>
       <use xlink:href="#mcd915a8954" x="49.5" y="193.966817" style="stroke: #000000; stroke-width: 0.5"/>
      </g>
     </g>
    </g>
    <g id="ytick_10">
     <g id="line2d_41">
      <g>
       <use xlink:href="#mcd915a8954" x="49.5" y="169.333675" style="stroke: #000000; stroke-width: 0.5"/>
      </g>
     </g>
    </g>
    <g id="ytick_11">
     <g id="line2d_42">
      <g>
       <use xlink:href="#mcd915a8954" x="49.5" y="157.017104" style="stroke: #000000; stroke-width: 0.5"/>
      </g>
     </g>
    </g>
    <g id="ytick_12">
     <g id="line2d_43">
      <g>
       <use xlink:href="#mcd915a8954" x="49.5" y="144.700533" style="stroke: #000000; stroke-width: 0.5"/>
      </g>
     </g>
    </g>
    <g id="ytick_13">
     <g id="line2d_44">
      <g>
       <use xlink:href="#mcd915a8954" x="49.5" y="120.067392" style="stroke: #000000; stroke-width: 0.5"/>
      </g>
     </g>
    </g>
    <g id="ytick_14">
     <g id="line2d_45">
      <g>
       <use xlink:href="#mcd915a8954" x="49.5" y="107.750821" style="stroke: #000000; stroke-width: 0.5"/>
      </g>
     </g>
    </g>
    <g id="ytick_15">
     <g id="line2d_46">
      <g>
       <use xlink:href="#mcd915a8954" x="49.5" y="95.43425" style="stroke: #000000; stroke-width: 0.5"/>
      </g>
     </g>
    </g>
    <g id="ytick_16">
     <g id="line2d_47">
      <g>
       <use xlink:href="#mcd915a8954" x="49.5" y="70.801108" style="stroke: #000000; stroke-width: 0.5"/>
      </g>
     </g>
    </g>
    <g id="ytick_17">
     <g id="line2d_48">
      <g>
       <use xlink:href="#mcd915a8954" x="49.5" y="58.484537" style="stroke: #000000; stroke-width: 0.5"/>
      </g>
     </g>
    </g>
    <g id="ytick_18">
     <g id="line2d_49">
      <g>
       <use xlink:href="#mcd915a8954" x="49.5" y="46.167967" style="stroke: #000000; stroke-width: 0.5"/>
      </g>
     </g>
    </g>
    <g id="text_14">
     <!-- Position (m) -->
     <g transform="translate(29.560312 170.775056) rotate(-90) scale(0.1 -0.1)">
      <defs>
       <path id="DejaVuSerif-50" d="M 1581 2375 
L 2406 2375 
Q 2872 2375 3115 2626 
Q 3359 2878 3359 3353 
Q 3359 3831 3115 4081 
Q 2872 4331 2406 4331 
L 1581 4331 
L 1581 2375 
z
M 353 0 
L 353 331 
L 947 331 
L 947 4331 
L 353 4331 
L 353 4666 
L 2559 4666 
Q 3259 4666 3668 4311 
Q 4078 3956 4078 3353 
Q 4078 2753 3668 2397 
Q 3259 2041 2559 2041 
L 1581 2041 
L 1581 331 
L 2303 331 
L 2303 0 
L 353 0 
z
" transform="scale(0.015625)"/>
       <path id="DejaVuSerif-6f" d="M 1925 219 
Q 2388 219 2623 584 
Q 2859 950 2859 1663 
Q 2859 2375 2623 2739 
Q 2388 3103 1925 3103 
Q 1463 3103 1227 2739 
Q 991 2375 991 1663 
Q 991 950 1228 584 
Q 1466 219 1925 219 
z
M 1925 -91 
Q 1200 -91 759 389 
Q 319 869 319 1663 
Q 319 2456 758 2934 
Q 1197 3413 1925 3413 
Q 2653 3413 3092 2934 
Q 3531 2456 3531 1663 
Q 3531 869 3092 389 
Q 2653 -91 1925 -91 
z
" transform="scale(0.015625)"/>
       <path id="DejaVuSerif-74" d="M 691 2988 
L 184 2988 
L 184 3322 
L 691 3322 
L 691 4353 
L 1269 4353 
L 1269 3322 
L 2350 3322 
L 2350 2988 
L 1269 2988 
L 1269 878 
Q 1269 456 1350 337 
Q 1431 219 1650 219 
Q 1875 219 1978 351 
Q 2081 484 2088 781 
L 2522 781 
Q 2497 328 2275 118 
Q 2053 -91 1600 -91 
Q 1103 -91 897 129 
Q 691 350 691 878 
L 691 2988 
z
" transform="scale(0.015625)"/>
       <path id="DejaVuSerif-6e" d="M 263 0 
L 263 331 
L 781 331 
L 781 2988 
L 231 2988 
L 231 3322 
L 1356 3322 
L 1356 2731 
Q 1516 3069 1770 3241 
Q 2025 3413 2363 3413 
Q 2913 3413 3172 3097 
Q 3431 2781 3431 2113 
L 3431 331 
L 3944 331 
L 3944 0 
L 2356 0 
L 2356 331 
L 2853 331 
L 2853 1931 
Q 2853 2541 2703 2767 
Q 2553 2994 2175 2994 
Q 1775 2994 1565 2701 
Q 1356 2409 1356 1850 
L 1356 331 
L 1856 331 
L 1856 0 
L 263 0 
z
" transform="scale(0.015625)"/>
      </defs>
      <use xlink:href="#DejaVuSerif-50"/>
      <use xlink:href="#DejaVuSerif-6f" x="63.285156"/>
      <use xlink:href="#DejaVuSerif-73" x="123.490234"/>
      <use xlink:href="#DejaVuSerif-69" x="174.808594"/>
      <use xlink:href="#DejaVuSerif-74" x="206.791016"/>
      <use xlink:href="#DejaVuSerif-69" x="246.976562"/>
      <use xlink:href="#DejaVuSerif-6f" x="278.958984"/>
      <use xlink:href="#DejaVuSerif-6e" x="339.164062"/>
      <use xlink:href="#DejaVuSerif-20" x="403.568359"/>
      <use xlink:href="#DejaVuSerif-28" x="435.355469"/>
      <use xlink:href="#DejaVuSerif-6d" x="474.369141"/>
      <use xlink:href="#DejaVuSerif-29" x="569.193359"/>
     </g>
    </g>
   </g>
   <g id="line2d_50">
    <path d="M 49.5 132.383962 
L 53.592 122.791365 
L 55.638 118.475044 
L 57.684 114.713228 
L 59.73 111.655888 
L 60.753 110.430725 
L 61.776 109.424912 
L 62.799 108.648497 
L 63.822 108.10924 
L 64.845 107.812527 
L 65.868 107.761324 
L 66.891 107.956143 
L 67.914 108.395036 
L 68.937 109.073618 
L 69.96 109.98511 
L 70.983 111.120404 
L 72.006 112.468156 
L 74.052 115.745182 
L 76.098 119.685544 
L 78.144 124.132152 
L 82.236 133.821901 
L 85.305 141.024855 
L 87.351 145.435491 
L 89.397 149.325804 
L 91.443 152.540698 
L 92.466 153.853612 
L 93.489 154.952008 
L 94.512 155.824911 
L 95.535 156.4636 
L 96.558 156.861694 
L 97.581 157.015214 
L 98.604 156.922626 
L 99.627 156.584857 
L 100.65 156.00528 
L 101.673 155.189687 
L 102.696 154.146226 
L 103.719 152.885324 
L 105.765 149.763637 
L 107.811 145.949077 
L 109.857 141.593719 
L 112.926 134.430715 
L 118.041 122.411237 
L 120.087 118.135174 
L 122.133 114.427165 
L 124.179 111.435037 
L 125.202 110.245959 
L 126.225 109.278076 
L 127.248 108.54106 
L 128.271 108.042274 
L 129.294 107.786703 
L 130.317 107.776899 
L 131.34 108.012961 
L 132.363 108.492529 
L 133.386 109.210813 
L 134.409 110.160636 
L 135.432 111.332506 
L 136.455 112.714716 
L 138.501 116.052947 
L 140.547 120.042245 
L 142.593 124.523567 
L 146.685 134.235171 
L 149.754 141.411495 
L 151.8 145.784912 
L 153.846 149.624075 
L 155.892 152.775929 
L 156.915 154.053633 
L 157.938 155.11482 
L 158.961 155.948888 
L 159.984 156.547504 
L 161.007 156.904685 
L 162.03 157.016863 
L 163.053 156.882917 
L 164.076 156.504186 
L 165.099 155.884454 
L 166.122 155.029912 
L 167.145 153.9491 
L 168.168 152.652816 
L 170.214 149.467664 
L 172.26 145.601439 
L 174.306 141.208275 
L 177.375 134.017679 
L 181.467 124.317238 
L 183.513 119.854032 
L 185.559 115.890356 
L 187.605 112.584227 
L 188.628 111.220108 
L 189.651 110.067451 
L 190.674 109.137773 
L 191.697 108.440364 
L 192.72 107.982191 
L 193.743 107.767833 
L 194.766 107.79943 
L 195.789 108.076669 
L 196.812 108.596778 
L 197.835 109.35456 
L 198.858 110.342445 
L 199.881 111.550561 
L 200.904 112.966838 
L 202.95 116.36533 
L 204.996 120.402435 
L 207.042 124.917205 
L 216.249 146.130543 
L 218.295 149.917472 
L 220.341 153.005394 
L 221.364 154.247527 
L 222.387 155.271206 
L 223.41 156.066203 
L 224.433 156.624575 
L 225.456 156.940743 
L 226.479 157.011548 
L 227.502 156.836282 
L 228.525 156.416696 
L 229.548 155.756983 
L 230.571 154.863735 
L 231.594 153.745877 
L 232.617 152.414577 
L 234.663 149.166861 
L 236.709 145.250064 
L 238.755 140.820336 
L 242.847 131.141893 
L 245.916 123.927037 
L 247.962 119.499209 
L 250.008 115.585056 
L 252.054 112.340622 
L 253.077 111.011162 
L 254.1 109.895253 
L 255.123 109.004043 
L 256.146 108.346437 
L 257.169 107.929007 
L 258.192 107.755922 
L 259.215 107.828913 
L 260.238 108.147249 
L 261.261 108.707751 
L 262.284 109.504818 
L 263.307 110.530485 
L 264.33 111.774506 
L 266.376 114.865827 
L 268.422 118.655542 
L 270.468 122.992565 
L 273.537 130.141794 
L 278.652 142.177008 
L 280.698 146.472288 
L 282.744 150.205911 
L 284.79 153.22903 
L 285.813 154.43524 
L 286.836 155.421121 
L 287.859 156.176822 
L 288.882 156.694793 
L 289.905 156.969858 
L 290.928 156.99927 
L 291.951 156.782733 
L 292.974 156.322411 
L 293.997 155.622905 
L 295.02 154.691203 
L 296.043 153.536614 
L 297.066 152.170675 
L 299.112 148.861313 
L 301.158 144.895051 
L 303.204 140.430012 
L 307.296 130.728416 
L 310.365 123.539227 
L 312.411 119.148029 
L 314.457 115.284506 
L 316.503 112.102684 
L 317.526 110.80826 
L 318.549 109.729413 
L 319.572 108.876922 
L 320.595 108.259307 
L 321.618 107.882737 
L 322.641 107.750975 
L 323.664 107.865338 
L 324.687 108.224682 
L 325.71 108.825419 
L 326.733 109.661544 
L 327.756 110.724705 
L 328.779 112.004277 
L 330.825 115.159484 
L 332.871 119.001376 
L 334.917 123.37679 
L 337.986 130.554571 
L 342.078 140.265089 
L 344.124 144.744609 
L 346.17 148.73135 
L 348.216 152.066372 
L 349.239 153.446771 
L 350.262 154.616718 
L 351.285 155.564522 
L 352.308 156.280714 
L 353.331 156.758138 
L 354.354 156.992023 
L 355.377 156.980032 
L 356.4 156.722285 
L 356.4 156.722285 
" clip-path="url(#pbb0cea7676)" style="fill: none; stroke-dasharray: 2.59,1.12; stroke-dashoffset: 0; stroke: #000000; stroke-width: 0.7"/>
   </g>
   <g id="line2d_51">
    <path d="M 49.5 132.383962 
L 54.615 120.313477 
L 56.661 115.997753 
L 58.707 112.25237 
L 60.753 109.238981 
L 61.776 108.050335 
L 62.799 107.093138 
L 63.822 106.379277 
L 64.845 105.918325 
L 65.868 105.717419 
L 66.891 105.78117 
L 67.914 106.111586 
L 68.937 106.70803 
L 69.96 107.567198 
L 70.983 108.683125 
L 72.006 110.04722 
L 73.029 111.648324 
L 75.075 115.504621 
L 77.121 120.115292 
L 79.167 125.310611 
L 83.259 136.649358 
L 86.328 145.106664 
L 88.374 150.294741 
L 90.42 154.868876 
L 92.466 158.633307 
L 93.489 160.158302 
L 94.512 161.420803 
L 95.535 162.405561 
L 96.558 163.099951 
L 97.581 163.494125 
L 98.604 163.581139 
L 99.627 163.357051 
L 100.65 162.820992 
L 101.673 161.975201 
L 102.696 160.825041 
L 103.719 159.378968 
L 104.742 157.648484 
L 105.765 155.64805 
L 107.811 150.909251 
L 109.857 145.332338 
L 111.903 139.124099 
L 121.11 110.074469 
L 123.156 104.931098 
L 124.179 102.720888 
L 125.202 100.785206 
L 126.225 99.146155 
L 127.248 97.823091 
L 128.271 96.832406 
L 129.294 96.187329 
L 130.317 95.897768 
L 131.34 95.970173 
L 132.363 96.40744 
L 133.386 97.208845 
L 134.409 98.370015 
L 135.432 99.882936 
L 136.455 101.735997 
L 137.478 103.914068 
L 139.524 109.167868 
L 141.57 115.458236 
L 143.616 122.553761 
L 146.685 134.112048 
L 150.777 149.642337 
L 152.823 156.755787 
L 154.869 163.034906 
L 156.915 168.211133 
L 157.938 170.312068 
L 158.961 172.054732 
L 159.984 173.418115 
L 161.007 174.38479 
L 162.03 174.941124 
L 163.053 175.077449 
L 164.076 174.788203 
L 165.099 174.072022 
L 166.122 172.931798 
L 167.145 171.374694 
L 168.168 169.412112 
L 169.191 167.059622 
L 170.214 164.33685 
L 172.26 157.878266 
L 174.306 150.267542 
L 176.352 141.786711 
L 181.467 118.961611 
L 184.536 105.958853 
L 186.582 98.327924 
L 188.628 91.909261 
L 189.651 89.244566 
L 190.674 86.984618 
L 191.697 85.156064 
L 192.72 83.781503 
L 193.743 82.879222 
L 194.766 82.462965 
L 195.789 82.541755 
L 196.812 83.119755 
L 197.835 84.196178 
L 198.858 85.765242 
L 199.881 87.816185 
L 200.904 90.333314 
L 201.927 93.296122 
L 202.95 96.679436 
L 204.996 104.584865 
L 207.042 113.763938 
L 210.111 129.158971 
L 216.249 160.786502 
L 218.295 170.021536 
L 220.341 177.932927 
L 221.364 181.28262 
L 222.387 184.176824 
L 223.41 186.582041 
L 224.433 188.469329 
L 225.456 189.814637 
L 226.479 190.599091 
L 227.502 190.809238 
L 228.525 190.437234 
L 229.548 189.480977 
L 230.571 187.944187 
L 231.594 185.836428 
L 232.617 183.173066 
L 233.64 179.975179 
L 234.663 176.269401 
L 236.709 167.467167 
L 238.755 157.081172 
L 240.801 145.49606 
L 244.893 120.529604 
L 247.962 102.168452 
L 250.008 91.035498 
L 252.054 81.336845 
L 253.077 77.158306 
L 254.1 73.490238 
L 255.123 70.374427 
L 256.146 67.847553 
L 257.169 65.940774 
L 258.192 64.67936 
L 259.215 64.082377 
L 260.238 64.162441 
L 261.261 64.92552 
L 262.284 66.370815 
L 263.307 68.490694 
L 264.33 71.270704 
L 265.353 74.689647 
L 266.376 78.719723 
L 267.399 83.326742 
L 269.445 94.104636 
L 271.491 106.634168 
L 274.56 127.673545 
L 280.698 170.977259 
L 282.744 183.645961 
L 284.79 194.513697 
L 285.813 199.121734 
L 286.836 203.108473 
L 287.859 206.427834 
L 288.882 209.03995 
L 289.905 210.911628 
L 290.928 212.016746 
L 291.951 212.336587 
L 292.974 211.8601 
L 293.997 210.584087 
L 295.02 208.513312 
L 296.043 205.660537 
L 297.066 202.046467 
L 298.089 197.699633 
L 299.112 192.656173 
L 301.158 180.660217 
L 303.204 166.487265 
L 305.25 150.661894 
L 309.342 116.513666 
L 312.411 91.363546 
L 314.457 76.095742 
L 316.503 62.778213 
L 317.526 57.033174 
L 318.549 51.984192 
L 319.572 47.688718 
L 320.595 44.197242 
L 321.618 41.552719 
L 322.641 39.790062 
L 323.664 38.935718 
L 324.687 39.007313 
L 325.71 40.013391 
L 326.733 41.953235 
L 327.756 44.816784 
L 328.779 48.584641 
L 329.802 53.22817 
L 330.825 58.709692 
L 331.848 64.982772 
L 333.894 79.676429 
L 335.94 96.779 
L 339.009 125.531623 
L 345.147 184.821096 
L 347.193 202.199723 
L 349.239 217.128047 
L 350.262 223.46684 
L 351.285 228.958193 
L 352.308 233.538717 
L 353.331 237.153498 
L 354.354 239.756732 
L 355.377 241.312271 
L 356.4 241.794082 
L 356.4 241.794082 
" clip-path="url(#pbb0cea7676)" style="fill: none; stroke: #1f77b4; stroke-width: 0.7; stroke-linecap: square"/>
   </g>
   <g id="line2d_52">
    <path d="M 49.5 132.383962 
L 54.1035 121.556727 
L 56.1495 117.243181 
L 58.1955 113.492348 
L 59.73 111.14318 
L 61.2645 109.254665 
L 62.2875 108.27473 
L 63.3105 107.531131 
L 64.3335 107.032494 
L 65.3565 106.785034 
L 66.3795 106.792484 
L 67.4025 107.056047 
L 68.4255 107.574366 
L 69.4485 108.343531 
L 70.4715 109.357101 
L 71.4945 110.606158 
L 73.029 112.895887 
L 74.5635 115.64168 
L 76.6095 119.909846 
L 78.6555 124.720131 
L 82.236 133.870577 
L 86.328 144.237407 
L 88.374 148.888215 
L 90.42 152.925122 
L 91.9545 155.44797 
L 93.489 157.470414 
L 94.512 158.515877 
L 95.535 159.30509 
L 96.558 159.828876 
L 97.581 160.080663 
L 98.604 160.05657 
L 99.627 159.755458 
L 100.65 159.178952 
L 101.673 158.331442 
L 102.696 157.220053 
L 103.719 155.854584 
L 105.2535 153.357768 
L 106.788 150.369874 
L 108.834 145.733514 
L 110.88 140.5163 
L 114.4605 130.608966 
L 118.5525 119.40929 
L 120.5985 114.395077 
L 122.133 111.063517 
L 123.6675 108.187019 
L 125.202 105.833778 
L 126.225 104.584268 
L 127.248 103.606673 
L 128.271 102.912137 
L 129.294 102.509026 
L 130.317 102.402834 
L 131.34 102.596108 
L 132.363 103.088415 
L 133.386 103.876325 
L 134.409 104.953434 
L 135.432 106.310412 
L 136.9665 108.843243 
L 138.501 111.925226 
L 140.0355 115.491087 
L 142.0815 120.864329 
L 144.639 128.278473 
L 151.2885 147.991709 
L 153.3345 153.234724 
L 154.869 156.664615 
L 156.4035 159.573525 
L 157.938 161.892031 
L 158.961 163.081155 
L 159.984 163.969069 
L 161.007 164.545379 
L 162.03 164.802759 
L 163.053 164.737038 
L 164.076 164.347254 
L 165.099 163.635686 
L 166.122 162.607843 
L 167.145 161.272427 
L 168.168 159.641261 
L 169.7025 156.673237 
L 171.237 153.135933 
L 173.283 147.665976 
L 175.329 141.529452 
L 178.9095 129.91653 
L 182.49 118.400358 
L 184.536 112.409936 
L 186.582 107.158847 
L 188.1165 103.837895 
L 189.651 101.134797 
L 190.674 99.708934 
L 191.697 98.602887 
L 192.72 97.829325 
L 193.743 97.397653 
L 194.766 97.313902 
L 195.789 97.580651 
L 196.812 98.196986 
L 197.835 99.15849 
L 198.858 100.45727 
L 199.881 102.082018 
L 201.4155 105.097462 
L 202.95 108.750036 
L 204.4845 112.96228 
L 206.5305 119.290869 
L 209.088 127.996558 
L 215.226 149.382752 
L 217.272 155.664889 
L 218.8065 159.819334 
L 220.341 163.387205 
L 221.8755 166.283748 
L 222.8985 167.806463 
L 223.9215 168.982355 
L 224.9445 169.797922 
L 225.9675 170.243197 
L 226.9905 170.311873 
L 228.0135 170.001377 
L 229.0365 169.312917 
L 230.0595 168.25149 
L 231.0825 166.825849 
L 232.1055 165.048438 
L 233.64 161.758747 
L 235.1745 157.782839 
L 236.709 153.205085 
L 238.755 146.337344 
L 241.3125 136.904325 
L 247.4505 113.789401 
L 249.4965 107.01763 
L 251.031 102.546509 
L 252.5655 98.713674 
L 254.1 95.610234 
L 255.123 93.984418 
L 256.146 92.734698 
L 257.169 91.875463 
L 258.192 91.417264 
L 259.215 91.366694 
L 260.238 91.7263 
L 261.261 92.494537 
L 262.284 93.665763 
L 263.307 95.230277 
L 264.33 97.174393 
L 265.8645 100.762902 
L 267.399 105.090459 
L 268.9335 110.065171 
L 270.9795 117.517675 
L 273.537 127.738421 
L 279.675 152.72096 
L 281.721 160.020187 
L 283.2555 164.831829 
L 284.79 168.948962 
L 286.3245 172.273653 
L 287.3475 174.009188 
L 288.3705 175.336899 
L 289.3935 176.241458 
L 290.4165 176.711698 
L 291.4395 176.740737 
L 292.4625 176.326076 
L 293.4855 175.469644 
L 294.5085 174.177798 
L 295.5315 172.461285 
L 296.5545 170.335156 
L 298.089 166.421081 
L 299.6235 161.711104 
L 301.158 156.305303 
L 303.204 148.218591 
L 305.7615 137.144732 
L 311.8995 110.144612 
L 313.9455 102.277215 
L 315.48 97.099435 
L 317.0145 92.677289 
L 318.0375 90.20171 
L 319.0605 88.135824 
L 320.0835 86.502353 
L 321.1065 85.319808 
L 322.1295 84.602278 
L 322.641 84.421048 
L 323.1525 84.359272 
L 323.664 84.417403 
L 324.1755 84.595596 
L 325.1985 85.311286 
L 326.2215 86.501579 
L 327.2445 88.156942 
L 328.2675 90.263139 
L 329.2905 92.801351 
L 330.825 97.366715 
L 332.3595 102.75495 
L 334.4055 111.017789 
L 336.963 122.624219 
L 345.147 161.072302 
L 347.193 168.978923 
L 348.7275 174.015794 
L 350.262 178.153038 
L 351.285 180.361189 
L 352.308 182.100321 
L 353.331 183.350686 
L 354.354 184.097325 
L 354.8655 184.278427 
L 355.377 184.330245 
L 355.8885 184.252327 
L 356.4 184.044543 
L 356.4 184.044543 
" clip-path="url(#pbb0cea7676)" style="fill: none; stroke: #ff7f0e; stroke-width: 0.7; stroke-linecap: square"/>
   </g>
   <g id="line2d_53">
    <path d="M 49.5 132.383962 
L 53.7966 122.318743 
L 56.0472 117.626438 
L 57.8886 114.300014 
L 59.4231 111.966104 
L 60.753 110.310068 
L 61.9806 109.109806 
L 63.1059 108.302183 
L 64.1289 107.819742 
L 65.1519 107.582369 
L 66.0726 107.580481 
L 67.0956 107.813905 
L 68.1186 108.293171 
L 69.1416 109.013733 
L 70.2669 110.076671 
L 71.4945 111.544739 
L 72.9267 113.637041 
L 74.4612 116.288175 
L 76.3026 119.946487 
L 78.5532 124.960004 
L 82.0314 133.342331 
L 85.9188 142.569568 
L 88.1694 147.340799 
L 90.0108 150.724933 
L 91.5453 153.100738 
L 92.8752 154.787729 
L 94.1028 156.011668 
L 95.2281 156.836557 
L 96.2511 157.330824 
L 97.2741 157.57621 
L 98.1948 157.581979 
L 99.1155 157.383704 
L 100.1385 156.925872 
L 101.1615 156.222255 
L 102.2868 155.172568 
L 103.5144 153.71233 
L 104.8443 151.782819 
L 106.3788 149.148624 
L 108.1179 145.706476 
L 110.2662 140.927315 
L 113.3352 133.486404 
L 118.1433 121.843773 
L 120.2916 117.225245 
L 122.133 113.782417 
L 123.6675 111.363984 
L 124.9974 109.645476 
L 126.225 108.397416 
L 127.3503 107.554918 
L 128.3733 107.048574 
L 129.3963 106.794982 
L 130.317 106.785209 
L 131.2377 106.982722 
L 132.2607 107.443519 
L 133.2837 108.154088 
L 134.409 109.215948 
L 135.6366 110.694707 
L 136.9665 112.650159 
L 138.501 115.321323 
L 140.2401 118.813481 
L 142.3884 123.664243 
L 145.4574 131.220302 
L 150.2655 143.05093 
L 152.4138 147.74716 
L 154.2552 151.249683 
L 155.7897 153.711492 
L 157.1196 155.462085 
L 158.3472 156.73472 
L 159.4725 157.595174 
L 160.4955 158.113853 
L 161.5185 158.375849 
L 162.4392 158.389751 
L 163.3599 158.193074 
L 164.3829 157.729334 
L 165.4059 157.011771 
L 166.5312 155.937619 
L 167.7588 154.440122 
L 169.0887 152.458398 
L 170.6232 149.749762 
L 172.3623 146.206883 
L 174.5106 141.283467 
L 177.5796 133.610499 
L 182.3877 121.588875 
L 184.536 116.813653 
L 186.3774 113.25042 
L 187.9119 110.744475 
L 189.2418 108.961216 
L 190.4694 107.663544 
L 191.5947 106.78478 
L 192.6177 106.253503 
L 193.6407 105.982902 
L 194.5614 105.964743 
L 195.4821 106.160507 
L 196.4028 106.5688 
L 197.4258 107.267877 
L 198.5511 108.327315 
L 199.7787 109.815686 
L 201.1086 111.795829 
L 202.6431 114.513411 
L 204.3822 118.080139 
L 206.4282 122.804005 
L 209.2926 130.030356 
L 214.7145 143.794729 
L 216.8628 148.593969 
L 218.6019 151.973205 
L 220.1364 154.493107 
L 221.4663 156.279948 
L 222.6939 157.573837 
L 223.8192 158.443192 
L 224.8422 158.961073 
L 225.7629 159.200561 
L 226.6836 159.223107 
L 227.6043 159.028335 
L 228.525 158.617626 
L 229.548 157.911889 
L 230.6733 156.840365 
L 231.9009 155.333289 
L 233.2308 153.326677 
L 234.7653 150.571104 
L 236.5044 146.952702 
L 238.5504 142.158269 
L 241.4148 134.820549 
L 246.8367 120.834287 
L 248.985 115.954138 
L 250.7241 112.516207 
L 252.2586 109.951056 
L 253.5885 108.130796 
L 254.8161 106.811363 
L 255.9414 105.923396 
L 256.9644 105.392784 
L 257.8851 105.145364 
L 258.8058 105.118296 
L 259.7265 105.311995 
L 260.6472 105.725094 
L 261.6702 106.437524 
L 262.7955 107.521247 
L 264.0231 109.047246 
L 265.353 111.080662 
L 266.8875 113.874739 
L 268.6266 117.545546 
L 270.6726 122.411582 
L 273.537 129.862366 
L 279.0612 144.323591 
L 281.2095 149.256374 
L 282.9486 152.722819 
L 284.4831 155.301902 
L 285.813 157.125439 
L 287.0406 158.440582 
L 288.1659 159.31849 
L 289.1889 159.834969 
L 290.1096 160.065723 
L 291.0303 160.072522 
L 291.951 159.855109 
L 292.8717 159.415044 
L 293.8947 158.669097 
L 295.02 157.544571 
L 296.2476 155.969918 
L 297.5775 153.879702 
L 299.112 151.016021 
L 300.8511 147.262952 
L 302.8971 142.298642 
L 305.7615 134.714678 
L 311.0811 120.551942 
L 313.2294 115.505919 
L 314.9685 111.947578 
L 316.503 109.289533 
L 317.8329 107.400612 
L 319.0605 106.02864 
L 320.1858 105.102336 
L 321.2088 104.545442 
L 322.1295 104.281582 
L 323.0502 104.245053 
L 323.9709 104.436356 
L 324.8916 104.854146 
L 325.9146 105.580062 
L 327.0399 106.688528 
L 328.2675 108.253022 
L 329.5974 110.341071 
L 331.0296 113.007915 
L 332.7687 116.755756 
L 334.8147 121.741558 
L 337.5768 129.122376 
L 343.4079 144.874061 
L 345.5562 149.9438 
L 347.2953 153.499421 
L 348.8298 156.138776 
L 350.1597 157.999449 
L 351.3873 159.335824 
L 352.5126 160.221905 
L 353.5356 160.736341 
L 354.4563 160.957548 
L 355.377 160.947569 
L 356.2977 160.706278 
L 356.4 160.665248 
L 356.4 160.665248 
" clip-path="url(#pbb0cea7676)" style="fill: none; stroke: #2ca02c; stroke-width: 0.7; stroke-linecap: square"/>
   </g>
   <g id="patch_3">
    <path d="M 49.5 251.937 
L 49.5 28.7928 
" style="fill: none; stroke: #000000; stroke-width: 0.5; stroke-linejoin: miter; stroke-linecap: square"/>
   </g>
   <g id="patch_4">
    <path d="M 356.4 251.937 
L 356.4 28.7928 
" style="fill: none; stroke: #000000; stroke-width: 0.5; stroke-linejoin: miter; stroke-linecap: square"/>
   </g>
   <g id="patch_5">
    <path d="M 49.5 251.937 
L 356.4 251.937 
" style="fill: none; stroke: #000000; stroke-width: 0.5; stroke-linejoin: miter; stroke-linecap: square"/>
   </g>
   <g id="patch_6">
    <path d="M 49.5 28.7928 
L 356.4 28.7928 
" style="fill: none; stroke: #000000; stroke-width: 0.5; stroke-linejoin: miter; stroke-linecap: square"/>
   </g>
   <g id="legend_1">
    <g id="patch_7">
     <path d="M 56.5 95.5053 
L 159.060938 95.5053 
Q 161.060938 95.5053 161.060938 93.5053 
L 161.060938 35.7928 
Q 161.060938 33.7928 159.060938 33.7928 
L 56.5 33.7928 
Q 54.5 33.7928 54.5 35.7928 
L 54.5 93.5053 
Q 54.5 95.5053 56.5 95.5053 
z
" style="fill: #ffffff; opacity: 0.8; stroke: #cccccc; stroke-linejoin: miter"/>
    </g>
    <g id="line2d_54">
     <path d="M 58.5 41.891237 
L 78.5 41.891237 
" style="fill: none; stroke-dasharray: 2.59,1.12; stroke-dashoffset: 0; stroke: #000000; stroke-width: 0.7"/>
    </g>
    <g id="line2d_55"/>
    <g id="text_15">
     <!-- Exact solution -->
     <g transform="translate(86.5 45.391237) scale(0.1 -0.1)">
      <defs>
       <path id="DejaVuSans-45" d="M 628 4666 
L 3578 4666 
L 3578 4134 
L 1259 4134 
L 1259 2753 
L 3481 2753 
L 3481 2222 
L 1259 2222 
L 1259 531 
L 3634 531 
L 3634 0 
L 628 0 
L 628 4666 
z
" transform="scale(0.015625)"/>
       <path id="DejaVuSans-78" d="M 3513 3500 
L 2247 1797 
L 3578 0 
L 2900 0 
L 1881 1375 
L 863 0 
L 184 0 
L 1544 1831 
L 300 3500 
L 978 3500 
L 1906 2253 
L 2834 3500 
L 3513 3500 
z
" transform="scale(0.015625)"/>
       <path id="DejaVuSans-61" d="M 2194 1759 
Q 1497 1759 1228 1600 
Q 959 1441 959 1056 
Q 959 750 1161 570 
Q 1363 391 1709 391 
Q 2188 391 2477 730 
Q 2766 1069 2766 1631 
L 2766 1759 
L 2194 1759 
z
M 3341 1997 
L 3341 0 
L 2766 0 
L 2766 531 
Q 2569 213 2275 61 
Q 1981 -91 1556 -91 
Q 1019 -91 701 211 
Q 384 513 384 1019 
Q 384 1609 779 1909 
Q 1175 2209 1959 2209 
L 2766 2209 
L 2766 2266 
Q 2766 2663 2505 2880 
Q 2244 3097 1772 3097 
Q 1472 3097 1187 3025 
Q 903 2953 641 2809 
L 641 3341 
Q 956 3463 1253 3523 
Q 1550 3584 1831 3584 
Q 2591 3584 2966 3190 
Q 3341 2797 3341 1997 
z
" transform="scale(0.015625)"/>
       <path id="DejaVuSans-63" d="M 3122 3366 
L 3122 2828 
Q 2878 2963 2633 3030 
Q 2388 3097 2138 3097 
Q 1578 3097 1268 2742 
Q 959 2388 959 1747 
Q 959 1106 1268 751 
Q 1578 397 2138 397 
Q 2388 397 2633 464 
Q 2878 531 3122 666 
L 3122 134 
Q 2881 22 2623 -34 
Q 2366 -91 2075 -91 
Q 1284 -91 818 406 
Q 353 903 353 1747 
Q 353 2603 823 3093 
Q 1294 3584 2113 3584 
Q 2378 3584 2631 3529 
Q 2884 3475 3122 3366 
z
" transform="scale(0.015625)"/>
       <path id="DejaVuSans-74" d="M 1172 4494 
L 1172 3500 
L 2356 3500 
L 2356 3053 
L 1172 3053 
L 1172 1153 
Q 1172 725 1289 603 
Q 1406 481 1766 481 
L 2356 481 
L 2356 0 
L 1766 0 
Q 1100 0 847 248 
Q 594 497 594 1153 
L 594 3053 
L 172 3053 
L 172 3500 
L 594 3500 
L 594 4494 
L 1172 4494 
z
" transform="scale(0.015625)"/>
       <path id="DejaVuSans-20" transform="scale(0.015625)"/>
       <path id="DejaVuSans-73" d="M 2834 3397 
L 2834 2853 
Q 2591 2978 2328 3040 
Q 2066 3103 1784 3103 
Q 1356 3103 1142 2972 
Q 928 2841 928 2578 
Q 928 2378 1081 2264 
Q 1234 2150 1697 2047 
L 1894 2003 
Q 2506 1872 2764 1633 
Q 3022 1394 3022 966 
Q 3022 478 2636 193 
Q 2250 -91 1575 -91 
Q 1294 -91 989 -36 
Q 684 19 347 128 
L 347 722 
Q 666 556 975 473 
Q 1284 391 1588 391 
Q 1994 391 2212 530 
Q 2431 669 2431 922 
Q 2431 1156 2273 1281 
Q 2116 1406 1581 1522 
L 1381 1569 
Q 847 1681 609 1914 
Q 372 2147 372 2553 
Q 372 3047 722 3315 
Q 1072 3584 1716 3584 
Q 2034 3584 2315 3537 
Q 2597 3491 2834 3397 
z
" transform="scale(0.015625)"/>
       <path id="DejaVuSans-6f" d="M 1959 3097 
Q 1497 3097 1228 2736 
Q 959 2375 959 1747 
Q 959 1119 1226 758 
Q 1494 397 1959 397 
Q 2419 397 2687 759 
Q 2956 1122 2956 1747 
Q 2956 2369 2687 2733 
Q 2419 3097 1959 3097 
z
M 1959 3584 
Q 2709 3584 3137 3096 
Q 3566 2609 3566 1747 
Q 3566 888 3137 398 
Q 2709 -91 1959 -91 
Q 1206 -91 779 398 
Q 353 888 353 1747 
Q 353 2609 779 3096 
Q 1206 3584 1959 3584 
z
" transform="scale(0.015625)"/>
       <path id="DejaVuSans-6c" d="M 603 4863 
L 1178 4863 
L 1178 0 
L 603 0 
L 603 4863 
z
" transform="scale(0.015625)"/>
       <path id="DejaVuSans-75" d="M 544 1381 
L 544 3500 
L 1119 3500 
L 1119 1403 
Q 1119 906 1312 657 
Q 1506 409 1894 409 
Q 2359 409 2629 706 
Q 2900 1003 2900 1516 
L 2900 3500 
L 3475 3500 
L 3475 0 
L 2900 0 
L 2900 538 
Q 2691 219 2414 64 
Q 2138 -91 1772 -91 
Q 1169 -91 856 284 
Q 544 659 544 1381 
z
M 1991 3584 
L 1991 3584 
z
" transform="scale(0.015625)"/>
       <path id="DejaVuSans-69" d="M 603 3500 
L 1178 3500 
L 1178 0 
L 603 0 
L 603 3500 
z
M 603 4863 
L 1178 4863 
L 1178 4134 
L 603 4134 
L 603 4863 
z
" transform="scale(0.015625)"/>
       <path id="DejaVuSans-6e" d="M 3513 2113 
L 3513 0 
L 2938 0 
L 2938 2094 
Q 2938 2591 2744 2837 
Q 2550 3084 2163 3084 
Q 1697 3084 1428 2787 
Q 1159 2491 1159 1978 
L 1159 0 
L 581 0 
L 581 3500 
L 1159 3500 
L 1159 2956 
Q 1366 3272 1645 3428 
Q 1925 3584 2291 3584 
Q 2894 3584 3203 3211 
Q 3513 2838 3513 2113 
z
" transform="scale(0.015625)"/>
      </defs>
      <use xlink:href="#DejaVuSans-45"/>
      <use xlink:href="#DejaVuSans-78" x="63.183594"/>
      <use xlink:href="#DejaVuSans-61" x="122.363281"/>
      <use xlink:href="#DejaVuSans-63" x="183.642578"/>
      <use xlink:href="#DejaVuSans-74" x="238.623047"/>
      <use xlink:href="#DejaVuSans-20" x="277.832031"/>
      <use xlink:href="#DejaVuSans-73" x="309.619141"/>
      <use xlink:href="#DejaVuSans-6f" x="361.71875"/>
      <use xlink:href="#DejaVuSans-6c" x="422.900391"/>
      <use xlink:href="#DejaVuSans-75" x="450.683594"/>
      <use xlink:href="#DejaVuSans-74" x="514.0625"/>
      <use xlink:href="#DejaVuSans-69" x="553.271484"/>
      <use xlink:href="#DejaVuSans-6f" x="581.054688"/>
      <use xlink:href="#DejaVuSans-6e" x="642.236328"/>
     </g>
    </g>
    <g id="line2d_56">
     <path d="M 58.5 56.569362 
L 78.5 56.569362 
" style="fill: none; stroke: #1f77b4; stroke-width: 0.7; stroke-linecap: square"/>
    </g>
    <g id="line2d_57"/>
    <g id="text_16">
     <!-- h = 0.1 s -->
     <g transform="translate(86.5 60.069362) scale(0.1 -0.1)">
      <defs>
       <path id="DejaVuSans-68" d="M 3513 2113 
L 3513 0 
L 2938 0 
L 2938 2094 
Q 2938 2591 2744 2837 
Q 2550 3084 2163 3084 
Q 1697 3084 1428 2787 
Q 1159 2491 1159 1978 
L 1159 0 
L 581 0 
L 581 4863 
L 1159 4863 
L 1159 2956 
Q 1366 3272 1645 3428 
Q 1925 3584 2291 3584 
Q 2894 3584 3203 3211 
Q 3513 2838 3513 2113 
z
" transform="scale(0.015625)"/>
       <path id="DejaVuSans-3d" d="M 678 2906 
L 4684 2906 
L 4684 2381 
L 678 2381 
L 678 2906 
z
M 678 1631 
L 4684 1631 
L 4684 1100 
L 678 1100 
L 678 1631 
z
" transform="scale(0.015625)"/>
       <path id="DejaVuSans-2e" d="M 684 794 
L 1344 794 
L 1344 0 
L 684 0 
L 684 794 
z
" transform="scale(0.015625)"/>
      </defs>
      <use xlink:href="#DejaVuSans-68"/>
      <use xlink:href="#DejaVuSans-20" x="63.378906"/>
      <use xlink:href="#DejaVuSans-3d" x="95.166016"/>
      <use xlink:href="#DejaVuSans-20" x="178.955078"/>
      <use xlink:href="#DejaVuSans-30" x="210.742188"/>
      <use xlink:href="#DejaVuSans-2e" x="274.365234"/>
      <use xlink:href="#DejaVuSans-31" x="306.152344"/>
      <use xlink:href="#DejaVuSans-20" x="369.775391"/>
      <use xlink:href="#DejaVuSans-73" x="401.5625"/>
     </g>
    </g>
    <g id="line2d_58">
     <path d="M 58.5 71.247487 
L 78.5 71.247487 
" style="fill: none; stroke: #ff7f0e; stroke-width: 0.7; stroke-linecap: square"/>
    </g>
    <g id="line2d_59"/>
    <g id="text_17">
     <!-- h = 0.05 s -->
     <g transform="translate(86.5 74.747487) scale(0.1 -0.1)">
      <use xlink:href="#DejaVuSans-68"/>
      <use xlink:href="#DejaVuSans-20" x="63.378906"/>
      <use xlink:href="#DejaVuSans-3d" x="95.166016"/>
      <use xlink:href="#DejaVuSans-20" x="178.955078"/>
      <use xlink:href="#DejaVuSans-30" x="210.742188"/>
      <use xlink:href="#DejaVuSans-2e" x="274.365234"/>
      <use xlink:href="#DejaVuSans-30" x="306.152344"/>
      <use xlink:href="#DejaVuSans-35" x="369.775391"/>
      <use xlink:href="#DejaVuSans-20" x="433.398438"/>
      <use xlink:href="#DejaVuSans-73" x="465.185547"/>
     </g>
    </g>
    <g id="line2d_60">
     <path d="M 58.5 85.925612 
L 78.5 85.925612 
" style="fill: none; stroke: #2ca02c; stroke-width: 0.7; stroke-linecap: square"/>
    </g>
    <g id="line2d_61"/>
    <g id="text_18">
     <!-- h = 0.01 s -->
     <g transform="translate(86.5 89.425612) scale(0.1 -0.1)">
      <use xlink:href="#DejaVuSans-68"/>
      <use xlink:href="#DejaVuSans-20" x="63.378906"/>
      <use xlink:href="#DejaVuSans-3d" x="95.166016"/>
      <use xlink:href="#DejaVuSans-20" x="178.955078"/>
      <use xlink:href="#DejaVuSans-30" x="210.742188"/>
      <use xlink:href="#DejaVuSans-2e" x="274.365234"/>
      <use xlink:href="#DejaVuSans-30" x="306.152344"/>
      <use xlink:href="#DejaVuSans-31" x="369.775391"/>
      <use xlink:href="#DejaVuSans-20" x="433.398438"/>
      <use xlink:href="#DejaVuSans-73" x="465.185547"/>
     </g>
    </g>
   </g>
  </g>
 </g>
 <defs>
  <clipPath id="pbb0cea7676">
   <rect x="49.5" y="28.7928" width="306.9" height="223.1442"/>
  </clipPath>
 </defs>
</svg>
