<?xml version="1.0" encoding="utf-8" standalone="no"?>
<!DOCTYPE svg PUBLIC "-//W3C//DTD SVG 1.1//EN"
  "http://www.w3.org/Graphics/SVG/1.1/DTD/svg11.dtd">
<svg xmlns:xlink="http://www.w3.org/1999/xlink" width="576pt" height="576pt" viewBox="0 0 576 576" xmlns="http://www.w3.org/2000/svg" version="1.1">
 <metadata>
  <rdf:RDF xmlns:dc="http://purl.org/dc/elements/1.1/" xmlns:cc="http://creativecommons.org/ns#" xmlns:rdf="http://www.w3.org/1999/02/22-rdf-syntax-ns#">
   <cc:Work>
    <dc:type rdf:resource="http://purl.org/dc/dcmitype/StillImage"/>
    <dc:date>2024-09-22T14:42:27.657661</dc:date>
    <dc:format>image/svg+xml</dc:format>
    <dc:creator>
     <cc:Agent>
      <dc:title>Matplotlib v3.8.3, https://matplotlib.org/</dc:title>
     </cc:Agent>
    </dc:creator>
   </cc:Work>
  </rdf:RDF>
 </metadata>
 <defs>
  <style type="text/css">*{stroke-linejoin: round; stroke-linecap: butt}</style>
 </defs>
 <g id="figure_1">
  <g id="patch_1">
   <path d="M 0 576 
L 576 576 
L 576 0 
L 0 0 
z
" style="fill: #ffffff"/>
  </g>
  <g id="axes_1">
   <g id="patch_2">
    <path d="M 72 286.56 
L 518.4 286.56 
L 518.4 69.12 
L 72 69.12 
z
" style="fill: #ffffff"/>
   </g>
   <g id="matplotlib.axis_1">
    <g id="xtick_1">
     <g id="line2d_1">
      <defs>
       <path id="mfce839bd6a" d="M 0 0 
L 0 -3.5 
" style="stroke: #000000; stroke-width: 0.8"/>
      </defs>
      <g>
       <use xlink:href="#mfce839bd6a" x="72" y="286.56" style="stroke: #000000; stroke-width: 0.8"/>
      </g>
     </g>
    </g>
    <g id="xtick_2">
     <g id="line2d_2">
      <g>
       <use xlink:href="#mfce839bd6a" x="146.4" y="286.56" style="stroke: #000000; stroke-width: 0.8"/>
      </g>
     </g>
    </g>
    <g id="xtick_3">
     <g id="line2d_3">
      <g>
       <use xlink:href="#mfce839bd6a" x="220.8" y="286.56" style="stroke: #000000; stroke-width: 0.8"/>
      </g>
     </g>
    </g>
    <g id="xtick_4">
     <g id="line2d_4">
      <g>
       <use xlink:href="#mfce839bd6a" x="295.2" y="286.56" style="stroke: #000000; stroke-width: 0.8"/>
      </g>
     </g>
    </g>
    <g id="xtick_5">
     <g id="line2d_5">
      <g>
       <use xlink:href="#mfce839bd6a" x="369.6" y="286.56" style="stroke: #000000; stroke-width: 0.8"/>
      </g>
     </g>
    </g>
    <g id="xtick_6">
     <g id="line2d_6">
      <g>
       <use xlink:href="#mfce839bd6a" x="444" y="286.56" style="stroke: #000000; stroke-width: 0.8"/>
      </g>
     </g>
    </g>
    <g id="xtick_7">
     <g id="line2d_7">
      <g>
       <use xlink:href="#mfce839bd6a" x="518.4" y="286.56" style="stroke: #000000; stroke-width: 0.8"/>
      </g>
     </g>
    </g>
    <g id="xtick_8">
     <g id="line2d_8">
      <defs>
       <path id="m4fbe12c5f2" d="M 0 0 
L 0 -2 
" style="stroke: #000000; stroke-width: 0.6"/>
      </defs>
      <g>
       <use xlink:href="#m4fbe12c5f2" x="86.88" y="286.56" style="stroke: #000000; stroke-width: 0.6"/>
      </g>
     </g>
    </g>
    <g id="xtick_9">
     <g id="line2d_9">
      <g>
       <use xlink:href="#m4fbe12c5f2" x="101.76" y="286.56" style="stroke: #000000; stroke-width: 0.6"/>
      </g>
     </g>
    </g>
    <g id="xtick_10">
     <g id="line2d_10">
      <g>
       <use xlink:href="#m4fbe12c5f2" x="116.64" y="286.56" style="stroke: #000000; stroke-width: 0.6"/>
      </g>
     </g>
    </g>
    <g id="xtick_11">
     <g id="line2d_11">
      <g>
       <use xlink:href="#m4fbe12c5f2" x="131.52" y="286.56" style="stroke: #000000; stroke-width: 0.6"/>
      </g>
     </g>
    </g>
    <g id="xtick_12">
     <g id="line2d_12">
      <g>
       <use xlink:href="#m4fbe12c5f2" x="161.28" y="286.56" style="stroke: #000000; stroke-width: 0.6"/>
      </g>
     </g>
    </g>
    <g id="xtick_13">
     <g id="line2d_13">
      <g>
       <use xlink:href="#m4fbe12c5f2" x="176.16" y="286.56" style="stroke: #000000; stroke-width: 0.6"/>
      </g>
     </g>
    </g>
    <g id="xtick_14">
     <g id="line2d_14">
      <g>
       <use xlink:href="#m4fbe12c5f2" x="191.04" y="286.56" style="stroke: #000000; stroke-width: 0.6"/>
      </g>
     </g>
    </g>
    <g id="xtick_15">
     <g id="line2d_15">
      <g>
       <use xlink:href="#m4fbe12c5f2" x="205.92" y="286.56" style="stroke: #000000; stroke-width: 0.6"/>
      </g>
     </g>
    </g>
    <g id="xtick_16">
     <g id="line2d_16">
      <g>
       <use xlink:href="#m4fbe12c5f2" x="235.68" y="286.56" style="stroke: #000000; stroke-width: 0.6"/>
      </g>
     </g>
    </g>
    <g id="xtick_17">
     <g id="line2d_17">
      <g>
       <use xlink:href="#m4fbe12c5f2" x="250.56" y="286.56" style="stroke: #000000; stroke-width: 0.6"/>
      </g>
     </g>
    </g>
    <g id="xtick_18">
     <g id="line2d_18">
      <g>
       <use xlink:href="#m4fbe12c5f2" x="265.44" y="286.56" style="stroke: #000000; stroke-width: 0.6"/>
      </g>
     </g>
    </g>
    <g id="xtick_19">
     <g id="line2d_19">
      <g>
       <use xlink:href="#m4fbe12c5f2" x="280.32" y="286.56" style="stroke: #000000; stroke-width: 0.6"/>
      </g>
     </g>
    </g>
    <g id="xtick_20">
     <g id="line2d_20">
      <g>
       <use xlink:href="#m4fbe12c5f2" x="310.08" y="286.56" style="stroke: #000000; stroke-width: 0.6"/>
      </g>
     </g>
    </g>
    <g id="xtick_21">
     <g id="line2d_21">
      <g>
       <use xlink:href="#m4fbe12c5f2" x="324.96" y="286.56" style="stroke: #000000; stroke-width: 0.6"/>
      </g>
     </g>
    </g>
    <g id="xtick_22">
     <g id="line2d_22">
      <g>
       <use xlink:href="#m4fbe12c5f2" x="339.84" y="286.56" style="stroke: #000000; stroke-width: 0.6"/>
      </g>
     </g>
    </g>
    <g id="xtick_23">
     <g id="line2d_23">
      <g>
       <use xlink:href="#m4fbe12c5f2" x="354.72" y="286.56" style="stroke: #000000; stroke-width: 0.6"/>
      </g>
     </g>
    </g>
    <g id="xtick_24">
     <g id="line2d_24">
      <g>
       <use xlink:href="#m4fbe12c5f2" x="384.48" y="286.56" style="stroke: #000000; stroke-width: 0.6"/>
      </g>
     </g>
    </g>
    <g id="xtick_25">
     <g id="line2d_25">
      <g>
       <use xlink:href="#m4fbe12c5f2" x="399.36" y="286.56" style="stroke: #000000; stroke-width: 0.6"/>
      </g>
     </g>
    </g>
    <g id="xtick_26">
     <g id="line2d_26">
      <g>
       <use xlink:href="#m4fbe12c5f2" x="414.24" y="286.56" style="stroke: #000000; stroke-width: 0.6"/>
      </g>
     </g>
    </g>
    <g id="xtick_27">
     <g id="line2d_27">
      <g>
       <use xlink:href="#m4fbe12c5f2" x="429.12" y="286.56" style="stroke: #000000; stroke-width: 0.6"/>
      </g>
     </g>
    </g>
    <g id="xtick_28">
     <g id="line2d_28">
      <g>
       <use xlink:href="#m4fbe12c5f2" x="458.88" y="286.56" style="stroke: #000000; stroke-width: 0.6"/>
      </g>
     </g>
    </g>
    <g id="xtick_29">
     <g id="line2d_29">
      <g>
       <use xlink:href="#m4fbe12c5f2" x="473.76" y="286.56" style="stroke: #000000; stroke-width: 0.6"/>
      </g>
     </g>
    </g>
    <g id="xtick_30">
     <g id="line2d_30">
      <g>
       <use xlink:href="#m4fbe12c5f2" x="488.64" y="286.56" style="stroke: #000000; stroke-width: 0.6"/>
      </g>
     </g>
    </g>
    <g id="xtick_31">
     <g id="line2d_31">
      <g>
       <use xlink:href="#m4fbe12c5f2" x="503.52" y="286.56" style="stroke: #000000; stroke-width: 0.6"/>
      </g>
     </g>
    </g>
   </g>
   <g id="matplotlib.axis_2">
    <g id="ytick_1">
     <g id="line2d_32">
      <defs>
       <path id="macf4f42241" d="M 0 0 
L 3.5 0 
" style="stroke: #000000; stroke-width: 0.8"/>
      </defs>
      <g>
       <use xlink:href="#macf4f42241" x="72" y="266.076872" style="stroke: #000000; stroke-width: 0.8"/>
      </g>
     </g>
     <g id="text_1">
      <!-- −4 -->
      <g transform="translate(53.757812 269.876091) scale(0.1 -0.1)">
       <defs>
        <path id="DejaVuSans-2212" d="M 678 2272 
L 4684 2272 
L 4684 1741 
L 678 1741 
L 678 2272 
z
" transform="scale(0.015625)"/>
        <path id="DejaVuSans-34" d="M 2419 4116 
L 825 1625 
L 2419 1625 
L 2419 4116 
z
M 2253 4666 
L 3047 4666 
L 3047 1625 
L 3713 1625 
L 3713 1100 
L 3047 1100 
L 3047 0 
L 2419 0 
L 2419 1100 
L 313 1100 
L 313 1709 
L 2253 4666 
z
" transform="scale(0.015625)"/>
       </defs>
       <use xlink:href="#DejaVuSans-2212"/>
       <use xlink:href="#DejaVuSans-34" x="83.789062"/>
      </g>
     </g>
    </g>
    <g id="ytick_2">
     <g id="line2d_33">
      <g>
       <use xlink:href="#macf4f42241" x="72" y="218.069975" style="stroke: #000000; stroke-width: 0.8"/>
      </g>
     </g>
     <g id="text_2">
      <!-- −2 -->
      <g transform="translate(53.757812 221.869194) scale(0.1 -0.1)">
       <defs>
        <path id="DejaVuSans-32" d="M 1228 531 
L 3431 531 
L 3431 0 
L 469 0 
L 469 531 
Q 828 903 1448 1529 
Q 2069 2156 2228 2338 
Q 2531 2678 2651 2914 
Q 2772 3150 2772 3378 
Q 2772 3750 2511 3984 
Q 2250 4219 1831 4219 
Q 1534 4219 1204 4116 
Q 875 4013 500 3803 
L 500 4441 
Q 881 4594 1212 4672 
Q 1544 4750 1819 4750 
Q 2544 4750 2975 4387 
Q 3406 4025 3406 3419 
Q 3406 3131 3298 2873 
Q 3191 2616 2906 2266 
Q 2828 2175 2409 1742 
Q 1991 1309 1228 531 
z
" transform="scale(0.015625)"/>
       </defs>
       <use xlink:href="#DejaVuSans-2212"/>
       <use xlink:href="#DejaVuSans-32" x="83.789062"/>
      </g>
     </g>
    </g>
    <g id="ytick_3">
     <g id="line2d_34">
      <g>
       <use xlink:href="#macf4f42241" x="72" y="170.063078" style="stroke: #000000; stroke-width: 0.8"/>
      </g>
     </g>
     <g id="text_3">
      <!-- 0 -->
      <g transform="translate(62.1375 173.862297) scale(0.1 -0.1)">
       <defs>
        <path id="DejaVuSans-30" d="M 2034 4250 
Q 1547 4250 1301 3770 
Q 1056 3291 1056 2328 
Q 1056 1369 1301 889 
Q 1547 409 2034 409 
Q 2525 409 2770 889 
Q 3016 1369 3016 2328 
Q 3016 3291 2770 3770 
Q 2525 4250 2034 4250 
z
M 2034 4750 
Q 2819 4750 3233 4129 
Q 3647 3509 3647 2328 
Q 3647 1150 3233 529 
Q 2819 -91 2034 -91 
Q 1250 -91 836 529 
Q 422 1150 422 2328 
Q 422 3509 836 4129 
Q 1250 4750 2034 4750 
z
" transform="scale(0.015625)"/>
       </defs>
       <use xlink:href="#DejaVuSans-30"/>
      </g>
     </g>
    </g>
    <g id="ytick_4">
     <g id="line2d_35">
      <g>
       <use xlink:href="#macf4f42241" x="72" y="122.056181" style="stroke: #000000; stroke-width: 0.8"/>
      </g>
     </g>
     <g id="text_4">
      <!-- 2 -->
      <g transform="translate(62.1375 125.855399) scale(0.1 -0.1)">
       <use xlink:href="#DejaVuSans-32"/>
      </g>
     </g>
    </g>
    <g id="ytick_5">
     <g id="line2d_36">
      <g>
       <use xlink:href="#macf4f42241" x="72" y="74.049284" style="stroke: #000000; stroke-width: 0.8"/>
      </g>
     </g>
     <g id="text_5">
      <!-- 4 -->
      <g transform="translate(62.1375 77.848502) scale(0.1 -0.1)">
       <use xlink:href="#DejaVuSans-34"/>
      </g>
     </g>
    </g>
    <g id="ytick_6">
     <g id="line2d_37">
      <defs>
       <path id="md2b42ac583" d="M 0 0 
L 2 0 
" style="stroke: #000000; stroke-width: 0.6"/>
      </defs>
      <g>
       <use xlink:href="#md2b42ac583" x="72" y="278.078596" style="stroke: #000000; stroke-width: 0.6"/>
      </g>
     </g>
    </g>
    <g id="ytick_7">
     <g id="line2d_38">
      <g>
       <use xlink:href="#md2b42ac583" x="72" y="254.075148" style="stroke: #000000; stroke-width: 0.6"/>
      </g>
     </g>
    </g>
    <g id="ytick_8">
     <g id="line2d_39">
      <g>
       <use xlink:href="#md2b42ac583" x="72" y="242.073424" style="stroke: #000000; stroke-width: 0.6"/>
      </g>
     </g>
    </g>
    <g id="ytick_9">
     <g id="line2d_40">
      <g>
       <use xlink:href="#md2b42ac583" x="72" y="230.071699" style="stroke: #000000; stroke-width: 0.6"/>
      </g>
     </g>
    </g>
    <g id="ytick_10">
     <g id="line2d_41">
      <g>
       <use xlink:href="#md2b42ac583" x="72" y="206.068251" style="stroke: #000000; stroke-width: 0.6"/>
      </g>
     </g>
    </g>
    <g id="ytick_11">
     <g id="line2d_42">
      <g>
       <use xlink:href="#md2b42ac583" x="72" y="194.066526" style="stroke: #000000; stroke-width: 0.6"/>
      </g>
     </g>
    </g>
    <g id="ytick_12">
     <g id="line2d_43">
      <g>
       <use xlink:href="#md2b42ac583" x="72" y="182.064802" style="stroke: #000000; stroke-width: 0.6"/>
      </g>
     </g>
    </g>
    <g id="ytick_13">
     <g id="line2d_44">
      <g>
       <use xlink:href="#md2b42ac583" x="72" y="158.061354" style="stroke: #000000; stroke-width: 0.6"/>
      </g>
     </g>
    </g>
    <g id="ytick_14">
     <g id="line2d_45">
      <g>
       <use xlink:href="#md2b42ac583" x="72" y="146.059629" style="stroke: #000000; stroke-width: 0.6"/>
      </g>
     </g>
    </g>
    <g id="ytick_15">
     <g id="line2d_46">
      <g>
       <use xlink:href="#md2b42ac583" x="72" y="134.057905" style="stroke: #000000; stroke-width: 0.6"/>
      </g>
     </g>
    </g>
    <g id="ytick_16">
     <g id="line2d_47">
      <g>
       <use xlink:href="#md2b42ac583" x="72" y="110.054456" style="stroke: #000000; stroke-width: 0.6"/>
      </g>
     </g>
    </g>
    <g id="ytick_17">
     <g id="line2d_48">
      <g>
       <use xlink:href="#md2b42ac583" x="72" y="98.052732" style="stroke: #000000; stroke-width: 0.6"/>
      </g>
     </g>
    </g>
    <g id="ytick_18">
     <g id="line2d_49">
      <g>
       <use xlink:href="#md2b42ac583" x="72" y="86.051008" style="stroke: #000000; stroke-width: 0.6"/>
      </g>
     </g>
    </g>
    <g id="text_6">
     <!-- Displacement (m) -->
     <g transform="translate(47.678125 222.716563) rotate(-90) scale(0.1 -0.1)">
      <defs>
       <path id="DejaVuSerif-44" d="M 1581 331 
L 2163 331 
Q 3072 331 3558 850 
Q 4044 1369 4044 2338 
Q 4044 3306 3559 3818 
Q 3075 4331 2163 4331 
L 1581 4331 
L 1581 331 
z
M 353 0 
L 353 331 
L 947 331 
L 947 4331 
L 353 4331 
L 353 4666 
L 2209 4666 
Q 3416 4666 4089 4050 
Q 4763 3434 4763 2338 
Q 4763 1238 4088 619 
Q 3413 0 2209 0 
L 353 0 
z
" transform="scale(0.015625)"/>
       <path id="DejaVuSerif-69" d="M 622 4353 
Q 622 4497 726 4603 
Q 831 4709 978 4709 
Q 1122 4709 1226 4603 
Q 1331 4497 1331 4353 
Q 1331 4206 1228 4103 
Q 1125 4000 978 4000 
Q 831 4000 726 4103 
Q 622 4206 622 4353 
z
M 1356 331 
L 1900 331 
L 1900 0 
L 231 0 
L 231 331 
L 781 331 
L 781 2988 
L 231 2988 
L 231 3322 
L 1356 3322 
L 1356 331 
z
" transform="scale(0.015625)"/>
       <path id="DejaVuSerif-73" d="M 359 184 
L 359 959 
L 691 959 
Q 703 588 923 403 
Q 1144 219 1575 219 
Q 1963 219 2166 364 
Q 2369 509 2369 788 
Q 2369 1006 2220 1140 
Q 2072 1275 1594 1428 
L 1178 1569 
Q 750 1706 558 1912 
Q 366 2119 366 2438 
Q 366 2894 700 3153 
Q 1034 3413 1625 3413 
Q 1888 3413 2178 3344 
Q 2469 3275 2778 3144 
L 2778 2419 
L 2447 2419 
Q 2434 2741 2221 2922 
Q 2009 3103 1644 3103 
Q 1281 3103 1095 2975 
Q 909 2847 909 2591 
Q 909 2381 1050 2254 
Q 1191 2128 1613 1997 
L 2069 1856 
Q 2541 1709 2748 1489 
Q 2956 1269 2956 922 
Q 2956 450 2595 179 
Q 2234 -91 1600 -91 
Q 1278 -91 972 -22 
Q 666 47 359 184 
z
" transform="scale(0.015625)"/>
       <path id="DejaVuSerif-70" d="M 1313 1825 
L 1313 1497 
Q 1313 897 1542 583 
Q 1772 269 2209 269 
Q 2650 269 2876 622 
Q 3103 975 3103 1663 
Q 3103 2353 2876 2703 
Q 2650 3053 2209 3053 
Q 1772 3053 1542 2737 
Q 1313 2422 1313 1825 
z
M 738 2988 
L 184 2988 
L 184 3322 
L 1313 3322 
L 1313 2803 
Q 1481 3116 1742 3264 
Q 2003 3413 2388 3413 
Q 3000 3413 3387 2928 
Q 3775 2444 3775 1663 
Q 3775 881 3387 395 
Q 3000 -91 2388 -91 
Q 2003 -91 1742 57 
Q 1481 206 1313 519 
L 1313 -997 
L 1856 -997 
L 1856 -1331 
L 184 -1331 
L 184 -997 
L 738 -997 
L 738 2988 
z
" transform="scale(0.015625)"/>
       <path id="DejaVuSerif-6c" d="M 1313 331 
L 1856 331 
L 1856 0 
L 184 0 
L 184 331 
L 738 331 
L 738 4531 
L 184 4531 
L 184 4863 
L 1313 4863 
L 1313 331 
z
" transform="scale(0.015625)"/>
       <path id="DejaVuSerif-61" d="M 2547 1044 
L 2547 1747 
L 1806 1747 
Q 1378 1747 1168 1562 
Q 959 1378 959 997 
Q 959 650 1171 447 
Q 1384 244 1747 244 
Q 2106 244 2326 466 
Q 2547 688 2547 1044 
z
M 3122 2075 
L 3122 331 
L 3634 331 
L 3634 0 
L 2547 0 
L 2547 359 
Q 2356 128 2106 18 
Q 1856 -91 1522 -91 
Q 969 -91 644 203 
Q 319 497 319 997 
Q 319 1513 691 1797 
Q 1063 2081 1741 2081 
L 2547 2081 
L 2547 2309 
Q 2547 2688 2317 2895 
Q 2088 3103 1672 3103 
Q 1328 3103 1125 2947 
Q 922 2791 872 2484 
L 575 2484 
L 575 3156 
Q 875 3284 1158 3348 
Q 1441 3413 1709 3413 
Q 2400 3413 2761 3070 
Q 3122 2728 3122 2075 
z
" transform="scale(0.015625)"/>
       <path id="DejaVuSerif-63" d="M 3291 997 
Q 3169 466 2822 187 
Q 2475 -91 1925 -91 
Q 1200 -91 759 389 
Q 319 869 319 1663 
Q 319 2459 759 2936 
Q 1200 3413 1925 3413 
Q 2241 3413 2553 3339 
Q 2866 3266 3181 3116 
L 3181 2266 
L 2847 2266 
Q 2781 2703 2561 2903 
Q 2341 3103 1931 3103 
Q 1466 3103 1228 2742 
Q 991 2381 991 1663 
Q 991 944 1227 581 
Q 1463 219 1931 219 
Q 2303 219 2525 412 
Q 2747 606 2828 997 
L 3291 997 
z
" transform="scale(0.015625)"/>
       <path id="DejaVuSerif-65" d="M 3469 1600 
L 991 1600 
L 991 1575 
Q 991 903 1244 561 
Q 1497 219 1991 219 
Q 2369 219 2611 417 
Q 2853 616 2950 1006 
L 3413 1006 
Q 3275 459 2904 184 
Q 2534 -91 1931 -91 
Q 1203 -91 761 389 
Q 319 869 319 1663 
Q 319 2450 753 2931 
Q 1188 3413 1894 3413 
Q 2647 3413 3050 2948 
Q 3453 2484 3469 1600 
z
M 2791 1931 
Q 2772 2513 2545 2808 
Q 2319 3103 1894 3103 
Q 1497 3103 1269 2806 
Q 1041 2509 991 1931 
L 2791 1931 
z
" transform="scale(0.015625)"/>
       <path id="DejaVuSerif-6d" d="M 3316 2675 
Q 3481 3041 3739 3227 
Q 3997 3413 4341 3413 
Q 4863 3413 5119 3089 
Q 5375 2766 5375 2113 
L 5375 331 
L 5894 331 
L 5894 0 
L 4300 0 
L 4300 331 
L 4800 331 
L 4800 2047 
Q 4800 2556 4650 2772 
Q 4500 2988 4153 2988 
Q 3769 2988 3567 2697 
Q 3366 2406 3366 1850 
L 3366 331 
L 3866 331 
L 3866 0 
L 2291 0 
L 2291 331 
L 2791 331 
L 2791 2069 
Q 2791 2566 2641 2777 
Q 2491 2988 2144 2988 
Q 1759 2988 1557 2697 
Q 1356 2406 1356 1850 
L 1356 331 
L 1856 331 
L 1856 0 
L 263 0 
L 263 331 
L 781 331 
L 781 2994 
L 231 2994 
L 231 3322 
L 1356 3322 
L 1356 2731 
Q 1516 3063 1762 3238 
Q 2009 3413 2322 3413 
Q 2709 3413 2968 3220 
Q 3228 3028 3316 2675 
z
" transform="scale(0.015625)"/>
       <path id="DejaVuSerif-6e" d="M 263 0 
L 263 331 
L 781 331 
L 781 2988 
L 231 2988 
L 231 3322 
L 1356 3322 
L 1356 2731 
Q 1516 3069 1770 3241 
Q 2025 3413 2363 3413 
Q 2913 3413 3172 3097 
Q 3431 2781 3431 2113 
L 3431 331 
L 3944 331 
L 3944 0 
L 2356 0 
L 2356 331 
L 2853 331 
L 2853 1931 
Q 2853 2541 2703 2767 
Q 2553 2994 2175 2994 
Q 1775 2994 1565 2701 
Q 1356 2409 1356 1850 
L 1356 331 
L 1856 331 
L 1856 0 
L 263 0 
z
" transform="scale(0.015625)"/>
       <path id="DejaVuSerif-74" d="M 691 2988 
L 184 2988 
L 184 3322 
L 691 3322 
L 691 4353 
L 1269 4353 
L 1269 3322 
L 2350 3322 
L 2350 2988 
L 1269 2988 
L 1269 878 
Q 1269 456 1350 337 
Q 1431 219 1650 219 
Q 1875 219 1978 351 
Q 2081 484 2088 781 
L 2522 781 
Q 2497 328 2275 118 
Q 2053 -91 1600 -91 
Q 1103 -91 897 129 
Q 691 350 691 878 
L 691 2988 
z
" transform="scale(0.015625)"/>
       <path id="DejaVuSerif-20" transform="scale(0.015625)"/>
       <path id="DejaVuSerif-28" d="M 2041 -997 
Q 1281 -656 893 83 
Q 506 822 506 1931 
Q 506 3044 893 3783 
Q 1281 4522 2041 4863 
L 2041 4556 
Q 1559 4225 1350 3623 
Q 1141 3022 1141 1931 
Q 1141 844 1350 242 
Q 1559 -359 2041 -691 
L 2041 -997 
z
" transform="scale(0.015625)"/>
       <path id="DejaVuSerif-29" d="M 453 -997 
L 453 -691 
Q 934 -359 1145 242 
Q 1356 844 1356 1931 
Q 1356 3022 1145 3623 
Q 934 4225 453 4556 
L 453 4863 
Q 1216 4522 1603 3783 
Q 1991 3044 1991 1931 
Q 1991 822 1603 83 
Q 1216 -656 453 -997 
z
" transform="scale(0.015625)"/>
      </defs>
      <use xlink:href="#DejaVuSerif-44"/>
      <use xlink:href="#DejaVuSerif-69" x="80.175781"/>
      <use xlink:href="#DejaVuSerif-73" x="112.158203"/>
      <use xlink:href="#DejaVuSerif-70" x="163.476562"/>
      <use xlink:href="#DejaVuSerif-6c" x="227.490234"/>
      <use xlink:href="#DejaVuSerif-61" x="259.472656"/>
      <use xlink:href="#DejaVuSerif-63" x="319.091797"/>
      <use xlink:href="#DejaVuSerif-65" x="375.097656"/>
      <use xlink:href="#DejaVuSerif-6d" x="434.277344"/>
      <use xlink:href="#DejaVuSerif-65" x="529.101562"/>
      <use xlink:href="#DejaVuSerif-6e" x="588.28125"/>
      <use xlink:href="#DejaVuSerif-74" x="652.685547"/>
      <use xlink:href="#DejaVuSerif-20" x="692.871094"/>
      <use xlink:href="#DejaVuSerif-28" x="724.658203"/>
      <use xlink:href="#DejaVuSerif-6d" x="763.671875"/>
      <use xlink:href="#DejaVuSerif-29" x="858.496094"/>
     </g>
    </g>
   </g>
   <g id="line2d_50">
    <path d="M 72 170.063078 
L 76.464 162.969574 
L 79.44 158.555212 
L 82.416 154.599632 
L 83.904 152.844058 
L 85.392 151.260531 
L 86.88 149.864872 
L 88.368 148.671028 
L 89.856 147.690926 
L 91.344 146.934359 
L 92.832 146.408886 
L 94.32 146.119758 
L 95.808 146.069864 
L 97.296 146.259703 
L 98.784 146.687376 
L 100.272 147.348612 
L 101.76 148.236804 
L 103.248 149.343076 
L 104.736 150.656376 
L 106.224 152.163581 
L 109.2 155.697683 
L 112.176 159.804487 
L 115.152 164.320269 
L 125.568 180.685095 
L 128.544 184.749777 
L 131.52 188.228948 
L 133.008 189.70455 
L 134.496 190.983902 
L 135.984 192.05422 
L 137.472 192.904809 
L 138.96 193.527172 
L 140.448 193.915089 
L 141.936 194.064684 
L 143.424 193.974464 
L 144.912 193.645329 
L 146.4 193.080567 
L 147.888 192.285823 
L 149.376 191.269036 
L 150.864 190.040367 
L 152.352 188.61209 
L 153.84 186.998479 
L 156.816 183.28143 
L 159.792 179.037407 
L 164.256 172.05751 
L 170.208 162.585011 
L 173.184 158.202653 
L 176.16 154.293134 
L 177.648 152.565307 
L 179.136 151.012312 
L 180.624 149.649666 
L 182.112 148.490984 
L 183.6 147.547844 
L 185.088 146.829668 
L 186.576 146.343632 
L 188.064 146.094594 
L 189.552 146.085041 
L 191.04 146.315068 
L 192.528 146.782378 
L 194.016 147.4823 
L 195.504 148.407843 
L 196.992 149.549757 
L 198.48 150.896634 
L 199.968 152.435015 
L 202.944 156.023048 
L 205.92 160.170813 
L 208.896 164.712951 
L 219.312 181.045517 
L 222.288 185.066929 
L 225.264 188.490185 
L 226.752 189.933768 
L 228.24 191.17881 
L 229.728 192.21287 
L 231.216 193.025617 
L 232.704 193.60893 
L 234.192 193.956981 
L 235.68 194.066291 
L 237.168 193.93577 
L 238.656 193.56672 
L 240.144 192.96283 
L 241.632 192.130133 
L 243.12 191.076949 
L 244.608 189.813802 
L 246.096 188.353312 
L 247.584 186.710072 
L 250.56 182.942678 
L 253.536 178.661816 
L 258 171.655032 
L 263.952 162.202562 
L 266.928 157.853449 
L 269.904 153.991095 
L 271.392 152.291503 
L 272.88 150.76948 
L 274.368 149.440231 
L 275.856 148.31704 
L 277.344 147.411127 
L 278.832 146.731546 
L 280.32 146.285085 
L 281.808 146.076206 
L 283.296 146.106996 
L 284.784 146.377148 
L 286.272 146.883961 
L 287.76 147.622372 
L 289.248 148.585004 
L 290.736 149.762237 
L 292.224 151.14231 
L 293.712 152.711433 
L 296.688 156.352383 
L 299.664 160.539936 
L 304.128 167.476619 
L 310.08 176.97375 
L 313.056 181.402835 
L 316.032 185.379839 
L 319.008 188.746212 
L 320.496 190.157367 
L 321.984 191.367748 
L 323.472 192.365258 
L 324.96 193.139933 
L 326.448 193.684032 
L 327.936 193.992117 
L 329.424 194.061112 
L 330.912 193.890326 
L 332.4 193.481467 
L 333.888 192.838618 
L 335.376 191.968204 
L 336.864 190.878921 
L 338.352 189.581653 
L 339.84 188.089362 
L 342.816 184.581151 
L 345.792 180.494151 
L 348.768 175.991297 
L 359.184 159.612808 
L 362.16 155.528033 
L 365.136 152.022724 
L 366.624 150.532102 
L 368.112 149.236627 
L 369.6 148.149243 
L 371.088 147.280815 
L 372.576 146.64002 
L 374.064 146.23326 
L 375.552 146.0646 
L 377.04 146.135725 
L 378.528 146.445924 
L 380.016 146.992098 
L 381.504 147.768789 
L 382.992 148.768238 
L 384.48 149.980457 
L 385.968 151.393336 
L 387.456 152.992756 
L 390.432 156.685595 
L 393.408 160.911751 
L 397.872 167.878226 
L 403.824 177.359277 
L 406.8 181.756946 
L 409.776 185.688418 
L 411.264 187.429447 
L 412.752 188.996957 
L 414.24 190.375286 
L 415.728 191.550662 
L 417.216 192.511341 
L 418.704 193.247724 
L 420.192 193.752455 
L 421.68 194.020488 
L 423.168 194.049148 
L 424.656 193.838146 
L 426.144 193.389592 
L 427.632 192.707967 
L 429.12 191.800081 
L 430.608 190.675007 
L 432.096 189.343985 
L 433.584 187.820315 
L 436.56 184.257698 
L 439.536 180.129186 
L 442.512 175.59937 
L 452.928 159.25095 
L 455.904 155.208903 
L 458.88 151.759045 
L 460.368 150.300247 
L 461.856 149.038911 
L 463.344 147.987643 
L 464.832 147.156945 
L 466.32 146.555117 
L 467.808 146.188173 
L 469.296 146.059779 
L 470.784 146.171219 
L 472.272 146.521378 
L 473.76 147.106757 
L 475.248 147.921509 
L 476.736 148.957492 
L 478.224 150.204355 
L 479.712 151.64964 
L 481.2 153.278906 
L 484.176 157.022588 
L 487.152 161.286154 
L 491.616 168.280451 
L 497.568 177.74274 
L 500.544 182.107752 
L 503.52 185.99258 
L 505.008 187.705603 
L 506.496 189.242349 
L 507.984 190.587461 
L 509.472 191.727501 
L 510.96 192.651077 
L 512.448 193.348961 
L 513.936 193.81418 
L 515.424 194.042086 
L 516.912 194.030402 
L 518.4 193.779244 
L 518.4 193.779244 
" clip-path="url(#p91b8b36e89)" style="fill: none; stroke-dasharray: 2.59,1.12; stroke-dashoffset: 0; stroke: #000000; stroke-width: 0.7"/>
   </g>
   <g id="line2d_51">
    <path d="M 72 170.063078 
L 77.952 160.557712 
L 80.928 156.139637 
L 83.904 152.191089 
L 85.392 150.446106 
L 86.88 148.879842 
L 88.368 147.509748 
L 89.856 146.351487 
L 91.344 145.418758 
L 92.832 144.723146 
L 94.32 144.273977 
L 95.808 144.078207 
L 97.296 144.140328 
L 98.784 144.462298 
L 100.272 145.043496 
L 101.76 145.880701 
L 103.248 146.968102 
L 104.736 148.297326 
L 106.224 149.857501 
L 107.712 151.635333 
L 110.688 155.779386 
L 113.664 160.579511 
L 116.64 165.856409 
L 127.056 185.050266 
L 130.032 189.831875 
L 131.52 191.973214 
L 133.008 193.916865 
L 134.496 195.641414 
L 135.984 197.127426 
L 137.472 198.357655 
L 138.96 199.31724 
L 140.448 199.993879 
L 141.936 200.377976 
L 143.424 200.462766 
L 144.912 200.244406 
L 146.4 199.72205 
L 147.888 198.897881 
L 149.376 197.777121 
L 150.864 196.368014 
L 152.352 194.681766 
L 153.84 192.732469 
L 155.328 190.536985 
L 158.304 185.48789 
L 161.28 179.718773 
L 164.256 173.446504 
L 173.184 154.091581 
L 176.16 148.323878 
L 179.136 143.311987 
L 180.624 141.158276 
L 182.112 139.272075 
L 183.6 137.674923 
L 185.088 136.385681 
L 186.576 135.42032 
L 188.064 134.791733 
L 189.552 134.509574 
L 191.04 134.580128 
L 192.528 135.006217 
L 194.016 135.787136 
L 195.504 136.918623 
L 196.992 138.39287 
L 198.48 140.198562 
L 199.968 142.320955 
L 201.456 144.741994 
L 202.944 147.440453 
L 205.92 153.570021 
L 208.896 160.484164 
L 213.36 171.746989 
L 219.312 186.88028 
L 222.288 193.811889 
L 225.264 199.930496 
L 226.752 202.601787 
L 228.24 204.974404 
L 229.728 207.021634 
L 231.216 208.71975 
L 232.704 210.048281 
L 234.192 210.990245 
L 235.68 211.532357 
L 237.168 211.665198 
L 238.656 211.383345 
L 240.144 210.685472 
L 241.632 209.574396 
L 243.12 208.057096 
L 244.608 206.144682 
L 246.096 203.852329 
L 247.584 201.199159 
L 249.072 198.208097 
L 250.56 194.905674 
L 253.536 187.489502 
L 256.512 179.225465 
L 260.976 165.935226 
L 265.44 152.615028 
L 268.416 144.313469 
L 271.392 136.877609 
L 272.88 133.584389 
L 274.368 130.623025 
L 275.856 128.026447 
L 277.344 125.824269 
L 278.832 124.042458 
L 280.32 122.703036 
L 281.808 121.823819 
L 283.296 121.418203 
L 284.784 121.494979 
L 286.272 122.058204 
L 287.76 123.10711 
L 289.248 124.636065 
L 290.736 126.634579 
L 292.224 129.087364 
L 293.712 131.974434 
L 295.2 135.27126 
L 296.688 138.948973 
L 299.664 147.311377 
L 302.64 156.754208 
L 307.104 172.153152 
L 313.056 192.8736 
L 316.032 202.37743 
L 319.008 210.776482 
L 320.496 214.447681 
L 321.984 217.711747 
L 323.472 220.531966 
L 324.96 222.875699 
L 326.448 224.714743 
L 327.936 226.025661 
L 329.424 226.790062 
L 330.912 226.994837 
L 332.4 226.632343 
L 333.888 225.70053 
L 335.376 224.203025 
L 336.864 222.149146 
L 338.352 219.553867 
L 339.84 216.437728 
L 341.328 212.82668 
L 342.816 208.751886 
L 344.304 204.249456 
L 347.28 194.128957 
L 350.256 182.839993 
L 354.72 164.665502 
L 359.184 146.427713 
L 362.16 135.048564 
L 365.136 124.844776 
L 366.624 120.320869 
L 368.112 116.249146 
L 369.6 112.674844 
L 371.088 109.638682 
L 372.576 107.176402 
L 374.064 105.318367 
L 375.552 104.089197 
L 377.04 103.507475 
L 378.528 103.585492 
L 380.016 104.329065 
L 381.504 105.737414 
L 382.992 107.803103 
L 384.48 110.512048 
L 385.968 113.843593 
L 387.456 117.770649 
L 388.944 122.259899 
L 390.432 127.272074 
L 391.92 132.76228 
L 394.896 144.971521 
L 397.872 158.432339 
L 408.288 207.66982 
L 411.264 220.014674 
L 412.752 225.559395 
L 414.24 230.6046 
L 415.728 235.094842 
L 417.216 238.979669 
L 418.704 242.214178 
L 420.192 244.759521 
L 421.68 246.583353 
L 423.168 247.660221 
L 424.656 247.971886 
L 426.144 247.507579 
L 427.632 246.264185 
L 429.12 244.246345 
L 430.608 241.466495 
L 432.096 237.944811 
L 433.584 233.709094 
L 435.072 228.794559 
L 436.56 223.243564 
L 438.048 217.105254 
L 441.024 203.294603 
L 444 187.873774 
L 448.464 163.020453 
L 452.928 138.050007 
L 455.904 122.452643 
L 458.88 108.45095 
L 460.368 102.236649 
L 461.856 96.638469 
L 463.344 91.718554 
L 464.832 87.532885 
L 466.32 84.130661 
L 467.808 81.553739 
L 469.296 79.836141 
L 470.784 79.003636 
L 472.272 79.073401 
L 473.76 80.05376 
L 475.248 81.944016 
L 476.736 84.734366 
L 478.224 88.405906 
L 479.712 92.930732 
L 481.2 98.272131 
L 482.688 104.384853 
L 484.176 111.215485 
L 485.664 118.702899 
L 488.64 135.36828 
L 491.616 153.759897 
L 502.032 221.15977 
L 505.008 238.094149 
L 506.496 245.707661 
L 507.984 252.640863 
L 509.472 258.817619 
L 510.96 264.168597 
L 512.448 268.632029 
L 513.936 272.154407 
L 515.424 274.691095 
L 516.912 276.206869 
L 518.4 276.676364 
L 518.4 276.676364 
" clip-path="url(#p91b8b36e89)" style="fill: none; stroke: #1f77b4; stroke-width: 0.7; stroke-linecap: square"/>
   </g>
   <g id="line2d_52">
    <path d="M 72 170.063078 
L 77.952 160.629303 
L 80.928 156.315178 
L 83.16 153.403282 
L 85.392 150.844651 
L 87.624 148.699558 
L 89.112 147.525031 
L 90.6 146.570146 
L 92.088 145.845556 
L 93.576 145.359665 
L 95.064 145.118531 
L 96.552 145.125791 
L 98.04 145.382616 
L 99.528 145.887685 
L 101.016 146.637188 
L 102.504 147.624848 
L 103.992 148.841976 
L 105.48 150.27754 
L 107.712 152.810842 
L 109.944 155.75169 
L 112.176 159.036925 
L 115.152 163.828565 
L 120.36 172.809673 
L 124.824 180.408427 
L 127.8 185.061611 
L 130.032 188.197884 
L 132.264 190.949365 
L 134.496 193.2512 
L 135.984 194.508249 
L 137.472 195.526986 
L 138.96 196.296025 
L 140.448 196.806421 
L 141.936 197.051772 
L 143.424 197.028295 
L 144.912 196.73488 
L 146.4 196.173111 
L 147.888 195.347266 
L 149.376 194.264288 
L 150.864 192.933724 
L 152.352 191.367649 
L 154.584 188.609284 
L 156.816 185.412542 
L 159.048 181.846113 
L 162.024 176.650879 
L 167.232 166.929739 
L 171.696 158.720512 
L 174.672 153.701836 
L 176.904 150.324075 
L 179.136 147.365415 
L 180.624 145.660682 
L 182.112 144.191591 
L 183.6 142.974022 
L 185.088 142.021418 
L 186.576 141.344636 
L 188.064 140.95183 
L 189.552 140.848352 
L 191.04 141.036686 
L 192.528 141.516408 
L 194.016 142.284176 
L 195.504 143.333751 
L 196.992 144.656041 
L 198.48 146.23918 
L 199.968 148.068632 
L 202.2 151.236645 
L 204.432 154.852426 
L 207.408 160.233764 
L 211.128 167.563142 
L 218.568 182.496379 
L 221.544 187.909025 
L 223.776 191.546672 
L 226.008 194.727885 
L 227.496 196.557598 
L 228.984 198.13136 
L 230.472 199.432142 
L 231.96 200.445562 
L 233.448 201.16004 
L 234.936 201.566932 
L 236.424 201.660625 
L 237.912 201.438614 
L 239.4 200.90154 
L 240.888 200.053201 
L 242.376 198.900525 
L 243.864 197.453524 
L 245.352 195.725204 
L 246.84 193.731449 
L 249.072 190.284569 
L 251.304 186.356409 
L 254.28 180.518256 
L 258 172.578412 
L 265.44 156.436934 
L 268.416 150.599644 
L 270.648 146.682328 
L 272.88 143.262063 
L 274.368 141.298398 
L 275.856 139.61273 
L 277.344 138.223316 
L 278.832 137.145543 
L 280.32 136.391756 
L 281.808 135.971118 
L 283.296 135.889508 
L 284.784 136.149438 
L 286.272 136.750018 
L 287.76 137.686943 
L 289.248 138.952522 
L 290.736 140.535738 
L 292.224 142.422337 
L 293.712 144.594961 
L 295.944 148.34501 
L 298.176 152.612318 
L 301.152 158.945802 
L 304.872 167.546655 
L 312.312 184.993536 
L 315.288 191.288511 
L 317.52 195.506768 
L 319.752 199.183781 
L 321.24 201.290997 
L 322.728 203.096289 
L 324.216 204.580079 
L 325.704 205.725912 
L 327.192 206.52063 
L 328.68 206.954523 
L 330.168 207.021443 
L 331.656 206.718884 
L 333.144 206.048023 
L 334.632 205.013729 
L 336.12 203.624532 
L 337.608 201.892556 
L 339.096 199.833416 
L 340.584 197.466078 
L 342.816 193.386461 
L 345.048 188.750957 
L 348.024 181.880399 
L 351.744 172.563834 
L 359.184 153.706627 
L 362.16 146.918375 
L 364.392 142.37631 
L 366.624 138.423565 
L 368.112 136.162529 
L 369.6 134.22939 
L 371.088 132.645135 
L 372.576 131.427362 
L 374.064 130.59009 
L 375.552 130.143604 
L 377.04 130.094327 
L 378.528 130.444741 
L 380.016 131.193339 
L 381.504 132.334626 
L 382.992 133.859147 
L 384.48 135.753565 
L 385.968 138.000777 
L 387.456 140.580062 
L 389.688 145.017925 
L 391.92 150.053141 
L 394.896 157.506013 
L 398.616 167.597492 
L 405.312 186.036523 
L 408.288 193.544832 
L 410.52 198.624407 
L 412.752 203.099008 
L 414.24 205.693372 
L 415.728 207.944199 
L 417.216 209.827247 
L 418.704 211.321831 
L 420.192 212.411052 
L 421.68 213.081981 
L 423.168 213.325812 
L 424.656 213.137965 
L 426.144 212.51816 
L 427.632 211.470436 
L 429.12 210.003134 
L 430.608 208.128837 
L 432.096 205.86426 
L 433.584 203.230111 
L 435.072 200.250898 
L 437.304 195.197426 
L 439.536 189.539964 
L 442.512 181.271237 
L 446.976 167.979202 
L 452.184 152.539752 
L 455.16 144.440786 
L 457.392 138.969331 
L 459.624 134.156929 
L 461.112 131.37142 
L 462.6 128.959124 
L 464.088 126.946048 
L 465.576 125.354333 
L 467.064 124.202017 
L 468.552 123.502829 
L 469.296 123.326232 
L 470.04 123.266035 
L 470.784 123.32268 
L 471.528 123.496318 
L 473.016 124.193713 
L 474.504 125.353579 
L 475.992 126.966626 
L 477.48 129.018982 
L 478.968 131.492311 
L 480.456 134.36397 
L 481.944 137.60722 
L 484.176 143.100922 
L 486.408 149.243084 
L 489.384 158.208841 
L 493.848 172.599031 
L 499.056 189.282342 
L 502.032 198.018062 
L 504.264 203.911321 
L 506.496 209.08667 
L 507.984 212.077134 
L 509.472 214.662166 
L 510.96 216.81387 
L 512.448 218.508545 
L 513.936 219.726947 
L 515.424 220.4545 
L 516.168 220.630972 
L 516.912 220.681466 
L 517.656 220.60554 
L 518.4 220.403068 
L 518.4 220.403068 
" clip-path="url(#p91b8b36e89)" style="fill: none; stroke: #ff7f0e; stroke-width: 0.7; stroke-linecap: square"/>
   </g>
   <g id="line2d_53">
    <path d="M 72 170.063078 
L 77.6544 161.143059 
L 80.6304 156.870801 
L 83.0112 153.818288 
L 85.0944 151.48156 
L 87.0288 149.63372 
L 88.8144 148.231457 
L 90.4512 147.220141 
L 91.9392 146.539262 
L 93.4272 146.092851 
L 94.9152 145.885607 
L 96.4032 145.919838 
L 97.8912 146.195446 
L 99.3792 146.709917 
L 100.8672 147.458346 
L 102.504 148.543123 
L 104.1408 149.889354 
L 105.9264 151.637285 
L 108.0096 154.012364 
L 110.2416 156.908199 
L 112.92 160.773006 
L 116.3424 166.140796 
L 125.7168 181.094558 
L 128.3952 184.83403 
L 130.6272 187.595228 
L 132.7104 189.821729 
L 134.496 191.42618 
L 136.1328 192.629044 
L 137.7696 193.56032 
L 139.2576 194.161466 
L 140.7456 194.52232 
L 142.2336 194.639033 
L 143.7216 194.510197 
L 145.2096 194.136852 
L 146.6976 193.522485 
L 148.1856 192.672999 
L 149.8224 191.476921 
L 151.608 189.875819 
L 153.5424 187.818186 
L 155.6256 185.265076 
L 158.0064 181.981532 
L 160.8336 177.687059 
L 164.8512 171.137338 
L 171.2496 160.706055 
L 174.2256 156.312379 
L 176.6064 153.178393 
L 178.6896 150.783627 
L 180.624 148.894038 
L 182.4096 147.464263 
L 184.0464 146.43739 
L 185.5344 145.750565 
L 187.0224 145.306086 
L 188.5104 145.10864 
L 189.8496 145.144038 
L 191.1888 145.381259 
L 192.6768 145.879372 
L 194.1648 146.61973 
L 195.8016 147.705302 
L 197.4384 149.062462 
L 199.224 150.833727 
L 201.1584 153.066386 
L 203.3904 156.000156 
L 205.92 159.708654 
L 209.1936 164.944145 
L 220.056 182.705167 
L 222.5856 186.230071 
L 224.8176 188.960911 
L 226.752 190.989408 
L 228.5376 192.551258 
L 230.1744 193.700785 
L 231.6624 194.499143 
L 233.1504 195.054031 
L 234.6384 195.359659 
L 235.9776 195.418823 
L 237.3168 195.272713 
L 238.8048 194.870886 
L 240.2928 194.220672 
L 241.7808 193.328323 
L 243.4176 192.077498 
L 245.2032 190.408346 
L 247.1376 188.268283 
L 249.2208 185.617826 
L 251.6016 182.214521 
L 254.4288 177.770105 
L 258.5952 170.74762 
L 264.696 160.488171 
L 267.672 155.946334 
L 270.0528 152.703855 
L 272.136 150.223879 
L 274.0704 148.26484 
L 275.856 146.780284 
L 277.4928 145.711767 
L 278.9808 144.994647 
L 280.4688 144.5274 
L 281.808 144.324639 
L 283.1472 144.330121 
L 284.4864 144.543989 
L 285.9744 145.024089 
L 287.4624 145.754965 
L 288.9504 146.729562 
L 290.5872 148.07171 
L 292.3728 149.840248 
L 294.3072 152.086079 
L 296.3904 154.846234 
L 298.7712 158.366876 
L 301.7472 163.184826 
L 306.5088 171.400307 
L 311.4192 179.748524 
L 314.3952 184.366279 
L 316.776 187.664382 
L 318.8592 190.188071 
L 320.7936 192.182761 
L 322.5792 193.695461 
L 324.216 194.785396 
L 325.704 195.51812 
L 327.192 195.997121 
L 328.5312 196.20707 
L 329.8704 196.205498 
L 331.2096 195.992227 
L 332.5488 195.568794 
L 334.0368 194.855824 
L 335.5248 193.894306 
L 337.1616 192.56081 
L 338.9472 190.794736 
L 340.8816 188.543315 
L 342.9648 185.767634 
L 345.3456 182.217554 
L 348.3216 177.346379 
L 352.7856 169.540422 
L 358.1424 160.266021 
L 361.1184 155.571095 
L 363.4992 152.21643 
L 365.5824 149.648273 
L 367.5168 147.6173 
L 369.3024 146.07594 
L 370.9392 144.96418 
L 372.4272 144.215541 
L 373.9152 143.724531 
L 375.2544 143.507219 
L 376.5936 143.504757 
L 377.9328 143.717357 
L 379.272 144.143493 
L 380.76 144.863397 
L 382.248 145.835925 
L 383.8848 147.186109 
L 385.6704 148.975632 
L 387.6048 151.258254 
L 389.688 154.073695 
L 392.0688 157.676061 
L 395.0448 162.620901 
L 399.5088 170.548531 
L 404.8656 179.972824 
L 407.8416 184.746193 
L 410.2224 188.158375 
L 412.3056 190.771768 
L 414.24 192.839667 
L 416.0256 194.410209 
L 417.6624 195.544209 
L 419.1504 196.309082 
L 420.6384 196.812359 
L 421.9776 197.037214 
L 423.3168 197.043839 
L 424.656 196.831984 
L 425.9952 196.403168 
L 427.4832 195.67629 
L 428.9712 194.692649 
L 430.608 193.325585 
L 432.3936 191.512318 
L 434.328 189.198078 
L 436.4112 186.342323 
L 438.792 182.686915 
L 441.6192 177.92746 
L 445.9344 170.160483 
L 451.5888 160.039557 
L 454.5648 155.186453 
L 456.9456 151.715783 
L 459.0288 149.056374 
L 460.9632 146.950895 
L 462.7488 145.350637 
L 464.3856 144.193975 
L 465.8736 143.412545 
L 467.3616 142.896737 
L 468.7008 142.664156 
L 470.04 142.653237 
L 471.3792 142.864269 
L 472.7184 143.295742 
L 474.2064 144.029632 
L 475.6944 145.024492 
L 477.3312 146.408627 
L 478.968 148.080361 
L 480.7536 150.208603 
L 482.8368 153.05354 
L 485.2176 156.714077 
L 488.0448 161.503672 
L 492.0624 168.812014 
L 498.4608 180.459244 
L 501.288 185.135616 
L 503.6688 188.66576 
L 505.752 191.371979 
L 507.6864 193.515704 
L 509.3232 195.02376 
L 510.96 196.231602 
L 512.448 197.056483 
L 513.7872 197.569061 
L 515.1264 197.859362 
L 516.4656 197.924835 
L 517.8048 197.764746 
L 518.4 197.621413 
L 518.4 197.621413 
" clip-path="url(#p91b8b36e89)" style="fill: none; stroke: #2ca02c; stroke-width: 0.7; stroke-linecap: square"/>
   </g>
   <g id="patch_3">
    <path d="M 72 286.56 
L 72 69.12 
" style="fill: none; stroke: #000000; stroke-width: 0.8; stroke-linejoin: miter; stroke-linecap: square"/>
   </g>
   <g id="patch_4">
    <path d="M 518.4 286.56 
L 518.4 69.12 
" style="fill: none; stroke: #000000; stroke-width: 0.8; stroke-linejoin: miter; stroke-linecap: square"/>
   </g>
   <g id="patch_5">
    <path d="M 72 286.56 
L 518.4 286.56 
" style="fill: none; stroke: #000000; stroke-width: 0.8; stroke-linejoin: miter; stroke-linecap: square"/>
   </g>
   <g id="patch_6">
    <path d="M 72 69.12 
L 518.4 69.12 
" style="fill: none; stroke: #000000; stroke-width: 0.8; stroke-linejoin: miter; stroke-linecap: square"/>
   </g>
  </g>
  <g id="axes_2">
   <g id="patch_7">
    <path d="M 72 504 
L 518.4 504 
L 518.4 286.56 
L 72 286.56 
z
" style="fill: #ffffff"/>
   </g>
   <g id="matplotlib.axis_3">
    <g id="xtick_32">
     <g id="line2d_54">
      <g>
       <use xlink:href="#mfce839bd6a" x="72" y="504" style="stroke: #000000; stroke-width: 0.8"/>
      </g>
     </g>
     <g id="text_7">
      <!-- 0 -->
      <g transform="translate(68.81875 515.098438) scale(0.1 -0.1)">
       <use xlink:href="#DejaVuSans-30"/>
      </g>
     </g>
    </g>
    <g id="xtick_33">
     <g id="line2d_55">
      <g>
       <use xlink:href="#mfce839bd6a" x="146.4" y="504" style="stroke: #000000; stroke-width: 0.8"/>
      </g>
     </g>
     <g id="text_8">
      <!-- 5 -->
      <g transform="translate(143.21875 515.098438) scale(0.1 -0.1)">
       <defs>
        <path id="DejaVuSans-35" d="M 691 4666 
L 3169 4666 
L 3169 4134 
L 1269 4134 
L 1269 2991 
Q 1406 3038 1543 3061 
Q 1681 3084 1819 3084 
Q 2600 3084 3056 2656 
Q 3513 2228 3513 1497 
Q 3513 744 3044 326 
Q 2575 -91 1722 -91 
Q 1428 -91 1123 -41 
Q 819 9 494 109 
L 494 744 
Q 775 591 1075 516 
Q 1375 441 1709 441 
Q 2250 441 2565 725 
Q 2881 1009 2881 1497 
Q 2881 1984 2565 2268 
Q 2250 2553 1709 2553 
Q 1456 2553 1204 2497 
Q 953 2441 691 2322 
L 691 4666 
z
" transform="scale(0.015625)"/>
       </defs>
       <use xlink:href="#DejaVuSans-35"/>
      </g>
     </g>
    </g>
    <g id="xtick_34">
     <g id="line2d_56">
      <g>
       <use xlink:href="#mfce839bd6a" x="220.8" y="504" style="stroke: #000000; stroke-width: 0.8"/>
      </g>
     </g>
     <g id="text_9">
      <!-- 10 -->
      <g transform="translate(214.4375 515.098438) scale(0.1 -0.1)">
       <defs>
        <path id="DejaVuSans-31" d="M 794 531 
L 1825 531 
L 1825 4091 
L 703 3866 
L 703 4441 
L 1819 4666 
L 2450 4666 
L 2450 531 
L 3481 531 
L 3481 0 
L 794 0 
L 794 531 
z
" transform="scale(0.015625)"/>
       </defs>
       <use xlink:href="#DejaVuSans-31"/>
       <use xlink:href="#DejaVuSans-30" x="63.623047"/>
      </g>
     </g>
    </g>
    <g id="xtick_35">
     <g id="line2d_57">
      <g>
       <use xlink:href="#mfce839bd6a" x="295.2" y="504" style="stroke: #000000; stroke-width: 0.8"/>
      </g>
     </g>
     <g id="text_10">
      <!-- 15 -->
      <g transform="translate(288.8375 515.098438) scale(0.1 -0.1)">
       <use xlink:href="#DejaVuSans-31"/>
       <use xlink:href="#DejaVuSans-35" x="63.623047"/>
      </g>
     </g>
    </g>
    <g id="xtick_36">
     <g id="line2d_58">
      <g>
       <use xlink:href="#mfce839bd6a" x="369.6" y="504" style="stroke: #000000; stroke-width: 0.8"/>
      </g>
     </g>
     <g id="text_11">
      <!-- 20 -->
      <g transform="translate(363.2375 515.098438) scale(0.1 -0.1)">
       <use xlink:href="#DejaVuSans-32"/>
       <use xlink:href="#DejaVuSans-30" x="63.623047"/>
      </g>
     </g>
    </g>
    <g id="xtick_37">
     <g id="line2d_59">
      <g>
       <use xlink:href="#mfce839bd6a" x="444" y="504" style="stroke: #000000; stroke-width: 0.8"/>
      </g>
     </g>
     <g id="text_12">
      <!-- 25 -->
      <g transform="translate(437.6375 515.098438) scale(0.1 -0.1)">
       <use xlink:href="#DejaVuSans-32"/>
       <use xlink:href="#DejaVuSans-35" x="63.623047"/>
      </g>
     </g>
    </g>
    <g id="xtick_38">
     <g id="line2d_60">
      <g>
       <use xlink:href="#mfce839bd6a" x="518.4" y="504" style="stroke: #000000; stroke-width: 0.8"/>
      </g>
     </g>
     <g id="text_13">
      <!-- 30 -->
      <g transform="translate(512.0375 515.098438) scale(0.1 -0.1)">
       <defs>
        <path id="DejaVuSans-33" d="M 2597 2516 
Q 3050 2419 3304 2112 
Q 3559 1806 3559 1356 
Q 3559 666 3084 287 
Q 2609 -91 1734 -91 
Q 1441 -91 1130 -33 
Q 819 25 488 141 
L 488 750 
Q 750 597 1062 519 
Q 1375 441 1716 441 
Q 2309 441 2620 675 
Q 2931 909 2931 1356 
Q 2931 1769 2642 2001 
Q 2353 2234 1838 2234 
L 1294 2234 
L 1294 2753 
L 1863 2753 
Q 2328 2753 2575 2939 
Q 2822 3125 2822 3475 
Q 2822 3834 2567 4026 
Q 2313 4219 1838 4219 
Q 1578 4219 1281 4162 
Q 984 4106 628 3988 
L 628 4550 
Q 988 4650 1302 4700 
Q 1616 4750 1894 4750 
Q 2613 4750 3031 4423 
Q 3450 4097 3450 3541 
Q 3450 3153 3228 2886 
Q 3006 2619 2597 2516 
z
" transform="scale(0.015625)"/>
       </defs>
       <use xlink:href="#DejaVuSans-33"/>
       <use xlink:href="#DejaVuSans-30" x="63.623047"/>
      </g>
     </g>
    </g>
    <g id="xtick_39">
     <g id="line2d_61">
      <g>
       <use xlink:href="#m4fbe12c5f2" x="86.88" y="504" style="stroke: #000000; stroke-width: 0.6"/>
      </g>
     </g>
    </g>
    <g id="xtick_40">
     <g id="line2d_62">
      <g>
       <use xlink:href="#m4fbe12c5f2" x="101.76" y="504" style="stroke: #000000; stroke-width: 0.6"/>
      </g>
     </g>
    </g>
    <g id="xtick_41">
     <g id="line2d_63">
      <g>
       <use xlink:href="#m4fbe12c5f2" x="116.64" y="504" style="stroke: #000000; stroke-width: 0.6"/>
      </g>
     </g>
    </g>
    <g id="xtick_42">
     <g id="line2d_64">
      <g>
       <use xlink:href="#m4fbe12c5f2" x="131.52" y="504" style="stroke: #000000; stroke-width: 0.6"/>
      </g>
     </g>
    </g>
    <g id="xtick_43">
     <g id="line2d_65">
      <g>
       <use xlink:href="#m4fbe12c5f2" x="161.28" y="504" style="stroke: #000000; stroke-width: 0.6"/>
      </g>
     </g>
    </g>
    <g id="xtick_44">
     <g id="line2d_66">
      <g>
       <use xlink:href="#m4fbe12c5f2" x="176.16" y="504" style="stroke: #000000; stroke-width: 0.6"/>
      </g>
     </g>
    </g>
    <g id="xtick_45">
     <g id="line2d_67">
      <g>
       <use xlink:href="#m4fbe12c5f2" x="191.04" y="504" style="stroke: #000000; stroke-width: 0.6"/>
      </g>
     </g>
    </g>
    <g id="xtick_46">
     <g id="line2d_68">
      <g>
       <use xlink:href="#m4fbe12c5f2" x="205.92" y="504" style="stroke: #000000; stroke-width: 0.6"/>
      </g>
     </g>
    </g>
    <g id="xtick_47">
     <g id="line2d_69">
      <g>
       <use xlink:href="#m4fbe12c5f2" x="235.68" y="504" style="stroke: #000000; stroke-width: 0.6"/>
      </g>
     </g>
    </g>
    <g id="xtick_48">
     <g id="line2d_70">
      <g>
       <use xlink:href="#m4fbe12c5f2" x="250.56" y="504" style="stroke: #000000; stroke-width: 0.6"/>
      </g>
     </g>
    </g>
    <g id="xtick_49">
     <g id="line2d_71">
      <g>
       <use xlink:href="#m4fbe12c5f2" x="265.44" y="504" style="stroke: #000000; stroke-width: 0.6"/>
      </g>
     </g>
    </g>
    <g id="xtick_50">
     <g id="line2d_72">
      <g>
       <use xlink:href="#m4fbe12c5f2" x="280.32" y="504" style="stroke: #000000; stroke-width: 0.6"/>
      </g>
     </g>
    </g>
    <g id="xtick_51">
     <g id="line2d_73">
      <g>
       <use xlink:href="#m4fbe12c5f2" x="310.08" y="504" style="stroke: #000000; stroke-width: 0.6"/>
      </g>
     </g>
    </g>
    <g id="xtick_52">
     <g id="line2d_74">
      <g>
       <use xlink:href="#m4fbe12c5f2" x="324.96" y="504" style="stroke: #000000; stroke-width: 0.6"/>
      </g>
     </g>
    </g>
    <g id="xtick_53">
     <g id="line2d_75">
      <g>
       <use xlink:href="#m4fbe12c5f2" x="339.84" y="504" style="stroke: #000000; stroke-width: 0.6"/>
      </g>
     </g>
    </g>
    <g id="xtick_54">
     <g id="line2d_76">
      <g>
       <use xlink:href="#m4fbe12c5f2" x="354.72" y="504" style="stroke: #000000; stroke-width: 0.6"/>
      </g>
     </g>
    </g>
    <g id="xtick_55">
     <g id="line2d_77">
      <g>
       <use xlink:href="#m4fbe12c5f2" x="384.48" y="504" style="stroke: #000000; stroke-width: 0.6"/>
      </g>
     </g>
    </g>
    <g id="xtick_56">
     <g id="line2d_78">
      <g>
       <use xlink:href="#m4fbe12c5f2" x="399.36" y="504" style="stroke: #000000; stroke-width: 0.6"/>
      </g>
     </g>
    </g>
    <g id="xtick_57">
     <g id="line2d_79">
      <g>
       <use xlink:href="#m4fbe12c5f2" x="414.24" y="504" style="stroke: #000000; stroke-width: 0.6"/>
      </g>
     </g>
    </g>
    <g id="xtick_58">
     <g id="line2d_80">
      <g>
       <use xlink:href="#m4fbe12c5f2" x="429.12" y="504" style="stroke: #000000; stroke-width: 0.6"/>
      </g>
     </g>
    </g>
    <g id="xtick_59">
     <g id="line2d_81">
      <g>
       <use xlink:href="#m4fbe12c5f2" x="458.88" y="504" style="stroke: #000000; stroke-width: 0.6"/>
      </g>
     </g>
    </g>
    <g id="xtick_60">
     <g id="line2d_82">
      <g>
       <use xlink:href="#m4fbe12c5f2" x="473.76" y="504" style="stroke: #000000; stroke-width: 0.6"/>
      </g>
     </g>
    </g>
    <g id="xtick_61">
     <g id="line2d_83">
      <g>
       <use xlink:href="#m4fbe12c5f2" x="488.64" y="504" style="stroke: #000000; stroke-width: 0.6"/>
      </g>
     </g>
    </g>
    <g id="xtick_62">
     <g id="line2d_84">
      <g>
       <use xlink:href="#m4fbe12c5f2" x="503.52" y="504" style="stroke: #000000; stroke-width: 0.6"/>
      </g>
     </g>
    </g>
    <g id="text_14">
     <!-- Time (s) -->
     <g transform="translate(274.508594 528.776562) scale(0.1 -0.1)">
      <defs>
       <path id="DejaVuSerif-54" d="M 1222 0 
L 1222 331 
L 1819 331 
L 1819 4294 
L 447 4294 
L 447 3566 
L 63 3566 
L 63 4666 
L 4206 4666 
L 4206 3566 
L 3822 3566 
L 3822 4294 
L 2450 4294 
L 2450 331 
L 3047 331 
L 3047 0 
L 1222 0 
z
" transform="scale(0.015625)"/>
      </defs>
      <use xlink:href="#DejaVuSerif-54"/>
      <use xlink:href="#DejaVuSerif-69" x="66.699219"/>
      <use xlink:href="#DejaVuSerif-6d" x="98.681641"/>
      <use xlink:href="#DejaVuSerif-65" x="193.505859"/>
      <use xlink:href="#DejaVuSerif-20" x="252.685547"/>
      <use xlink:href="#DejaVuSerif-28" x="284.472656"/>
      <use xlink:href="#DejaVuSerif-73" x="323.486328"/>
      <use xlink:href="#DejaVuSerif-29" x="374.804688"/>
     </g>
    </g>
   </g>
   <g id="matplotlib.axis_4">
    <g id="ytick_19">
     <g id="line2d_85">
      <g>
       <use xlink:href="#macf4f42241" x="72" y="500.114936" style="stroke: #000000; stroke-width: 0.8"/>
      </g>
     </g>
     <g id="text_15">
      <!-- −3 -->
      <g transform="translate(53.757812 503.914155) scale(0.1 -0.1)">
       <use xlink:href="#DejaVuSans-2212"/>
       <use xlink:href="#DejaVuSans-33" x="83.789062"/>
      </g>
     </g>
    </g>
    <g id="ytick_20">
     <g id="line2d_86">
      <g>
       <use xlink:href="#macf4f42241" x="72" y="468.555362" style="stroke: #000000; stroke-width: 0.8"/>
      </g>
     </g>
     <g id="text_16">
      <!-- −2 -->
      <g transform="translate(53.757812 472.354581) scale(0.1 -0.1)">
       <use xlink:href="#DejaVuSans-2212"/>
       <use xlink:href="#DejaVuSans-32" x="83.789062"/>
      </g>
     </g>
    </g>
    <g id="ytick_21">
     <g id="line2d_87">
      <g>
       <use xlink:href="#macf4f42241" x="72" y="436.995789" style="stroke: #000000; stroke-width: 0.8"/>
      </g>
     </g>
     <g id="text_17">
      <!-- −1 -->
      <g transform="translate(53.757812 440.795007) scale(0.1 -0.1)">
       <use xlink:href="#DejaVuSans-2212"/>
       <use xlink:href="#DejaVuSans-31" x="83.789062"/>
      </g>
     </g>
    </g>
    <g id="ytick_22">
     <g id="line2d_88">
      <g>
       <use xlink:href="#macf4f42241" x="72" y="405.436215" style="stroke: #000000; stroke-width: 0.8"/>
      </g>
     </g>
     <g id="text_18">
      <!-- 0 -->
      <g transform="translate(62.1375 409.235434) scale(0.1 -0.1)">
       <use xlink:href="#DejaVuSans-30"/>
      </g>
     </g>
    </g>
    <g id="ytick_23">
     <g id="line2d_89">
      <g>
       <use xlink:href="#macf4f42241" x="72" y="373.876641" style="stroke: #000000; stroke-width: 0.8"/>
      </g>
     </g>
     <g id="text_19">
      <!-- 1 -->
      <g transform="translate(62.1375 377.67586) scale(0.1 -0.1)">
       <use xlink:href="#DejaVuSans-31"/>
      </g>
     </g>
    </g>
    <g id="ytick_24">
     <g id="line2d_90">
      <g>
       <use xlink:href="#macf4f42241" x="72" y="342.317068" style="stroke: #000000; stroke-width: 0.8"/>
      </g>
     </g>
     <g id="text_20">
      <!-- 2 -->
      <g transform="translate(62.1375 346.116286) scale(0.1 -0.1)">
       <use xlink:href="#DejaVuSans-32"/>
      </g>
     </g>
    </g>
    <g id="ytick_25">
     <g id="line2d_91">
      <g>
       <use xlink:href="#macf4f42241" x="72" y="310.757494" style="stroke: #000000; stroke-width: 0.8"/>
      </g>
     </g>
     <g id="text_21">
      <!-- 3 -->
      <g transform="translate(62.1375 314.556713) scale(0.1 -0.1)">
       <use xlink:href="#DejaVuSans-33"/>
      </g>
     </g>
    </g>
    <g id="ytick_26">
     <g id="line2d_92">
      <g>
       <use xlink:href="#md2b42ac583" x="72" y="493.803021" style="stroke: #000000; stroke-width: 0.6"/>
      </g>
     </g>
    </g>
    <g id="ytick_27">
     <g id="line2d_93">
      <g>
       <use xlink:href="#md2b42ac583" x="72" y="487.491107" style="stroke: #000000; stroke-width: 0.6"/>
      </g>
     </g>
    </g>
    <g id="ytick_28">
     <g id="line2d_94">
      <g>
       <use xlink:href="#md2b42ac583" x="72" y="481.179192" style="stroke: #000000; stroke-width: 0.6"/>
      </g>
     </g>
    </g>
    <g id="ytick_29">
     <g id="line2d_95">
      <g>
       <use xlink:href="#md2b42ac583" x="72" y="474.867277" style="stroke: #000000; stroke-width: 0.6"/>
      </g>
     </g>
    </g>
    <g id="ytick_30">
     <g id="line2d_96">
      <g>
       <use xlink:href="#md2b42ac583" x="72" y="462.243448" style="stroke: #000000; stroke-width: 0.6"/>
      </g>
     </g>
    </g>
    <g id="ytick_31">
     <g id="line2d_97">
      <g>
       <use xlink:href="#md2b42ac583" x="72" y="455.931533" style="stroke: #000000; stroke-width: 0.6"/>
      </g>
     </g>
    </g>
    <g id="ytick_32">
     <g id="line2d_98">
      <g>
       <use xlink:href="#md2b42ac583" x="72" y="449.619618" style="stroke: #000000; stroke-width: 0.6"/>
      </g>
     </g>
    </g>
    <g id="ytick_33">
     <g id="line2d_99">
      <g>
       <use xlink:href="#md2b42ac583" x="72" y="443.307703" style="stroke: #000000; stroke-width: 0.6"/>
      </g>
     </g>
    </g>
    <g id="ytick_34">
     <g id="line2d_100">
      <g>
       <use xlink:href="#md2b42ac583" x="72" y="430.683874" style="stroke: #000000; stroke-width: 0.6"/>
      </g>
     </g>
    </g>
    <g id="ytick_35">
     <g id="line2d_101">
      <g>
       <use xlink:href="#md2b42ac583" x="72" y="424.371959" style="stroke: #000000; stroke-width: 0.6"/>
      </g>
     </g>
    </g>
    <g id="ytick_36">
     <g id="line2d_102">
      <g>
       <use xlink:href="#md2b42ac583" x="72" y="418.060044" style="stroke: #000000; stroke-width: 0.6"/>
      </g>
     </g>
    </g>
    <g id="ytick_37">
     <g id="line2d_103">
      <g>
       <use xlink:href="#md2b42ac583" x="72" y="411.74813" style="stroke: #000000; stroke-width: 0.6"/>
      </g>
     </g>
    </g>
    <g id="ytick_38">
     <g id="line2d_104">
      <g>
       <use xlink:href="#md2b42ac583" x="72" y="399.1243" style="stroke: #000000; stroke-width: 0.6"/>
      </g>
     </g>
    </g>
    <g id="ytick_39">
     <g id="line2d_105">
      <g>
       <use xlink:href="#md2b42ac583" x="72" y="392.812385" style="stroke: #000000; stroke-width: 0.6"/>
      </g>
     </g>
    </g>
    <g id="ytick_40">
     <g id="line2d_106">
      <g>
       <use xlink:href="#md2b42ac583" x="72" y="386.500471" style="stroke: #000000; stroke-width: 0.6"/>
      </g>
     </g>
    </g>
    <g id="ytick_41">
     <g id="line2d_107">
      <g>
       <use xlink:href="#md2b42ac583" x="72" y="380.188556" style="stroke: #000000; stroke-width: 0.6"/>
      </g>
     </g>
    </g>
    <g id="ytick_42">
     <g id="line2d_108">
      <g>
       <use xlink:href="#md2b42ac583" x="72" y="367.564727" style="stroke: #000000; stroke-width: 0.6"/>
      </g>
     </g>
    </g>
    <g id="ytick_43">
     <g id="line2d_109">
      <g>
       <use xlink:href="#md2b42ac583" x="72" y="361.252812" style="stroke: #000000; stroke-width: 0.6"/>
      </g>
     </g>
    </g>
    <g id="ytick_44">
     <g id="line2d_110">
      <g>
       <use xlink:href="#md2b42ac583" x="72" y="354.940897" style="stroke: #000000; stroke-width: 0.6"/>
      </g>
     </g>
    </g>
    <g id="ytick_45">
     <g id="line2d_111">
      <g>
       <use xlink:href="#md2b42ac583" x="72" y="348.628982" style="stroke: #000000; stroke-width: 0.6"/>
      </g>
     </g>
    </g>
    <g id="ytick_46">
     <g id="line2d_112">
      <g>
       <use xlink:href="#md2b42ac583" x="72" y="336.005153" style="stroke: #000000; stroke-width: 0.6"/>
      </g>
     </g>
    </g>
    <g id="ytick_47">
     <g id="line2d_113">
      <g>
       <use xlink:href="#md2b42ac583" x="72" y="329.693238" style="stroke: #000000; stroke-width: 0.6"/>
      </g>
     </g>
    </g>
    <g id="ytick_48">
     <g id="line2d_114">
      <g>
       <use xlink:href="#md2b42ac583" x="72" y="323.381323" style="stroke: #000000; stroke-width: 0.6"/>
      </g>
     </g>
    </g>
    <g id="ytick_49">
     <g id="line2d_115">
      <g>
       <use xlink:href="#md2b42ac583" x="72" y="317.069409" style="stroke: #000000; stroke-width: 0.6"/>
      </g>
     </g>
    </g>
    <g id="ytick_50">
     <g id="line2d_116">
      <g>
       <use xlink:href="#md2b42ac583" x="72" y="304.445579" style="stroke: #000000; stroke-width: 0.6"/>
      </g>
     </g>
    </g>
    <g id="ytick_51">
     <g id="line2d_117">
      <g>
       <use xlink:href="#md2b42ac583" x="72" y="298.133664" style="stroke: #000000; stroke-width: 0.6"/>
      </g>
     </g>
    </g>
    <g id="ytick_52">
     <g id="line2d_118">
      <g>
       <use xlink:href="#md2b42ac583" x="72" y="291.82175" style="stroke: #000000; stroke-width: 0.6"/>
      </g>
     </g>
    </g>
    <g id="text_22">
     <!-- Error (m) -->
     <g transform="translate(47.678125 419.341719) rotate(-90) scale(0.1 -0.1)">
      <defs>
       <path id="DejaVuSerif-45" d="M 353 0 
L 353 331 
L 947 331 
L 947 4331 
L 353 4331 
L 353 4666 
L 4109 4666 
L 4109 3628 
L 3725 3628 
L 3725 4281 
L 1581 4281 
L 1581 2719 
L 3109 2719 
L 3109 3303 
L 3494 3303 
L 3494 1753 
L 3109 1753 
L 3109 2338 
L 1581 2338 
L 1581 384 
L 3775 384 
L 3775 1038 
L 4159 1038 
L 4159 0 
L 353 0 
z
" transform="scale(0.015625)"/>
       <path id="DejaVuSerif-72" d="M 3059 3328 
L 3059 2497 
L 2728 2497 
Q 2713 2744 2591 2866 
Q 2469 2988 2234 2988 
Q 1809 2988 1582 2694 
Q 1356 2400 1356 1850 
L 1356 331 
L 2022 331 
L 2022 0 
L 263 0 
L 263 331 
L 781 331 
L 781 2994 
L 231 2994 
L 231 3322 
L 1356 3322 
L 1356 2731 
Q 1525 3078 1790 3245 
Q 2056 3413 2438 3413 
Q 2578 3413 2733 3391 
Q 2888 3369 3059 3328 
z
" transform="scale(0.015625)"/>
       <path id="DejaVuSerif-6f" d="M 1925 219 
Q 2388 219 2623 584 
Q 2859 950 2859 1663 
Q 2859 2375 2623 2739 
Q 2388 3103 1925 3103 
Q 1463 3103 1227 2739 
Q 991 2375 991 1663 
Q 991 950 1228 584 
Q 1466 219 1925 219 
z
M 1925 -91 
Q 1200 -91 759 389 
Q 319 869 319 1663 
Q 319 2456 758 2934 
Q 1197 3413 1925 3413 
Q 2653 3413 3092 2934 
Q 3531 2456 3531 1663 
Q 3531 869 3092 389 
Q 2653 -91 1925 -91 
z
" transform="scale(0.015625)"/>
      </defs>
      <use xlink:href="#DejaVuSerif-45"/>
      <use xlink:href="#DejaVuSerif-72" x="72.998047"/>
      <use xlink:href="#DejaVuSerif-72" x="120.800781"/>
      <use xlink:href="#DejaVuSerif-6f" x="168.603516"/>
      <use xlink:href="#DejaVuSerif-72" x="228.808594"/>
      <use xlink:href="#DejaVuSerif-20" x="276.611328"/>
      <use xlink:href="#DejaVuSerif-28" x="308.398438"/>
      <use xlink:href="#DejaVuSerif-6d" x="347.412109"/>
      <use xlink:href="#DejaVuSerif-29" x="442.236328"/>
     </g>
    </g>
   </g>
   <g id="line2d_119">
    <path d="M 72 405.436215 
L 76.464 405.546036 
L 80.928 405.922786 
L 86.88 406.731326 
L 95.808 408.054833 
L 100.272 408.466967 
L 103.248 408.558816 
L 106.224 408.468234 
L 109.2 408.174222 
L 112.176 407.666705 
L 115.152 406.947868 
L 118.128 406.032865 
L 122.592 404.357532 
L 130.032 401.14994 
L 134.496 399.312549 
L 137.472 398.26685 
L 140.448 397.443863 
L 143.424 396.905439 
L 146.4 396.704038 
L 149.376 396.879428 
L 152.352 397.455846 
L 155.328 398.439765 
L 158.304 399.818422 
L 161.28 401.559205 
L 164.256 403.609975 
L 168.72 407.108933 
L 177.648 414.45053 
L 180.624 416.600638 
L 183.6 418.417065 
L 186.576 419.798113 
L 188.064 420.297141 
L 189.552 420.655561 
L 191.04 420.865236 
L 192.528 420.919432 
L 194.016 420.812939 
L 195.504 420.542164 
L 196.992 420.105215 
L 198.48 419.501968 
L 199.968 418.734113 
L 201.456 417.805181 
L 202.944 416.720553 
L 205.92 414.114892 
L 208.896 410.996196 
L 211.872 407.470182 
L 216.336 401.704965 
L 222.288 393.9384 
L 225.264 390.39457 
L 228.24 387.29786 
L 229.728 385.965752 
L 231.216 384.801674 
L 232.704 383.821866 
L 234.192 383.040993 
L 235.68 382.471948 
L 237.168 382.125682 
L 238.656 382.011035 
L 240.144 382.134604 
L 241.632 382.500615 
L 243.12 383.110832 
L 244.608 383.964482 
L 246.096 385.058211 
L 247.584 386.386059 
L 249.072 387.939476 
L 250.56 389.707348 
L 252.048 391.67607 
L 255.024 396.149741 
L 258 401.20591 
L 262.464 409.468883 
L 268.416 420.606041 
L 271.392 425.702301 
L 274.368 430.176953 
L 275.856 432.114151 
L 277.344 433.818472 
L 278.832 435.267675 
L 280.32 436.441736 
L 281.808 437.323092 
L 283.296 437.896876 
L 284.784 438.151124 
L 286.272 438.076955 
L 287.76 437.668718 
L 289.248 436.92412 
L 290.736 435.844305 
L 292.224 434.433911 
L 293.712 432.701083 
L 295.2 430.657457 
L 296.688 428.318102 
L 298.176 425.701423 
L 301.152 419.725596 
L 304.128 412.938157 
L 308.592 401.790475 
L 314.544 386.659243 
L 317.52 379.679221 
L 320.496 373.499473 
L 321.984 370.799301 
L 323.472 368.402815 
L 324.96 366.339828 
L 326.448 364.637243 
L 327.936 363.318726 
L 329.424 362.40441 
L 330.912 361.910625 
L 332.4 361.849665 
L 333.888 362.229592 
L 335.376 363.054087 
L 336.864 364.322332 
L 338.352 366.028948 
L 339.84 368.163973 
L 341.328 370.712888 
L 342.816 373.656694 
L 344.304 376.972029 
L 345.792 380.631341 
L 348.768 388.852061 
L 351.744 398.023857 
L 356.208 412.80228 
L 360.672 427.640095 
L 363.648 436.888703 
L 366.624 445.157742 
L 368.112 448.807935 
L 369.6 452.077718 
L 371.088 454.92784 
L 372.576 457.322716 
L 374.064 459.230844 
L 375.552 460.625194 
L 377.04 461.483553 
L 378.528 461.788824 
L 380.016 461.529285 
L 381.504 460.698786 
L 382.992 459.296901 
L 384.48 457.329016 
L 385.968 454.806365 
L 387.456 451.746006 
L 388.944 448.170729 
L 390.432 444.108916 
L 391.92 439.594329 
L 394.896 429.367167 
L 397.872 417.855604 
L 402.336 399.134166 
L 408.288 374.040851 
L 411.264 362.593377 
L 412.752 357.364166 
L 414.24 352.542982 
L 415.728 348.184618 
L 417.216 344.339968 
L 418.704 341.05545 
L 420.192 338.372465 
L 421.68 336.326912 
L 423.168 334.948735 
L 424.656 334.261536 
L 426.144 334.282247 
L 427.632 335.020858 
L 429.12 336.480218 
L 430.608 338.655907 
L 432.096 341.536174 
L 433.584 345.101955 
L 435.072 349.326965 
L 436.56 354.177859 
L 438.048 359.614476 
L 439.536 365.59015 
L 442.512 378.941846 
L 445.488 393.745744 
L 451.44 425.417817 
L 455.904 448.503927 
L 458.88 462.377409 
L 460.368 468.629912 
L 461.856 474.331966 
L 463.344 479.418437 
L 464.832 483.82953 
L 466.32 487.511473 
L 467.808 490.417137 
L 469.296 492.506612 
L 470.784 493.747703 
L 472.272 494.116364 
L 473.76 493.597047 
L 475.248 492.182981 
L 476.736 489.876352 
L 478.224 486.688404 
L 479.712 482.639442 
L 481.2 477.758755 
L 482.688 472.08443 
L 484.176 465.663088 
L 485.664 458.549527 
L 488.64 442.503032 
L 491.616 424.527743 
L 496.08 395.448035 
L 500.544 366.111009 
L 503.52 347.730116 
L 506.496 331.196 
L 507.984 323.848817 
L 509.472 317.226577 
L 510.96 311.405458 
L 512.448 306.45454 
L 513.936 302.435009 
L 515.424 299.399438 
L 516.912 297.391145 
L 518.4 296.443636 
L 518.4 296.443636 
" clip-path="url(#p28db1f5eec)" style="fill: none; stroke: #1f77b4; stroke-width: 0.7; stroke-linecap: square"/>
   </g>
   <g id="line2d_120">
    <path d="M 72 405.436215 
L 77.952 405.549803 
L 84.648 405.92975 
L 99.528 406.884424 
L 104.736 406.912918 
L 109.2 406.708727 
L 113.664 406.276054 
L 118.128 405.629701 
L 124.08 404.519198 
L 135.984 402.209674 
L 140.448 401.63471 
L 144.168 401.392327 
L 147.888 401.41105 
L 150.864 401.632048 
L 153.84 402.041317 
L 157.56 402.80976 
L 161.28 403.835432 
L 165.744 405.333007 
L 181.368 410.890534 
L 184.344 411.610845 
L 187.32 412.111345 
L 190.296 412.357542 
L 193.272 412.324466 
L 196.248 411.99826 
L 199.224 411.377342 
L 202.2 410.473061 
L 205.176 409.309786 
L 208.152 407.924425 
L 211.872 405.955075 
L 225.264 398.556081 
L 228.24 397.286091 
L 231.216 396.298473 
L 233.448 395.775897 
L 235.68 395.461053 
L 237.912 395.367885 
L 240.144 395.505464 
L 242.376 395.877627 
L 244.608 396.482735 
L 246.84 397.313554 
L 249.072 398.357278 
L 252.048 400.047834 
L 255.024 402.026649 
L 258.744 404.795347 
L 269.904 413.395859 
L 272.88 415.306916 
L 275.112 416.523235 
L 277.344 417.516288 
L 279.576 418.25721 
L 281.808 418.722317 
L 284.04 418.893794 
L 286.272 418.760256 
L 288.504 418.317177 
L 290.736 417.567155 
L 292.968 416.520027 
L 295.2 415.192803 
L 297.432 413.609438 
L 300.408 411.153426 
L 303.384 408.385447 
L 307.848 403.879825 
L 313.8 397.839633 
L 316.776 395.086428 
L 319.752 392.672556 
L 321.984 391.151077 
L 324.216 389.922848 
L 326.448 389.022575 
L 327.936 388.618653 
L 329.424 388.37942 
L 330.912 388.309671 
L 332.4 388.412525 
L 333.888 388.689378 
L 335.376 389.139858 
L 336.864 389.761807 
L 339.096 391.007122 
L 341.328 392.6082 
L 343.56 394.535637 
L 345.792 396.751891 
L 348.768 400.077464 
L 352.488 404.652137 
L 361.416 415.89612 
L 364.392 419.189378 
L 366.624 421.356438 
L 368.856 423.202506 
L 371.088 424.67911 
L 372.576 425.437717 
L 374.064 426.00375 
L 375.552 426.369034 
L 377.04 426.527338 
L 378.528 426.474464 
L 380.016 426.208317 
L 381.504 425.72895 
L 382.992 425.038588 
L 384.48 424.141638 
L 385.968 423.044662 
L 388.2 421.043705 
L 390.432 418.650584 
L 392.664 415.91287 
L 395.64 411.82505 
L 399.36 406.232362 
L 407.544 393.672394 
L 410.52 389.599749 
L 412.752 386.894933 
L 414.984 384.564926 
L 416.472 383.249624 
L 417.96 382.143125 
L 419.448 381.259009 
L 420.936 380.60875 
L 422.424 380.201576 
L 423.912 380.04435 
L 425.4 380.141474 
L 426.888 380.494815 
L 428.376 381.10366 
L 429.864 381.964695 
L 431.352 383.072008 
L 432.84 384.417122 
L 434.328 385.989054 
L 436.56 388.742278 
L 438.792 391.920287 
L 441.024 395.457616 
L 444 400.602663 
L 449.208 410.217347 
L 453.672 418.322713 
L 456.648 423.263701 
L 458.88 426.576148 
L 461.112 429.460961 
L 462.6 431.110431 
L 464.088 432.518464 
L 465.576 433.668323 
L 467.064 434.545717 
L 468.552 435.138963 
L 470.04 435.439139 
L 471.528 435.440197 
L 473.016 435.139057 
L 474.504 434.535666 
L 475.992 433.633032 
L 477.48 432.437221 
L 478.968 430.957328 
L 480.456 429.205418 
L 481.944 427.196428 
L 484.176 423.740329 
L 486.408 419.81669 
L 489.384 414.001438 
L 493.104 406.110632 
L 500.544 390.119143 
L 503.52 384.36323 
L 505.752 380.518016 
L 507.984 377.181737 
L 509.472 375.281871 
L 510.96 373.667136 
L 512.448 372.356562 
L 513.936 371.366282 
L 515.424 370.70935 
L 516.912 370.395574 
L 518.4 370.43139 
L 518.4 370.43139 
" clip-path="url(#p28db1f5eec)" style="fill: none; stroke: #ff7f0e; stroke-width: 0.7; stroke-linecap: square"/>
   </g>
   <g id="line2d_121">
    <path d="M 72 405.436215 
L 85.392 405.547116 
L 105.0336 405.718229 
L 115.152 405.549496 
L 128.3952 405.074853 
L 140.7456 404.702345 
L 148.632 404.688259 
L 156.072 404.896243 
L 164.5536 405.366533 
L 185.088 406.617195 
L 191.4864 406.71061 
L 197.5872 406.574623 
L 203.8368 406.209523 
L 211.4256 405.529403 
L 228.0912 403.955057 
L 233.8944 403.685074 
L 239.1024 403.660497 
L 244.3104 403.860171 
L 249.816 404.30209 
L 256.2144 405.049204 
L 274.8144 407.374252 
L 279.8736 407.684895 
L 284.4864 407.75035 
L 289.0992 407.590932 
L 293.8608 407.196725 
L 299.0688 406.53557 
L 305.9136 405.423042 
L 317.52 403.517716 
L 322.5792 402.934744 
L 327.0432 402.642293 
L 331.2096 402.590051 
L 335.376 402.76299 
L 339.6912 403.172607 
L 344.304 403.838884 
L 349.9584 404.893608 
L 365.4336 407.921885 
L 369.8976 408.486871 
L 373.9152 408.774133 
L 377.784 408.825662 
L 381.504 408.657686 
L 385.3728 408.262431 
L 389.5392 407.609813 
L 394.3008 406.633829 
L 401.592 404.877281 
L 409.1808 403.109563 
L 413.7936 402.264065 
L 417.8112 401.756121 
L 421.5312 401.515482 
L 425.1024 401.512002 
L 428.6736 401.736666 
L 432.2448 402.181273 
L 436.1136 402.886183 
L 440.5776 403.932241 
L 446.976 405.691019 
L 455.4576 407.993595 
L 459.7728 408.930902 
L 463.4928 409.521815 
L 466.9152 409.849556 
L 470.1888 409.948776 
L 473.4624 409.829662 
L 476.736 409.494197 
L 480.1584 408.925984 
L 484.0272 408.049168 
L 488.4912 406.798515 
L 495.9312 404.436071 
L 502.1808 402.550635 
L 506.3472 401.525583 
L 509.9184 400.872816 
L 513.192 400.495914 
L 516.3168 400.354764 
L 518.4 400.384557 
L 518.4 400.384557 
" clip-path="url(#p28db1f5eec)" style="fill: none; stroke: #2ca02c; stroke-width: 0.7; stroke-linecap: square"/>
   </g>
   <g id="patch_8">
    <path d="M 72 504 
L 72 286.56 
" style="fill: none; stroke: #000000; stroke-width: 0.8; stroke-linejoin: miter; stroke-linecap: square"/>
   </g>
   <g id="patch_9">
    <path d="M 518.4 504 
L 518.4 286.56 
" style="fill: none; stroke: #000000; stroke-width: 0.8; stroke-linejoin: miter; stroke-linecap: square"/>
   </g>
   <g id="patch_10">
    <path d="M 72 504 
L 518.4 504 
" style="fill: none; stroke: #000000; stroke-width: 0.8; stroke-linejoin: miter; stroke-linecap: square"/>
   </g>
   <g id="patch_11">
    <path d="M 72 286.56 
L 518.4 286.56 
" style="fill: none; stroke: #000000; stroke-width: 0.8; stroke-linejoin: miter; stroke-linecap: square"/>
   </g>
  </g>
  <g id="legend_1">
   <g id="patch_12">
    <path d="M 92.15 141.5925 
L 195.85 141.5925 
Q 197.85 141.5925 197.85 139.5925 
L 197.85 81.88 
Q 197.85 79.88 195.85 79.88 
L 92.15 79.88 
Q 90.15 79.88 90.15 81.88 
L 90.15 139.5925 
Q 90.15 141.5925 92.15 141.5925 
z
" style="fill: #ffffff; opacity: 0.8; stroke: #cccccc; stroke-linejoin: miter"/>
   </g>
   <g id="line2d_122">
    <path d="M 94.15 87.978437 
L 104.15 87.978437 
L 114.15 87.978437 
" style="fill: none; stroke-dasharray: 2.59,1.12; stroke-dashoffset: 0; stroke: #000000; stroke-width: 0.7"/>
   </g>
   <g id="text_23">
    <!-- Exact Solution -->
    <g transform="translate(122.15 91.478437) scale(0.1 -0.1)">
     <defs>
      <path id="DejaVuSans-45" d="M 628 4666 
L 3578 4666 
L 3578 4134 
L 1259 4134 
L 1259 2753 
L 3481 2753 
L 3481 2222 
L 1259 2222 
L 1259 531 
L 3634 531 
L 3634 0 
L 628 0 
L 628 4666 
z
" transform="scale(0.015625)"/>
      <path id="DejaVuSans-78" d="M 3513 3500 
L 2247 1797 
L 3578 0 
L 2900 0 
L 1881 1375 
L 863 0 
L 184 0 
L 1544 1831 
L 300 3500 
L 978 3500 
L 1906 2253 
L 2834 3500 
L 3513 3500 
z
" transform="scale(0.015625)"/>
      <path id="DejaVuSans-61" d="M 2194 1759 
Q 1497 1759 1228 1600 
Q 959 1441 959 1056 
Q 959 750 1161 570 
Q 1363 391 1709 391 
Q 2188 391 2477 730 
Q 2766 1069 2766 1631 
L 2766 1759 
L 2194 1759 
z
M 3341 1997 
L 3341 0 
L 2766 0 
L 2766 531 
Q 2569 213 2275 61 
Q 1981 -91 1556 -91 
Q 1019 -91 701 211 
Q 384 513 384 1019 
Q 384 1609 779 1909 
Q 1175 2209 1959 2209 
L 2766 2209 
L 2766 2266 
Q 2766 2663 2505 2880 
Q 2244 3097 1772 3097 
Q 1472 3097 1187 3025 
Q 903 2953 641 2809 
L 641 3341 
Q 956 3463 1253 3523 
Q 1550 3584 1831 3584 
Q 2591 3584 2966 3190 
Q 3341 2797 3341 1997 
z
" transform="scale(0.015625)"/>
      <path id="DejaVuSans-63" d="M 3122 3366 
L 3122 2828 
Q 2878 2963 2633 3030 
Q 2388 3097 2138 3097 
Q 1578 3097 1268 2742 
Q 959 2388 959 1747 
Q 959 1106 1268 751 
Q 1578 397 2138 397 
Q 2388 397 2633 464 
Q 2878 531 3122 666 
L 3122 134 
Q 2881 22 2623 -34 
Q 2366 -91 2075 -91 
Q 1284 -91 818 406 
Q 353 903 353 1747 
Q 353 2603 823 3093 
Q 1294 3584 2113 3584 
Q 2378 3584 2631 3529 
Q 2884 3475 3122 3366 
z
" transform="scale(0.015625)"/>
      <path id="DejaVuSans-74" d="M 1172 4494 
L 1172 3500 
L 2356 3500 
L 2356 3053 
L 1172 3053 
L 1172 1153 
Q 1172 725 1289 603 
Q 1406 481 1766 481 
L 2356 481 
L 2356 0 
L 1766 0 
Q 1100 0 847 248 
Q 594 497 594 1153 
L 594 3053 
L 172 3053 
L 172 3500 
L 594 3500 
L 594 4494 
L 1172 4494 
z
" transform="scale(0.015625)"/>
      <path id="DejaVuSans-20" transform="scale(0.015625)"/>
      <path id="DejaVuSans-53" d="M 3425 4513 
L 3425 3897 
Q 3066 4069 2747 4153 
Q 2428 4238 2131 4238 
Q 1616 4238 1336 4038 
Q 1056 3838 1056 3469 
Q 1056 3159 1242 3001 
Q 1428 2844 1947 2747 
L 2328 2669 
Q 3034 2534 3370 2195 
Q 3706 1856 3706 1288 
Q 3706 609 3251 259 
Q 2797 -91 1919 -91 
Q 1588 -91 1214 -16 
Q 841 59 441 206 
L 441 856 
Q 825 641 1194 531 
Q 1563 422 1919 422 
Q 2459 422 2753 634 
Q 3047 847 3047 1241 
Q 3047 1584 2836 1778 
Q 2625 1972 2144 2069 
L 1759 2144 
Q 1053 2284 737 2584 
Q 422 2884 422 3419 
Q 422 4038 858 4394 
Q 1294 4750 2059 4750 
Q 2388 4750 2728 4690 
Q 3069 4631 3425 4513 
z
" transform="scale(0.015625)"/>
      <path id="DejaVuSans-6f" d="M 1959 3097 
Q 1497 3097 1228 2736 
Q 959 2375 959 1747 
Q 959 1119 1226 758 
Q 1494 397 1959 397 
Q 2419 397 2687 759 
Q 2956 1122 2956 1747 
Q 2956 2369 2687 2733 
Q 2419 3097 1959 3097 
z
M 1959 3584 
Q 2709 3584 3137 3096 
Q 3566 2609 3566 1747 
Q 3566 888 3137 398 
Q 2709 -91 1959 -91 
Q 1206 -91 779 398 
Q 353 888 353 1747 
Q 353 2609 779 3096 
Q 1206 3584 1959 3584 
z
" transform="scale(0.015625)"/>
      <path id="DejaVuSans-6c" d="M 603 4863 
L 1178 4863 
L 1178 0 
L 603 0 
L 603 4863 
z
" transform="scale(0.015625)"/>
      <path id="DejaVuSans-75" d="M 544 1381 
L 544 3500 
L 1119 3500 
L 1119 1403 
Q 1119 906 1312 657 
Q 1506 409 1894 409 
Q 2359 409 2629 706 
Q 2900 1003 2900 1516 
L 2900 3500 
L 3475 3500 
L 3475 0 
L 2900 0 
L 2900 538 
Q 2691 219 2414 64 
Q 2138 -91 1772 -91 
Q 1169 -91 856 284 
Q 544 659 544 1381 
z
M 1991 3584 
L 1991 3584 
z
" transform="scale(0.015625)"/>
      <path id="DejaVuSans-69" d="M 603 3500 
L 1178 3500 
L 1178 0 
L 603 0 
L 603 3500 
z
M 603 4863 
L 1178 4863 
L 1178 4134 
L 603 4134 
L 603 4863 
z
" transform="scale(0.015625)"/>
      <path id="DejaVuSans-6e" d="M 3513 2113 
L 3513 0 
L 2938 0 
L 2938 2094 
Q 2938 2591 2744 2837 
Q 2550 3084 2163 3084 
Q 1697 3084 1428 2787 
Q 1159 2491 1159 1978 
L 1159 0 
L 581 0 
L 581 3500 
L 1159 3500 
L 1159 2956 
Q 1366 3272 1645 3428 
Q 1925 3584 2291 3584 
Q 2894 3584 3203 3211 
Q 3513 2838 3513 2113 
z
" transform="scale(0.015625)"/>
     </defs>
     <use xlink:href="#DejaVuSans-45"/>
     <use xlink:href="#DejaVuSans-78" x="63.183594"/>
     <use xlink:href="#DejaVuSans-61" x="122.363281"/>
     <use xlink:href="#DejaVuSans-63" x="183.642578"/>
     <use xlink:href="#DejaVuSans-74" x="238.623047"/>
     <use xlink:href="#DejaVuSans-20" x="277.832031"/>
     <use xlink:href="#DejaVuSans-53" x="309.619141"/>
     <use xlink:href="#DejaVuSans-6f" x="373.095703"/>
     <use xlink:href="#DejaVuSans-6c" x="434.277344"/>
     <use xlink:href="#DejaVuSans-75" x="462.060547"/>
     <use xlink:href="#DejaVuSans-74" x="525.439453"/>
     <use xlink:href="#DejaVuSans-69" x="564.648438"/>
     <use xlink:href="#DejaVuSans-6f" x="592.431641"/>
     <use xlink:href="#DejaVuSans-6e" x="653.613281"/>
    </g>
   </g>
   <g id="line2d_123">
    <path d="M 94.15 102.656563 
L 104.15 102.656563 
L 114.15 102.656563 
" style="fill: none; stroke: #1f77b4; stroke-width: 0.7; stroke-linecap: square"/>
   </g>
   <g id="text_24">
    <!-- h = 0.1 s -->
    <g transform="translate(122.15 106.156563) scale(0.1 -0.1)">
     <defs>
      <path id="DejaVuSans-68" d="M 3513 2113 
L 3513 0 
L 2938 0 
L 2938 2094 
Q 2938 2591 2744 2837 
Q 2550 3084 2163 3084 
Q 1697 3084 1428 2787 
Q 1159 2491 1159 1978 
L 1159 0 
L 581 0 
L 581 4863 
L 1159 4863 
L 1159 2956 
Q 1366 3272 1645 3428 
Q 1925 3584 2291 3584 
Q 2894 3584 3203 3211 
Q 3513 2838 3513 2113 
z
" transform="scale(0.015625)"/>
      <path id="DejaVuSans-3d" d="M 678 2906 
L 4684 2906 
L 4684 2381 
L 678 2381 
L 678 2906 
z
M 678 1631 
L 4684 1631 
L 4684 1100 
L 678 1100 
L 678 1631 
z
" transform="scale(0.015625)"/>
      <path id="DejaVuSans-2e" d="M 684 794 
L 1344 794 
L 1344 0 
L 684 0 
L 684 794 
z
" transform="scale(0.015625)"/>
      <path id="DejaVuSans-73" d="M 2834 3397 
L 2834 2853 
Q 2591 2978 2328 3040 
Q 2066 3103 1784 3103 
Q 1356 3103 1142 2972 
Q 928 2841 928 2578 
Q 928 2378 1081 2264 
Q 1234 2150 1697 2047 
L 1894 2003 
Q 2506 1872 2764 1633 
Q 3022 1394 3022 966 
Q 3022 478 2636 193 
Q 2250 -91 1575 -91 
Q 1294 -91 989 -36 
Q 684 19 347 128 
L 347 722 
Q 666 556 975 473 
Q 1284 391 1588 391 
Q 1994 391 2212 530 
Q 2431 669 2431 922 
Q 2431 1156 2273 1281 
Q 2116 1406 1581 1522 
L 1381 1569 
Q 847 1681 609 1914 
Q 372 2147 372 2553 
Q 372 3047 722 3315 
Q 1072 3584 1716 3584 
Q 2034 3584 2315 3537 
Q 2597 3491 2834 3397 
z
" transform="scale(0.015625)"/>
     </defs>
     <use xlink:href="#DejaVuSans-68"/>
     <use xlink:href="#DejaVuSans-20" x="63.378906"/>
     <use xlink:href="#DejaVuSans-3d" x="95.166016"/>
     <use xlink:href="#DejaVuSans-20" x="178.955078"/>
     <use xlink:href="#DejaVuSans-30" x="210.742188"/>
     <use xlink:href="#DejaVuSans-2e" x="274.365234"/>
     <use xlink:href="#DejaVuSans-31" x="306.152344"/>
     <use xlink:href="#DejaVuSans-20" x="369.775391"/>
     <use xlink:href="#DejaVuSans-73" x="401.5625"/>
    </g>
   </g>
   <g id="line2d_124">
    <path d="M 94.15 117.334687 
L 104.15 117.334687 
L 114.15 117.334687 
" style="fill: none; stroke: #ff7f0e; stroke-width: 0.7; stroke-linecap: square"/>
   </g>
   <g id="text_25">
    <!-- h = 0.05 s -->
    <g transform="translate(122.15 120.834687) scale(0.1 -0.1)">
     <use xlink:href="#DejaVuSans-68"/>
     <use xlink:href="#DejaVuSans-20" x="63.378906"/>
     <use xlink:href="#DejaVuSans-3d" x="95.166016"/>
     <use xlink:href="#DejaVuSans-20" x="178.955078"/>
     <use xlink:href="#DejaVuSans-30" x="210.742188"/>
     <use xlink:href="#DejaVuSans-2e" x="274.365234"/>
     <use xlink:href="#DejaVuSans-30" x="306.152344"/>
     <use xlink:href="#DejaVuSans-35" x="369.775391"/>
     <use xlink:href="#DejaVuSans-20" x="433.398438"/>
     <use xlink:href="#DejaVuSans-73" x="465.185547"/>
    </g>
   </g>
   <g id="line2d_125">
    <path d="M 94.15 132.012812 
L 104.15 132.012812 
L 114.15 132.012812 
" style="fill: none; stroke: #2ca02c; stroke-width: 0.7; stroke-linecap: square"/>
   </g>
   <g id="text_26">
    <!-- h = 0.01 s -->
    <g transform="translate(122.15 135.512812) scale(0.1 -0.1)">
     <use xlink:href="#DejaVuSans-68"/>
     <use xlink:href="#DejaVuSans-20" x="63.378906"/>
     <use xlink:href="#DejaVuSans-3d" x="95.166016"/>
     <use xlink:href="#DejaVuSans-20" x="178.955078"/>
     <use xlink:href="#DejaVuSans-30" x="210.742188"/>
     <use xlink:href="#DejaVuSans-2e" x="274.365234"/>
     <use xlink:href="#DejaVuSans-30" x="306.152344"/>
     <use xlink:href="#DejaVuSans-31" x="369.775391"/>
     <use xlink:href="#DejaVuSans-20" x="433.398438"/>
     <use xlink:href="#DejaVuSans-73" x="465.185547"/>
    </g>
   </g>
  </g>
 </g>
 <defs>
  <clipPath id="p91b8b36e89">
   <rect x="72" y="69.12" width="446.4" height="217.44"/>
  </clipPath>
  <clipPath id="p28db1f5eec">
   <rect x="72" y="286.56" width="446.4" height="217.44"/>
  </clipPath>
 </defs>
</svg>
