<?xml version="1.0" encoding="utf-8" standalone="no"?>
<!DOCTYPE svg PUBLIC "-//W3C//DTD SVG 1.1//EN"
  "http://www.w3.org/Graphics/SVG/1.1/DTD/svg11.dtd">
<svg xmlns:xlink="http://www.w3.org/1999/xlink" width="576pt" height="576pt" viewBox="0 0 576 576" xmlns="http://www.w3.org/2000/svg" version="1.1">
 <metadata>
  <rdf:RDF xmlns:dc="http://purl.org/dc/elements/1.1/" xmlns:cc="http://creativecommons.org/ns#" xmlns:rdf="http://www.w3.org/1999/02/22-rdf-syntax-ns#">
   <cc:Work>
    <dc:type rdf:resource="http://purl.org/dc/dcmitype/StillImage"/>
    <dc:date>2024-09-22T14:56:23.974372</dc:date>
    <dc:format>image/svg+xml</dc:format>
    <dc:creator>
     <cc:Agent>
      <dc:title>Matplotlib v3.8.3, https://matplotlib.org/</dc:title>
     </cc:Agent>
    </dc:creator>
   </cc:Work>
  </rdf:RDF>
 </metadata>
 <defs>
  <style type="text/css">*{stroke-linejoin: round; stroke-linecap: butt}</style>
 </defs>
 <g id="figure_1">
  <g id="patch_1">
   <path d="M 0 576 
L 576 576 
L 576 0 
L 0 0 
z
" style="fill: #ffffff"/>
  </g>
  <g id="axes_1">
   <g id="patch_2">
    <path d="M 72 286.56 
L 518.4 286.56 
L 518.4 69.12 
L 72 69.12 
z
" style="fill: #ffffff"/>
   </g>
   <g id="matplotlib.axis_1">
    <g id="xtick_1">
     <g id="line2d_1">
      <defs>
       <path id="mb4c682b466" d="M 0 0 
L 0 -3.5 
" style="stroke: #000000; stroke-width: 0.8"/>
      </defs>
      <g>
       <use xlink:href="#mb4c682b466" x="72" y="286.56" style="stroke: #000000; stroke-width: 0.8"/>
      </g>
     </g>
    </g>
    <g id="xtick_2">
     <g id="line2d_2">
      <g>
       <use xlink:href="#mb4c682b466" x="146.4" y="286.56" style="stroke: #000000; stroke-width: 0.8"/>
      </g>
     </g>
    </g>
    <g id="xtick_3">
     <g id="line2d_3">
      <g>
       <use xlink:href="#mb4c682b466" x="220.8" y="286.56" style="stroke: #000000; stroke-width: 0.8"/>
      </g>
     </g>
    </g>
    <g id="xtick_4">
     <g id="line2d_4">
      <g>
       <use xlink:href="#mb4c682b466" x="295.2" y="286.56" style="stroke: #000000; stroke-width: 0.8"/>
      </g>
     </g>
    </g>
    <g id="xtick_5">
     <g id="line2d_5">
      <g>
       <use xlink:href="#mb4c682b466" x="369.6" y="286.56" style="stroke: #000000; stroke-width: 0.8"/>
      </g>
     </g>
    </g>
    <g id="xtick_6">
     <g id="line2d_6">
      <g>
       <use xlink:href="#mb4c682b466" x="444" y="286.56" style="stroke: #000000; stroke-width: 0.8"/>
      </g>
     </g>
    </g>
    <g id="xtick_7">
     <g id="line2d_7">
      <g>
       <use xlink:href="#mb4c682b466" x="518.4" y="286.56" style="stroke: #000000; stroke-width: 0.8"/>
      </g>
     </g>
    </g>
    <g id="xtick_8">
     <g id="line2d_8">
      <defs>
       <path id="m5ee537d7fb" d="M 0 0 
L 0 -2 
" style="stroke: #000000; stroke-width: 0.6"/>
      </defs>
      <g>
       <use xlink:href="#m5ee537d7fb" x="86.88" y="286.56" style="stroke: #000000; stroke-width: 0.6"/>
      </g>
     </g>
    </g>
    <g id="xtick_9">
     <g id="line2d_9">
      <g>
       <use xlink:href="#m5ee537d7fb" x="101.76" y="286.56" style="stroke: #000000; stroke-width: 0.6"/>
      </g>
     </g>
    </g>
    <g id="xtick_10">
     <g id="line2d_10">
      <g>
       <use xlink:href="#m5ee537d7fb" x="116.64" y="286.56" style="stroke: #000000; stroke-width: 0.6"/>
      </g>
     </g>
    </g>
    <g id="xtick_11">
     <g id="line2d_11">
      <g>
       <use xlink:href="#m5ee537d7fb" x="131.52" y="286.56" style="stroke: #000000; stroke-width: 0.6"/>
      </g>
     </g>
    </g>
    <g id="xtick_12">
     <g id="line2d_12">
      <g>
       <use xlink:href="#m5ee537d7fb" x="161.28" y="286.56" style="stroke: #000000; stroke-width: 0.6"/>
      </g>
     </g>
    </g>
    <g id="xtick_13">
     <g id="line2d_13">
      <g>
       <use xlink:href="#m5ee537d7fb" x="176.16" y="286.56" style="stroke: #000000; stroke-width: 0.6"/>
      </g>
     </g>
    </g>
    <g id="xtick_14">
     <g id="line2d_14">
      <g>
       <use xlink:href="#m5ee537d7fb" x="191.04" y="286.56" style="stroke: #000000; stroke-width: 0.6"/>
      </g>
     </g>
    </g>
    <g id="xtick_15">
     <g id="line2d_15">
      <g>
       <use xlink:href="#m5ee537d7fb" x="205.92" y="286.56" style="stroke: #000000; stroke-width: 0.6"/>
      </g>
     </g>
    </g>
    <g id="xtick_16">
     <g id="line2d_16">
      <g>
       <use xlink:href="#m5ee537d7fb" x="235.68" y="286.56" style="stroke: #000000; stroke-width: 0.6"/>
      </g>
     </g>
    </g>
    <g id="xtick_17">
     <g id="line2d_17">
      <g>
       <use xlink:href="#m5ee537d7fb" x="250.56" y="286.56" style="stroke: #000000; stroke-width: 0.6"/>
      </g>
     </g>
    </g>
    <g id="xtick_18">
     <g id="line2d_18">
      <g>
       <use xlink:href="#m5ee537d7fb" x="265.44" y="286.56" style="stroke: #000000; stroke-width: 0.6"/>
      </g>
     </g>
    </g>
    <g id="xtick_19">
     <g id="line2d_19">
      <g>
       <use xlink:href="#m5ee537d7fb" x="280.32" y="286.56" style="stroke: #000000; stroke-width: 0.6"/>
      </g>
     </g>
    </g>
    <g id="xtick_20">
     <g id="line2d_20">
      <g>
       <use xlink:href="#m5ee537d7fb" x="310.08" y="286.56" style="stroke: #000000; stroke-width: 0.6"/>
      </g>
     </g>
    </g>
    <g id="xtick_21">
     <g id="line2d_21">
      <g>
       <use xlink:href="#m5ee537d7fb" x="324.96" y="286.56" style="stroke: #000000; stroke-width: 0.6"/>
      </g>
     </g>
    </g>
    <g id="xtick_22">
     <g id="line2d_22">
      <g>
       <use xlink:href="#m5ee537d7fb" x="339.84" y="286.56" style="stroke: #000000; stroke-width: 0.6"/>
      </g>
     </g>
    </g>
    <g id="xtick_23">
     <g id="line2d_23">
      <g>
       <use xlink:href="#m5ee537d7fb" x="354.72" y="286.56" style="stroke: #000000; stroke-width: 0.6"/>
      </g>
     </g>
    </g>
    <g id="xtick_24">
     <g id="line2d_24">
      <g>
       <use xlink:href="#m5ee537d7fb" x="384.48" y="286.56" style="stroke: #000000; stroke-width: 0.6"/>
      </g>
     </g>
    </g>
    <g id="xtick_25">
     <g id="line2d_25">
      <g>
       <use xlink:href="#m5ee537d7fb" x="399.36" y="286.56" style="stroke: #000000; stroke-width: 0.6"/>
      </g>
     </g>
    </g>
    <g id="xtick_26">
     <g id="line2d_26">
      <g>
       <use xlink:href="#m5ee537d7fb" x="414.24" y="286.56" style="stroke: #000000; stroke-width: 0.6"/>
      </g>
     </g>
    </g>
    <g id="xtick_27">
     <g id="line2d_27">
      <g>
       <use xlink:href="#m5ee537d7fb" x="429.12" y="286.56" style="stroke: #000000; stroke-width: 0.6"/>
      </g>
     </g>
    </g>
    <g id="xtick_28">
     <g id="line2d_28">
      <g>
       <use xlink:href="#m5ee537d7fb" x="458.88" y="286.56" style="stroke: #000000; stroke-width: 0.6"/>
      </g>
     </g>
    </g>
    <g id="xtick_29">
     <g id="line2d_29">
      <g>
       <use xlink:href="#m5ee537d7fb" x="473.76" y="286.56" style="stroke: #000000; stroke-width: 0.6"/>
      </g>
     </g>
    </g>
    <g id="xtick_30">
     <g id="line2d_30">
      <g>
       <use xlink:href="#m5ee537d7fb" x="488.64" y="286.56" style="stroke: #000000; stroke-width: 0.6"/>
      </g>
     </g>
    </g>
    <g id="xtick_31">
     <g id="line2d_31">
      <g>
       <use xlink:href="#m5ee537d7fb" x="503.52" y="286.56" style="stroke: #000000; stroke-width: 0.6"/>
      </g>
     </g>
    </g>
   </g>
   <g id="matplotlib.axis_2">
    <g id="ytick_1">
     <g id="line2d_32">
      <defs>
       <path id="m155ec57aab" d="M 0 0 
L 3.5 0 
" style="stroke: #000000; stroke-width: 0.8"/>
      </defs>
      <g>
       <use xlink:href="#m155ec57aab" x="72" y="266.076872" style="stroke: #000000; stroke-width: 0.8"/>
      </g>
     </g>
     <g id="text_1">
      <!-- −4 -->
      <g transform="translate(53.757812 269.876091) scale(0.1 -0.1)">
       <defs>
        <path id="DejaVuSans-2212" d="M 678 2272 
L 4684 2272 
L 4684 1741 
L 678 1741 
L 678 2272 
z
" transform="scale(0.015625)"/>
        <path id="DejaVuSans-34" d="M 2419 4116 
L 825 1625 
L 2419 1625 
L 2419 4116 
z
M 2253 4666 
L 3047 4666 
L 3047 1625 
L 3713 1625 
L 3713 1100 
L 3047 1100 
L 3047 0 
L 2419 0 
L 2419 1100 
L 313 1100 
L 313 1709 
L 2253 4666 
z
" transform="scale(0.015625)"/>
       </defs>
       <use xlink:href="#DejaVuSans-2212"/>
       <use xlink:href="#DejaVuSans-34" x="83.789062"/>
      </g>
     </g>
    </g>
    <g id="ytick_2">
     <g id="line2d_33">
      <g>
       <use xlink:href="#m155ec57aab" x="72" y="218.069975" style="stroke: #000000; stroke-width: 0.8"/>
      </g>
     </g>
     <g id="text_2">
      <!-- −2 -->
      <g transform="translate(53.757812 221.869194) scale(0.1 -0.1)">
       <defs>
        <path id="DejaVuSans-32" d="M 1228 531 
L 3431 531 
L 3431 0 
L 469 0 
L 469 531 
Q 828 903 1448 1529 
Q 2069 2156 2228 2338 
Q 2531 2678 2651 2914 
Q 2772 3150 2772 3378 
Q 2772 3750 2511 3984 
Q 2250 4219 1831 4219 
Q 1534 4219 1204 4116 
Q 875 4013 500 3803 
L 500 4441 
Q 881 4594 1212 4672 
Q 1544 4750 1819 4750 
Q 2544 4750 2975 4387 
Q 3406 4025 3406 3419 
Q 3406 3131 3298 2873 
Q 3191 2616 2906 2266 
Q 2828 2175 2409 1742 
Q 1991 1309 1228 531 
z
" transform="scale(0.015625)"/>
       </defs>
       <use xlink:href="#DejaVuSans-2212"/>
       <use xlink:href="#DejaVuSans-32" x="83.789062"/>
      </g>
     </g>
    </g>
    <g id="ytick_3">
     <g id="line2d_34">
      <g>
       <use xlink:href="#m155ec57aab" x="72" y="170.063078" style="stroke: #000000; stroke-width: 0.8"/>
      </g>
     </g>
     <g id="text_3">
      <!-- 0 -->
      <g transform="translate(62.1375 173.862297) scale(0.1 -0.1)">
       <defs>
        <path id="DejaVuSans-30" d="M 2034 4250 
Q 1547 4250 1301 3770 
Q 1056 3291 1056 2328 
Q 1056 1369 1301 889 
Q 1547 409 2034 409 
Q 2525 409 2770 889 
Q 3016 1369 3016 2328 
Q 3016 3291 2770 3770 
Q 2525 4250 2034 4250 
z
M 2034 4750 
Q 2819 4750 3233 4129 
Q 3647 3509 3647 2328 
Q 3647 1150 3233 529 
Q 2819 -91 2034 -91 
Q 1250 -91 836 529 
Q 422 1150 422 2328 
Q 422 3509 836 4129 
Q 1250 4750 2034 4750 
z
" transform="scale(0.015625)"/>
       </defs>
       <use xlink:href="#DejaVuSans-30"/>
      </g>
     </g>
    </g>
    <g id="ytick_4">
     <g id="line2d_35">
      <g>
       <use xlink:href="#m155ec57aab" x="72" y="122.056181" style="stroke: #000000; stroke-width: 0.8"/>
      </g>
     </g>
     <g id="text_4">
      <!-- 2 -->
      <g transform="translate(62.1375 125.855399) scale(0.1 -0.1)">
       <use xlink:href="#DejaVuSans-32"/>
      </g>
     </g>
    </g>
    <g id="ytick_5">
     <g id="line2d_36">
      <g>
       <use xlink:href="#m155ec57aab" x="72" y="74.049284" style="stroke: #000000; stroke-width: 0.8"/>
      </g>
     </g>
     <g id="text_5">
      <!-- 4 -->
      <g transform="translate(62.1375 77.848502) scale(0.1 -0.1)">
       <use xlink:href="#DejaVuSans-34"/>
      </g>
     </g>
    </g>
    <g id="ytick_6">
     <g id="line2d_37">
      <defs>
       <path id="mf013765068" d="M 0 0 
L 2 0 
" style="stroke: #000000; stroke-width: 0.6"/>
      </defs>
      <g>
       <use xlink:href="#mf013765068" x="72" y="278.078596" style="stroke: #000000; stroke-width: 0.6"/>
      </g>
     </g>
    </g>
    <g id="ytick_7">
     <g id="line2d_38">
      <g>
       <use xlink:href="#mf013765068" x="72" y="254.075148" style="stroke: #000000; stroke-width: 0.6"/>
      </g>
     </g>
    </g>
    <g id="ytick_8">
     <g id="line2d_39">
      <g>
       <use xlink:href="#mf013765068" x="72" y="242.073424" style="stroke: #000000; stroke-width: 0.6"/>
      </g>
     </g>
    </g>
    <g id="ytick_9">
     <g id="line2d_40">
      <g>
       <use xlink:href="#mf013765068" x="72" y="230.071699" style="stroke: #000000; stroke-width: 0.6"/>
      </g>
     </g>
    </g>
    <g id="ytick_10">
     <g id="line2d_41">
      <g>
       <use xlink:href="#mf013765068" x="72" y="206.068251" style="stroke: #000000; stroke-width: 0.6"/>
      </g>
     </g>
    </g>
    <g id="ytick_11">
     <g id="line2d_42">
      <g>
       <use xlink:href="#mf013765068" x="72" y="194.066526" style="stroke: #000000; stroke-width: 0.6"/>
      </g>
     </g>
    </g>
    <g id="ytick_12">
     <g id="line2d_43">
      <g>
       <use xlink:href="#mf013765068" x="72" y="182.064802" style="stroke: #000000; stroke-width: 0.6"/>
      </g>
     </g>
    </g>
    <g id="ytick_13">
     <g id="line2d_44">
      <g>
       <use xlink:href="#mf013765068" x="72" y="158.061354" style="stroke: #000000; stroke-width: 0.6"/>
      </g>
     </g>
    </g>
    <g id="ytick_14">
     <g id="line2d_45">
      <g>
       <use xlink:href="#mf013765068" x="72" y="146.059629" style="stroke: #000000; stroke-width: 0.6"/>
      </g>
     </g>
    </g>
    <g id="ytick_15">
     <g id="line2d_46">
      <g>
       <use xlink:href="#mf013765068" x="72" y="134.057905" style="stroke: #000000; stroke-width: 0.6"/>
      </g>
     </g>
    </g>
    <g id="ytick_16">
     <g id="line2d_47">
      <g>
       <use xlink:href="#mf013765068" x="72" y="110.054456" style="stroke: #000000; stroke-width: 0.6"/>
      </g>
     </g>
    </g>
    <g id="ytick_17">
     <g id="line2d_48">
      <g>
       <use xlink:href="#mf013765068" x="72" y="98.052732" style="stroke: #000000; stroke-width: 0.6"/>
      </g>
     </g>
    </g>
    <g id="ytick_18">
     <g id="line2d_49">
      <g>
       <use xlink:href="#mf013765068" x="72" y="86.051008" style="stroke: #000000; stroke-width: 0.6"/>
      </g>
     </g>
    </g>
    <g id="text_6">
     <!-- Displacement (m) -->
     <g transform="translate(47.678125 222.716563) rotate(-90) scale(0.1 -0.1)">
      <defs>
       <path id="DejaVuSerif-44" d="M 1581 331 
L 2163 331 
Q 3072 331 3558 850 
Q 4044 1369 4044 2338 
Q 4044 3306 3559 3818 
Q 3075 4331 2163 4331 
L 1581 4331 
L 1581 331 
z
M 353 0 
L 353 331 
L 947 331 
L 947 4331 
L 353 4331 
L 353 4666 
L 2209 4666 
Q 3416 4666 4089 4050 
Q 4763 3434 4763 2338 
Q 4763 1238 4088 619 
Q 3413 0 2209 0 
L 353 0 
z
" transform="scale(0.015625)"/>
       <path id="DejaVuSerif-69" d="M 622 4353 
Q 622 4497 726 4603 
Q 831 4709 978 4709 
Q 1122 4709 1226 4603 
Q 1331 4497 1331 4353 
Q 1331 4206 1228 4103 
Q 1125 4000 978 4000 
Q 831 4000 726 4103 
Q 622 4206 622 4353 
z
M 1356 331 
L 1900 331 
L 1900 0 
L 231 0 
L 231 331 
L 781 331 
L 781 2988 
L 231 2988 
L 231 3322 
L 1356 3322 
L 1356 331 
z
" transform="scale(0.015625)"/>
       <path id="DejaVuSerif-73" d="M 359 184 
L 359 959 
L 691 959 
Q 703 588 923 403 
Q 1144 219 1575 219 
Q 1963 219 2166 364 
Q 2369 509 2369 788 
Q 2369 1006 2220 1140 
Q 2072 1275 1594 1428 
L 1178 1569 
Q 750 1706 558 1912 
Q 366 2119 366 2438 
Q 366 2894 700 3153 
Q 1034 3413 1625 3413 
Q 1888 3413 2178 3344 
Q 2469 3275 2778 3144 
L 2778 2419 
L 2447 2419 
Q 2434 2741 2221 2922 
Q 2009 3103 1644 3103 
Q 1281 3103 1095 2975 
Q 909 2847 909 2591 
Q 909 2381 1050 2254 
Q 1191 2128 1613 1997 
L 2069 1856 
Q 2541 1709 2748 1489 
Q 2956 1269 2956 922 
Q 2956 450 2595 179 
Q 2234 -91 1600 -91 
Q 1278 -91 972 -22 
Q 666 47 359 184 
z
" transform="scale(0.015625)"/>
       <path id="DejaVuSerif-70" d="M 1313 1825 
L 1313 1497 
Q 1313 897 1542 583 
Q 1772 269 2209 269 
Q 2650 269 2876 622 
Q 3103 975 3103 1663 
Q 3103 2353 2876 2703 
Q 2650 3053 2209 3053 
Q 1772 3053 1542 2737 
Q 1313 2422 1313 1825 
z
M 738 2988 
L 184 2988 
L 184 3322 
L 1313 3322 
L 1313 2803 
Q 1481 3116 1742 3264 
Q 2003 3413 2388 3413 
Q 3000 3413 3387 2928 
Q 3775 2444 3775 1663 
Q 3775 881 3387 395 
Q 3000 -91 2388 -91 
Q 2003 -91 1742 57 
Q 1481 206 1313 519 
L 1313 -997 
L 1856 -997 
L 1856 -1331 
L 184 -1331 
L 184 -997 
L 738 -997 
L 738 2988 
z
" transform="scale(0.015625)"/>
       <path id="DejaVuSerif-6c" d="M 1313 331 
L 1856 331 
L 1856 0 
L 184 0 
L 184 331 
L 738 331 
L 738 4531 
L 184 4531 
L 184 4863 
L 1313 4863 
L 1313 331 
z
" transform="scale(0.015625)"/>
       <path id="DejaVuSerif-61" d="M 2547 1044 
L 2547 1747 
L 1806 1747 
Q 1378 1747 1168 1562 
Q 959 1378 959 997 
Q 959 650 1171 447 
Q 1384 244 1747 244 
Q 2106 244 2326 466 
Q 2547 688 2547 1044 
z
M 3122 2075 
L 3122 331 
L 3634 331 
L 3634 0 
L 2547 0 
L 2547 359 
Q 2356 128 2106 18 
Q 1856 -91 1522 -91 
Q 969 -91 644 203 
Q 319 497 319 997 
Q 319 1513 691 1797 
Q 1063 2081 1741 2081 
L 2547 2081 
L 2547 2309 
Q 2547 2688 2317 2895 
Q 2088 3103 1672 3103 
Q 1328 3103 1125 2947 
Q 922 2791 872 2484 
L 575 2484 
L 575 3156 
Q 875 3284 1158 3348 
Q 1441 3413 1709 3413 
Q 2400 3413 2761 3070 
Q 3122 2728 3122 2075 
z
" transform="scale(0.015625)"/>
       <path id="DejaVuSerif-63" d="M 3291 997 
Q 3169 466 2822 187 
Q 2475 -91 1925 -91 
Q 1200 -91 759 389 
Q 319 869 319 1663 
Q 319 2459 759 2936 
Q 1200 3413 1925 3413 
Q 2241 3413 2553 3339 
Q 2866 3266 3181 3116 
L 3181 2266 
L 2847 2266 
Q 2781 2703 2561 2903 
Q 2341 3103 1931 3103 
Q 1466 3103 1228 2742 
Q 991 2381 991 1663 
Q 991 944 1227 581 
Q 1463 219 1931 219 
Q 2303 219 2525 412 
Q 2747 606 2828 997 
L 3291 997 
z
" transform="scale(0.015625)"/>
       <path id="DejaVuSerif-65" d="M 3469 1600 
L 991 1600 
L 991 1575 
Q 991 903 1244 561 
Q 1497 219 1991 219 
Q 2369 219 2611 417 
Q 2853 616 2950 1006 
L 3413 1006 
Q 3275 459 2904 184 
Q 2534 -91 1931 -91 
Q 1203 -91 761 389 
Q 319 869 319 1663 
Q 319 2450 753 2931 
Q 1188 3413 1894 3413 
Q 2647 3413 3050 2948 
Q 3453 2484 3469 1600 
z
M 2791 1931 
Q 2772 2513 2545 2808 
Q 2319 3103 1894 3103 
Q 1497 3103 1269 2806 
Q 1041 2509 991 1931 
L 2791 1931 
z
" transform="scale(0.015625)"/>
       <path id="DejaVuSerif-6d" d="M 3316 2675 
Q 3481 3041 3739 3227 
Q 3997 3413 4341 3413 
Q 4863 3413 5119 3089 
Q 5375 2766 5375 2113 
L 5375 331 
L 5894 331 
L 5894 0 
L 4300 0 
L 4300 331 
L 4800 331 
L 4800 2047 
Q 4800 2556 4650 2772 
Q 4500 2988 4153 2988 
Q 3769 2988 3567 2697 
Q 3366 2406 3366 1850 
L 3366 331 
L 3866 331 
L 3866 0 
L 2291 0 
L 2291 331 
L 2791 331 
L 2791 2069 
Q 2791 2566 2641 2777 
Q 2491 2988 2144 2988 
Q 1759 2988 1557 2697 
Q 1356 2406 1356 1850 
L 1356 331 
L 1856 331 
L 1856 0 
L 263 0 
L 263 331 
L 781 331 
L 781 2994 
L 231 2994 
L 231 3322 
L 1356 3322 
L 1356 2731 
Q 1516 3063 1762 3238 
Q 2009 3413 2322 3413 
Q 2709 3413 2968 3220 
Q 3228 3028 3316 2675 
z
" transform="scale(0.015625)"/>
       <path id="DejaVuSerif-6e" d="M 263 0 
L 263 331 
L 781 331 
L 781 2988 
L 231 2988 
L 231 3322 
L 1356 3322 
L 1356 2731 
Q 1516 3069 1770 3241 
Q 2025 3413 2363 3413 
Q 2913 3413 3172 3097 
Q 3431 2781 3431 2113 
L 3431 331 
L 3944 331 
L 3944 0 
L 2356 0 
L 2356 331 
L 2853 331 
L 2853 1931 
Q 2853 2541 2703 2767 
Q 2553 2994 2175 2994 
Q 1775 2994 1565 2701 
Q 1356 2409 1356 1850 
L 1356 331 
L 1856 331 
L 1856 0 
L 263 0 
z
" transform="scale(0.015625)"/>
       <path id="DejaVuSerif-74" d="M 691 2988 
L 184 2988 
L 184 3322 
L 691 3322 
L 691 4353 
L 1269 4353 
L 1269 3322 
L 2350 3322 
L 2350 2988 
L 1269 2988 
L 1269 878 
Q 1269 456 1350 337 
Q 1431 219 1650 219 
Q 1875 219 1978 351 
Q 2081 484 2088 781 
L 2522 781 
Q 2497 328 2275 118 
Q 2053 -91 1600 -91 
Q 1103 -91 897 129 
Q 691 350 691 878 
L 691 2988 
z
" transform="scale(0.015625)"/>
       <path id="DejaVuSerif-20" transform="scale(0.015625)"/>
       <path id="DejaVuSerif-28" d="M 2041 -997 
Q 1281 -656 893 83 
Q 506 822 506 1931 
Q 506 3044 893 3783 
Q 1281 4522 2041 4863 
L 2041 4556 
Q 1559 4225 1350 3623 
Q 1141 3022 1141 1931 
Q 1141 844 1350 242 
Q 1559 -359 2041 -691 
L 2041 -997 
z
" transform="scale(0.015625)"/>
       <path id="DejaVuSerif-29" d="M 453 -997 
L 453 -691 
Q 934 -359 1145 242 
Q 1356 844 1356 1931 
Q 1356 3022 1145 3623 
Q 934 4225 453 4556 
L 453 4863 
Q 1216 4522 1603 3783 
Q 1991 3044 1991 1931 
Q 1991 822 1603 83 
Q 1216 -656 453 -997 
z
" transform="scale(0.015625)"/>
      </defs>
      <use xlink:href="#DejaVuSerif-44"/>
      <use xlink:href="#DejaVuSerif-69" x="80.175781"/>
      <use xlink:href="#DejaVuSerif-73" x="112.158203"/>
      <use xlink:href="#DejaVuSerif-70" x="163.476562"/>
      <use xlink:href="#DejaVuSerif-6c" x="227.490234"/>
      <use xlink:href="#DejaVuSerif-61" x="259.472656"/>
      <use xlink:href="#DejaVuSerif-63" x="319.091797"/>
      <use xlink:href="#DejaVuSerif-65" x="375.097656"/>
      <use xlink:href="#DejaVuSerif-6d" x="434.277344"/>
      <use xlink:href="#DejaVuSerif-65" x="529.101562"/>
      <use xlink:href="#DejaVuSerif-6e" x="588.28125"/>
      <use xlink:href="#DejaVuSerif-74" x="652.685547"/>
      <use xlink:href="#DejaVuSerif-20" x="692.871094"/>
      <use xlink:href="#DejaVuSerif-28" x="724.658203"/>
      <use xlink:href="#DejaVuSerif-6d" x="763.671875"/>
      <use xlink:href="#DejaVuSerif-29" x="858.496094"/>
     </g>
    </g>
   </g>
   <g id="line2d_50">
    <path d="M 72 170.063078 
L 77.952 160.557712 
L 80.928 156.139637 
L 83.904 152.191089 
L 85.392 150.446106 
L 86.88 148.879842 
L 88.368 147.509748 
L 89.856 146.351487 
L 91.344 145.418758 
L 92.832 144.723146 
L 94.32 144.273977 
L 95.808 144.078207 
L 97.296 144.140328 
L 98.784 144.462298 
L 100.272 145.043496 
L 101.76 145.880701 
L 103.248 146.968102 
L 104.736 148.297326 
L 106.224 149.857501 
L 107.712 151.635333 
L 110.688 155.779386 
L 113.664 160.579511 
L 116.64 165.856409 
L 127.056 185.050266 
L 130.032 189.831875 
L 131.52 191.973214 
L 133.008 193.916865 
L 134.496 195.641414 
L 135.984 197.127426 
L 137.472 198.357655 
L 138.96 199.31724 
L 140.448 199.993879 
L 141.936 200.377976 
L 143.424 200.462766 
L 144.912 200.244406 
L 146.4 199.72205 
L 147.888 198.897881 
L 149.376 197.777121 
L 150.864 196.368014 
L 152.352 194.681766 
L 153.84 192.732469 
L 155.328 190.536985 
L 158.304 185.48789 
L 161.28 179.718773 
L 164.256 173.446504 
L 173.184 154.091581 
L 176.16 148.323878 
L 179.136 143.311987 
L 180.624 141.158276 
L 182.112 139.272075 
L 183.6 137.674923 
L 185.088 136.385681 
L 186.576 135.42032 
L 188.064 134.791733 
L 189.552 134.509574 
L 191.04 134.580128 
L 192.528 135.006217 
L 194.016 135.787136 
L 195.504 136.918623 
L 196.992 138.39287 
L 198.48 140.198562 
L 199.968 142.320955 
L 201.456 144.741994 
L 202.944 147.440453 
L 205.92 153.570021 
L 208.896 160.484164 
L 213.36 171.746989 
L 219.312 186.88028 
L 222.288 193.811889 
L 225.264 199.930496 
L 226.752 202.601787 
L 228.24 204.974404 
L 229.728 207.021634 
L 231.216 208.71975 
L 232.704 210.048281 
L 234.192 210.990245 
L 235.68 211.532357 
L 237.168 211.665198 
L 238.656 211.383345 
L 240.144 210.685472 
L 241.632 209.574396 
L 243.12 208.057096 
L 244.608 206.144682 
L 246.096 203.852329 
L 247.584 201.199159 
L 249.072 198.208097 
L 250.56 194.905674 
L 253.536 187.489502 
L 256.512 179.225465 
L 260.976 165.935226 
L 265.44 152.615028 
L 268.416 144.313469 
L 271.392 136.877609 
L 272.88 133.584389 
L 274.368 130.623025 
L 275.856 128.026447 
L 277.344 125.824269 
L 278.832 124.042458 
L 280.32 122.703036 
L 281.808 121.823819 
L 283.296 121.418203 
L 284.784 121.494979 
L 286.272 122.058204 
L 287.76 123.10711 
L 289.248 124.636065 
L 290.736 126.634579 
L 292.224 129.087364 
L 293.712 131.974434 
L 295.2 135.27126 
L 296.688 138.948973 
L 299.664 147.311377 
L 302.64 156.754208 
L 307.104 172.153152 
L 313.056 192.8736 
L 316.032 202.37743 
L 319.008 210.776482 
L 320.496 214.447681 
L 321.984 217.711747 
L 323.472 220.531966 
L 324.96 222.875699 
L 326.448 224.714743 
L 327.936 226.025661 
L 329.424 226.790062 
L 330.912 226.994837 
L 332.4 226.632343 
L 333.888 225.70053 
L 335.376 224.203025 
L 336.864 222.149146 
L 338.352 219.553867 
L 339.84 216.437728 
L 341.328 212.82668 
L 342.816 208.751886 
L 344.304 204.249456 
L 347.28 194.128957 
L 350.256 182.839993 
L 354.72 164.665502 
L 359.184 146.427713 
L 362.16 135.048564 
L 365.136 124.844776 
L 366.624 120.320869 
L 368.112 116.249146 
L 369.6 112.674844 
L 371.088 109.638682 
L 372.576 107.176402 
L 374.064 105.318367 
L 375.552 104.089197 
L 377.04 103.507475 
L 378.528 103.585492 
L 380.016 104.329065 
L 381.504 105.737414 
L 382.992 107.803103 
L 384.48 110.512048 
L 385.968 113.843593 
L 387.456 117.770649 
L 388.944 122.259899 
L 390.432 127.272074 
L 391.92 132.76228 
L 394.896 144.971521 
L 397.872 158.432339 
L 408.288 207.66982 
L 411.264 220.014674 
L 412.752 225.559395 
L 414.24 230.6046 
L 415.728 235.094842 
L 417.216 238.979669 
L 418.704 242.214178 
L 420.192 244.759521 
L 421.68 246.583353 
L 423.168 247.660221 
L 424.656 247.971886 
L 426.144 247.507579 
L 427.632 246.264185 
L 429.12 244.246345 
L 430.608 241.466495 
L 432.096 237.944811 
L 433.584 233.709094 
L 435.072 228.794559 
L 436.56 223.243564 
L 438.048 217.105254 
L 441.024 203.294603 
L 444 187.873774 
L 448.464 163.020453 
L 452.928 138.050007 
L 455.904 122.452643 
L 458.88 108.45095 
L 460.368 102.236649 
L 461.856 96.638469 
L 463.344 91.718554 
L 464.832 87.532885 
L 466.32 84.130661 
L 467.808 81.553739 
L 469.296 79.836141 
L 470.784 79.003636 
L 472.272 79.073401 
L 473.76 80.05376 
L 475.248 81.944016 
L 476.736 84.734366 
L 478.224 88.405906 
L 479.712 92.930732 
L 481.2 98.272131 
L 482.688 104.384853 
L 484.176 111.215485 
L 485.664 118.702899 
L 488.64 135.36828 
L 491.616 153.759897 
L 502.032 221.15977 
L 505.008 238.094149 
L 506.496 245.707661 
L 507.984 252.640863 
L 509.472 258.817619 
L 510.96 264.168597 
L 512.448 268.632029 
L 513.936 272.154407 
L 515.424 274.691095 
L 516.912 276.206869 
L 518.4 276.676364 
L 518.4 276.676364 
" clip-path="url(#pb1e9d7c77d)" style="fill: none; stroke: #1f77b4; stroke-width: 0.7; stroke-linecap: square"/>
   </g>
   <g id="line2d_51">
    <path d="M 72 170.063078 
L 76.464 162.957877 
L 79.44 158.536994 
L 82.416 154.576933 
L 83.904 152.820118 
L 85.392 151.23612 
L 86.88 149.840823 
L 88.368 148.648218 
L 89.856 147.670268 
L 91.344 146.916782 
L 92.832 146.395318 
L 94.32 146.11111 
L 95.808 146.067014 
L 97.296 146.263477 
L 98.784 146.698536 
L 100.272 147.367836 
L 101.76 148.264672 
L 103.248 149.380059 
L 104.736 150.702822 
L 106.224 152.219704 
L 109.2 155.773226 
L 112.176 159.89852 
L 115.152 164.430602 
L 125.568 180.818505 
L 128.544 184.876401 
L 131.52 188.341966 
L 133.008 189.808211 
L 134.496 191.076549 
L 135.984 192.134258 
L 137.472 192.970729 
L 138.96 193.577573 
L 140.448 193.948699 
L 141.936 194.080381 
L 143.424 193.971292 
L 144.912 193.622521 
L 146.4 193.037558 
L 147.888 192.222261 
L 149.376 191.184798 
L 150.864 189.935564 
L 152.352 188.487077 
L 153.84 186.853853 
L 156.816 183.100357 
L 159.792 178.825182 
L 164.256 171.81233 
L 170.208 162.328945 
L 173.184 157.957332 
L 176.16 154.06973 
L 177.648 152.356968 
L 179.136 150.821668 
L 180.624 149.479224 
L 182.112 148.343099 
L 183.6 147.424689 
L 185.088 146.733206 
L 186.576 146.275587 
L 188.064 146.056427 
L 189.552 146.077928 
L 191.04 146.33988 
L 192.528 146.839664 
L 194.016 147.572276 
L 195.504 148.530376 
L 196.992 149.704365 
L 198.48 151.08248 
L 199.968 152.650909 
L 202.944 156.294088 
L 205.92 160.488208 
L 210.384 167.441088 
L 216.336 176.966098 
L 219.312 181.409157 
L 222.288 185.398595 
L 225.264 188.774812 
L 226.752 190.189637 
L 228.24 191.402728 
L 229.728 192.40192 
L 231.216 193.17719 
L 232.704 193.72076 
L 234.192 194.027176 
L 235.68 194.093359 
L 237.168 193.91864 
L 238.656 193.504765 
L 240.144 192.855876 
L 241.632 191.978474 
L 243.12 190.881348 
L 244.608 189.575491 
L 246.096 188.07399 
L 249.072 184.546055 
L 252.048 180.438624 
L 255.024 175.915966 
L 265.44 159.492327 
L 268.416 155.406274 
L 271.392 151.906289 
L 272.88 150.420907 
L 274.368 149.1324 
L 275.856 148.053692 
L 277.344 147.1956 
L 278.832 146.566734 
L 280.32 146.173403 
L 281.808 146.019555 
L 283.296 146.106741 
L 284.784 146.43409 
L 286.272 146.998329 
L 287.76 147.793806 
L 289.248 148.812552 
L 290.736 150.04436 
L 292.224 151.476886 
L 293.712 153.095775 
L 296.688 156.826035 
L 299.664 161.085964 
L 304.128 168.092167 
L 310.08 177.597434 
L 313.056 181.992281 
L 316.032 185.91018 
L 317.52 187.64037 
L 319.008 189.194391 
L 320.496 190.556659 
L 321.984 191.713513 
L 323.472 192.65335 
L 324.96 193.366743 
L 326.448 193.846535 
L 327.936 194.08791 
L 329.424 194.088442 
L 330.912 193.84812 
L 332.4 193.369346 
L 333.888 192.656916 
L 335.376 191.717964 
L 336.864 190.561898 
L 338.352 189.200303 
L 339.84 187.646824 
L 342.816 184.028253 
L 345.792 179.850895 
L 348.768 175.281815 
L 357.696 161.085879 
L 360.672 156.822782 
L 363.648 153.089084 
L 365.136 151.468436 
L 366.624 150.034158 
L 368.112 148.800635 
L 369.6 147.780237 
L 371.088 146.983199 
L 372.576 146.417517 
L 374.064 146.088867 
L 375.552 146.000551 
L 377.04 146.153459 
L 378.528 146.546065 
L 380.016 147.174439 
L 381.504 148.032287 
L 382.992 149.111015 
L 384.48 150.399815 
L 385.968 151.885771 
L 388.944 155.387758 
L 391.92 159.476933 
L 394.896 163.989758 
L 405.312 180.447815 
L 408.288 184.561743 
L 411.264 188.095931 
L 412.752 189.600367 
L 414.24 190.90898 
L 415.728 192.008646 
L 417.216 192.888335 
L 418.704 193.539222 
L 420.192 193.954778 
L 421.68 194.130829 
L 423.168 194.065606 
L 424.656 193.759756 
L 426.144 193.216339 
L 427.632 192.440797 
L 429.12 191.440899 
L 430.608 190.226663 
L 432.096 188.810257 
L 433.584 187.205875 
L 436.56 183.499224 
L 439.536 179.254942 
L 444 172.256001 
L 449.952 162.729611 
L 452.928 158.31185 
L 455.904 154.363918 
L 457.392 152.616407 
L 458.88 151.043755 
L 460.368 149.661732 
L 461.856 148.484199 
L 463.344 147.522964 
L 464.832 146.787669 
L 466.32 146.285693 
L 467.808 146.022072 
L 469.296 145.999455 
L 470.784 146.218076 
L 472.272 146.675749 
L 473.76 147.367891 
L 475.248 148.287569 
L 476.736 149.42557 
L 478.224 150.77049 
L 479.712 152.308852 
L 482.688 155.902448 
L 485.664 160.062649 
L 488.64 164.623074 
L 499.056 181.044985 
L 502.032 185.092359 
L 505.008 188.538766 
L 506.496 189.992419 
L 507.984 191.246316 
L 509.472 192.287884 
L 510.96 193.106673 
L 512.448 193.694471 
L 513.936 194.045379 
L 515.424 194.155873 
L 516.912 194.02484 
L 518.4 193.653586 
L 518.4 193.653586 
" clip-path="url(#pb1e9d7c77d)" style="fill: none; stroke: #ff7f0e; stroke-width: 0.7; stroke-linecap: square"/>
   </g>
   <g id="line2d_52">
    <path d="M 72 170.063078 
L 76.464 162.969574 
L 79.44 158.555212 
L 82.416 154.599632 
L 83.904 152.844058 
L 85.392 151.260531 
L 86.88 149.864872 
L 88.368 148.671028 
L 89.856 147.690926 
L 91.344 146.934359 
L 92.832 146.408886 
L 94.32 146.119758 
L 95.808 146.069864 
L 97.296 146.259703 
L 98.784 146.687376 
L 100.272 147.348612 
L 101.76 148.236804 
L 103.248 149.343076 
L 104.736 150.656376 
L 106.224 152.163581 
L 109.2 155.697683 
L 112.176 159.804487 
L 115.152 164.320269 
L 125.568 180.685095 
L 128.544 184.749777 
L 131.52 188.228948 
L 133.008 189.70455 
L 134.496 190.983902 
L 135.984 192.05422 
L 137.472 192.904809 
L 138.96 193.527172 
L 140.448 193.915089 
L 141.936 194.064684 
L 143.424 193.974464 
L 144.912 193.645329 
L 146.4 193.080567 
L 147.888 192.285823 
L 149.376 191.269036 
L 150.864 190.040367 
L 152.352 188.61209 
L 153.84 186.998479 
L 156.816 183.28143 
L 159.792 179.037407 
L 164.256 172.05751 
L 170.208 162.585011 
L 173.184 158.202653 
L 176.16 154.293134 
L 177.648 152.565307 
L 179.136 151.012312 
L 180.624 149.649666 
L 182.112 148.490984 
L 183.6 147.547844 
L 185.088 146.829668 
L 186.576 146.343632 
L 188.064 146.094594 
L 189.552 146.085041 
L 191.04 146.315068 
L 192.528 146.782378 
L 194.016 147.4823 
L 195.504 148.407843 
L 196.992 149.549757 
L 198.48 150.896634 
L 199.968 152.435015 
L 202.944 156.023048 
L 205.92 160.170813 
L 208.896 164.712951 
L 219.312 181.045517 
L 222.288 185.066929 
L 225.264 188.490185 
L 226.752 189.933768 
L 228.24 191.17881 
L 229.728 192.21287 
L 231.216 193.025617 
L 232.704 193.60893 
L 234.192 193.956981 
L 235.68 194.066291 
L 237.168 193.93577 
L 238.656 193.56672 
L 240.144 192.96283 
L 241.632 192.130133 
L 243.12 191.076949 
L 244.608 189.813802 
L 246.096 188.353312 
L 247.584 186.710072 
L 250.56 182.942678 
L 253.536 178.661816 
L 258 171.655032 
L 263.952 162.202562 
L 266.928 157.853449 
L 269.904 153.991095 
L 271.392 152.291503 
L 272.88 150.76948 
L 274.368 149.440231 
L 275.856 148.31704 
L 277.344 147.411127 
L 278.832 146.731546 
L 280.32 146.285085 
L 281.808 146.076206 
L 283.296 146.106996 
L 284.784 146.377148 
L 286.272 146.883961 
L 287.76 147.622372 
L 289.248 148.585004 
L 290.736 149.762237 
L 292.224 151.14231 
L 293.712 152.711433 
L 296.688 156.352383 
L 299.664 160.539936 
L 304.128 167.476619 
L 310.08 176.97375 
L 313.056 181.402835 
L 316.032 185.379839 
L 319.008 188.746212 
L 320.496 190.157367 
L 321.984 191.367748 
L 323.472 192.365258 
L 324.96 193.139933 
L 326.448 193.684032 
L 327.936 193.992117 
L 329.424 194.061112 
L 330.912 193.890326 
L 332.4 193.481467 
L 333.888 192.838618 
L 335.376 191.968204 
L 336.864 190.878921 
L 338.352 189.581653 
L 339.84 188.089362 
L 342.816 184.581151 
L 345.792 180.494151 
L 348.768 175.991297 
L 359.184 159.612808 
L 362.16 155.528033 
L 365.136 152.022724 
L 366.624 150.532102 
L 368.112 149.236627 
L 369.6 148.149243 
L 371.088 147.280815 
L 372.576 146.64002 
L 374.064 146.23326 
L 375.552 146.0646 
L 377.04 146.135725 
L 378.528 146.445924 
L 380.016 146.992098 
L 381.504 147.768789 
L 382.992 148.768238 
L 384.48 149.980457 
L 385.968 151.393336 
L 387.456 152.992756 
L 390.432 156.685595 
L 393.408 160.911751 
L 397.872 167.878226 
L 403.824 177.359277 
L 406.8 181.756946 
L 409.776 185.688418 
L 411.264 187.429447 
L 412.752 188.996957 
L 414.24 190.375286 
L 415.728 191.550662 
L 417.216 192.511341 
L 418.704 193.247724 
L 420.192 193.752455 
L 421.68 194.020488 
L 423.168 194.049148 
L 424.656 193.838146 
L 426.144 193.389592 
L 427.632 192.707967 
L 429.12 191.800081 
L 430.608 190.675007 
L 432.096 189.343985 
L 433.584 187.820315 
L 436.56 184.257698 
L 439.536 180.129186 
L 442.512 175.59937 
L 452.928 159.25095 
L 455.904 155.208903 
L 458.88 151.759045 
L 460.368 150.300247 
L 461.856 149.038911 
L 463.344 147.987643 
L 464.832 147.156945 
L 466.32 146.555117 
L 467.808 146.188173 
L 469.296 146.059779 
L 470.784 146.171219 
L 472.272 146.521378 
L 473.76 147.106757 
L 475.248 147.921509 
L 476.736 148.957492 
L 478.224 150.204355 
L 479.712 151.64964 
L 481.2 153.278906 
L 484.176 157.022588 
L 487.152 161.286154 
L 491.616 168.280451 
L 497.568 177.74274 
L 500.544 182.107752 
L 503.52 185.99258 
L 505.008 187.705603 
L 506.496 189.242349 
L 507.984 190.587461 
L 509.472 191.727501 
L 510.96 192.651077 
L 512.448 193.348961 
L 513.936 193.81418 
L 515.424 194.042086 
L 516.912 194.030402 
L 518.4 193.779244 
L 518.4 193.779244 
" clip-path="url(#pb1e9d7c77d)" style="fill: none; stroke-dasharray: 2.59,1.12; stroke-dashoffset: 0; stroke: #000000; stroke-width: 0.7"/>
   </g>
   <g id="patch_3">
    <path d="M 72 286.56 
L 72 69.12 
" style="fill: none; stroke: #000000; stroke-width: 0.8; stroke-linejoin: miter; stroke-linecap: square"/>
   </g>
   <g id="patch_4">
    <path d="M 518.4 286.56 
L 518.4 69.12 
" style="fill: none; stroke: #000000; stroke-width: 0.8; stroke-linejoin: miter; stroke-linecap: square"/>
   </g>
   <g id="patch_5">
    <path d="M 72 286.56 
L 518.4 286.56 
" style="fill: none; stroke: #000000; stroke-width: 0.8; stroke-linejoin: miter; stroke-linecap: square"/>
   </g>
   <g id="patch_6">
    <path d="M 72 69.12 
L 518.4 69.12 
" style="fill: none; stroke: #000000; stroke-width: 0.8; stroke-linejoin: miter; stroke-linecap: square"/>
   </g>
  </g>
  <g id="axes_2">
   <g id="patch_7">
    <path d="M 72 504 
L 518.4 504 
L 518.4 286.56 
L 72 286.56 
z
" style="fill: #ffffff"/>
   </g>
   <g id="matplotlib.axis_3">
    <g id="xtick_32">
     <g id="line2d_53">
      <g>
       <use xlink:href="#mb4c682b466" x="72" y="504" style="stroke: #000000; stroke-width: 0.8"/>
      </g>
     </g>
     <g id="text_7">
      <!-- 0 -->
      <g transform="translate(68.81875 515.098438) scale(0.1 -0.1)">
       <use xlink:href="#DejaVuSans-30"/>
      </g>
     </g>
    </g>
    <g id="xtick_33">
     <g id="line2d_54">
      <g>
       <use xlink:href="#mb4c682b466" x="146.4" y="504" style="stroke: #000000; stroke-width: 0.8"/>
      </g>
     </g>
     <g id="text_8">
      <!-- 5 -->
      <g transform="translate(143.21875 515.098438) scale(0.1 -0.1)">
       <defs>
        <path id="DejaVuSans-35" d="M 691 4666 
L 3169 4666 
L 3169 4134 
L 1269 4134 
L 1269 2991 
Q 1406 3038 1543 3061 
Q 1681 3084 1819 3084 
Q 2600 3084 3056 2656 
Q 3513 2228 3513 1497 
Q 3513 744 3044 326 
Q 2575 -91 1722 -91 
Q 1428 -91 1123 -41 
Q 819 9 494 109 
L 494 744 
Q 775 591 1075 516 
Q 1375 441 1709 441 
Q 2250 441 2565 725 
Q 2881 1009 2881 1497 
Q 2881 1984 2565 2268 
Q 2250 2553 1709 2553 
Q 1456 2553 1204 2497 
Q 953 2441 691 2322 
L 691 4666 
z
" transform="scale(0.015625)"/>
       </defs>
       <use xlink:href="#DejaVuSans-35"/>
      </g>
     </g>
    </g>
    <g id="xtick_34">
     <g id="line2d_55">
      <g>
       <use xlink:href="#mb4c682b466" x="220.8" y="504" style="stroke: #000000; stroke-width: 0.8"/>
      </g>
     </g>
     <g id="text_9">
      <!-- 10 -->
      <g transform="translate(214.4375 515.098438) scale(0.1 -0.1)">
       <defs>
        <path id="DejaVuSans-31" d="M 794 531 
L 1825 531 
L 1825 4091 
L 703 3866 
L 703 4441 
L 1819 4666 
L 2450 4666 
L 2450 531 
L 3481 531 
L 3481 0 
L 794 0 
L 794 531 
z
" transform="scale(0.015625)"/>
       </defs>
       <use xlink:href="#DejaVuSans-31"/>
       <use xlink:href="#DejaVuSans-30" x="63.623047"/>
      </g>
     </g>
    </g>
    <g id="xtick_35">
     <g id="line2d_56">
      <g>
       <use xlink:href="#mb4c682b466" x="295.2" y="504" style="stroke: #000000; stroke-width: 0.8"/>
      </g>
     </g>
     <g id="text_10">
      <!-- 15 -->
      <g transform="translate(288.8375 515.098438) scale(0.1 -0.1)">
       <use xlink:href="#DejaVuSans-31"/>
       <use xlink:href="#DejaVuSans-35" x="63.623047"/>
      </g>
     </g>
    </g>
    <g id="xtick_36">
     <g id="line2d_57">
      <g>
       <use xlink:href="#mb4c682b466" x="369.6" y="504" style="stroke: #000000; stroke-width: 0.8"/>
      </g>
     </g>
     <g id="text_11">
      <!-- 20 -->
      <g transform="translate(363.2375 515.098438) scale(0.1 -0.1)">
       <use xlink:href="#DejaVuSans-32"/>
       <use xlink:href="#DejaVuSans-30" x="63.623047"/>
      </g>
     </g>
    </g>
    <g id="xtick_37">
     <g id="line2d_58">
      <g>
       <use xlink:href="#mb4c682b466" x="444" y="504" style="stroke: #000000; stroke-width: 0.8"/>
      </g>
     </g>
     <g id="text_12">
      <!-- 25 -->
      <g transform="translate(437.6375 515.098438) scale(0.1 -0.1)">
       <use xlink:href="#DejaVuSans-32"/>
       <use xlink:href="#DejaVuSans-35" x="63.623047"/>
      </g>
     </g>
    </g>
    <g id="xtick_38">
     <g id="line2d_59">
      <g>
       <use xlink:href="#mb4c682b466" x="518.4" y="504" style="stroke: #000000; stroke-width: 0.8"/>
      </g>
     </g>
     <g id="text_13">
      <!-- 30 -->
      <g transform="translate(512.0375 515.098438) scale(0.1 -0.1)">
       <defs>
        <path id="DejaVuSans-33" d="M 2597 2516 
Q 3050 2419 3304 2112 
Q 3559 1806 3559 1356 
Q 3559 666 3084 287 
Q 2609 -91 1734 -91 
Q 1441 -91 1130 -33 
Q 819 25 488 141 
L 488 750 
Q 750 597 1062 519 
Q 1375 441 1716 441 
Q 2309 441 2620 675 
Q 2931 909 2931 1356 
Q 2931 1769 2642 2001 
Q 2353 2234 1838 2234 
L 1294 2234 
L 1294 2753 
L 1863 2753 
Q 2328 2753 2575 2939 
Q 2822 3125 2822 3475 
Q 2822 3834 2567 4026 
Q 2313 4219 1838 4219 
Q 1578 4219 1281 4162 
Q 984 4106 628 3988 
L 628 4550 
Q 988 4650 1302 4700 
Q 1616 4750 1894 4750 
Q 2613 4750 3031 4423 
Q 3450 4097 3450 3541 
Q 3450 3153 3228 2886 
Q 3006 2619 2597 2516 
z
" transform="scale(0.015625)"/>
       </defs>
       <use xlink:href="#DejaVuSans-33"/>
       <use xlink:href="#DejaVuSans-30" x="63.623047"/>
      </g>
     </g>
    </g>
    <g id="xtick_39">
     <g id="line2d_60">
      <g>
       <use xlink:href="#m5ee537d7fb" x="86.88" y="504" style="stroke: #000000; stroke-width: 0.6"/>
      </g>
     </g>
    </g>
    <g id="xtick_40">
     <g id="line2d_61">
      <g>
       <use xlink:href="#m5ee537d7fb" x="101.76" y="504" style="stroke: #000000; stroke-width: 0.6"/>
      </g>
     </g>
    </g>
    <g id="xtick_41">
     <g id="line2d_62">
      <g>
       <use xlink:href="#m5ee537d7fb" x="116.64" y="504" style="stroke: #000000; stroke-width: 0.6"/>
      </g>
     </g>
    </g>
    <g id="xtick_42">
     <g id="line2d_63">
      <g>
       <use xlink:href="#m5ee537d7fb" x="131.52" y="504" style="stroke: #000000; stroke-width: 0.6"/>
      </g>
     </g>
    </g>
    <g id="xtick_43">
     <g id="line2d_64">
      <g>
       <use xlink:href="#m5ee537d7fb" x="161.28" y="504" style="stroke: #000000; stroke-width: 0.6"/>
      </g>
     </g>
    </g>
    <g id="xtick_44">
     <g id="line2d_65">
      <g>
       <use xlink:href="#m5ee537d7fb" x="176.16" y="504" style="stroke: #000000; stroke-width: 0.6"/>
      </g>
     </g>
    </g>
    <g id="xtick_45">
     <g id="line2d_66">
      <g>
       <use xlink:href="#m5ee537d7fb" x="191.04" y="504" style="stroke: #000000; stroke-width: 0.6"/>
      </g>
     </g>
    </g>
    <g id="xtick_46">
     <g id="line2d_67">
      <g>
       <use xlink:href="#m5ee537d7fb" x="205.92" y="504" style="stroke: #000000; stroke-width: 0.6"/>
      </g>
     </g>
    </g>
    <g id="xtick_47">
     <g id="line2d_68">
      <g>
       <use xlink:href="#m5ee537d7fb" x="235.68" y="504" style="stroke: #000000; stroke-width: 0.6"/>
      </g>
     </g>
    </g>
    <g id="xtick_48">
     <g id="line2d_69">
      <g>
       <use xlink:href="#m5ee537d7fb" x="250.56" y="504" style="stroke: #000000; stroke-width: 0.6"/>
      </g>
     </g>
    </g>
    <g id="xtick_49">
     <g id="line2d_70">
      <g>
       <use xlink:href="#m5ee537d7fb" x="265.44" y="504" style="stroke: #000000; stroke-width: 0.6"/>
      </g>
     </g>
    </g>
    <g id="xtick_50">
     <g id="line2d_71">
      <g>
       <use xlink:href="#m5ee537d7fb" x="280.32" y="504" style="stroke: #000000; stroke-width: 0.6"/>
      </g>
     </g>
    </g>
    <g id="xtick_51">
     <g id="line2d_72">
      <g>
       <use xlink:href="#m5ee537d7fb" x="310.08" y="504" style="stroke: #000000; stroke-width: 0.6"/>
      </g>
     </g>
    </g>
    <g id="xtick_52">
     <g id="line2d_73">
      <g>
       <use xlink:href="#m5ee537d7fb" x="324.96" y="504" style="stroke: #000000; stroke-width: 0.6"/>
      </g>
     </g>
    </g>
    <g id="xtick_53">
     <g id="line2d_74">
      <g>
       <use xlink:href="#m5ee537d7fb" x="339.84" y="504" style="stroke: #000000; stroke-width: 0.6"/>
      </g>
     </g>
    </g>
    <g id="xtick_54">
     <g id="line2d_75">
      <g>
       <use xlink:href="#m5ee537d7fb" x="354.72" y="504" style="stroke: #000000; stroke-width: 0.6"/>
      </g>
     </g>
    </g>
    <g id="xtick_55">
     <g id="line2d_76">
      <g>
       <use xlink:href="#m5ee537d7fb" x="384.48" y="504" style="stroke: #000000; stroke-width: 0.6"/>
      </g>
     </g>
    </g>
    <g id="xtick_56">
     <g id="line2d_77">
      <g>
       <use xlink:href="#m5ee537d7fb" x="399.36" y="504" style="stroke: #000000; stroke-width: 0.6"/>
      </g>
     </g>
    </g>
    <g id="xtick_57">
     <g id="line2d_78">
      <g>
       <use xlink:href="#m5ee537d7fb" x="414.24" y="504" style="stroke: #000000; stroke-width: 0.6"/>
      </g>
     </g>
    </g>
    <g id="xtick_58">
     <g id="line2d_79">
      <g>
       <use xlink:href="#m5ee537d7fb" x="429.12" y="504" style="stroke: #000000; stroke-width: 0.6"/>
      </g>
     </g>
    </g>
    <g id="xtick_59">
     <g id="line2d_80">
      <g>
       <use xlink:href="#m5ee537d7fb" x="458.88" y="504" style="stroke: #000000; stroke-width: 0.6"/>
      </g>
     </g>
    </g>
    <g id="xtick_60">
     <g id="line2d_81">
      <g>
       <use xlink:href="#m5ee537d7fb" x="473.76" y="504" style="stroke: #000000; stroke-width: 0.6"/>
      </g>
     </g>
    </g>
    <g id="xtick_61">
     <g id="line2d_82">
      <g>
       <use xlink:href="#m5ee537d7fb" x="488.64" y="504" style="stroke: #000000; stroke-width: 0.6"/>
      </g>
     </g>
    </g>
    <g id="xtick_62">
     <g id="line2d_83">
      <g>
       <use xlink:href="#m5ee537d7fb" x="503.52" y="504" style="stroke: #000000; stroke-width: 0.6"/>
      </g>
     </g>
    </g>
    <g id="text_14">
     <!-- Time (s) -->
     <g transform="translate(274.508594 528.776562) scale(0.1 -0.1)">
      <defs>
       <path id="DejaVuSerif-54" d="M 1222 0 
L 1222 331 
L 1819 331 
L 1819 4294 
L 447 4294 
L 447 3566 
L 63 3566 
L 63 4666 
L 4206 4666 
L 4206 3566 
L 3822 3566 
L 3822 4294 
L 2450 4294 
L 2450 331 
L 3047 331 
L 3047 0 
L 1222 0 
z
" transform="scale(0.015625)"/>
      </defs>
      <use xlink:href="#DejaVuSerif-54"/>
      <use xlink:href="#DejaVuSerif-69" x="66.699219"/>
      <use xlink:href="#DejaVuSerif-6d" x="98.681641"/>
      <use xlink:href="#DejaVuSerif-65" x="193.505859"/>
      <use xlink:href="#DejaVuSerif-20" x="252.685547"/>
      <use xlink:href="#DejaVuSerif-28" x="284.472656"/>
      <use xlink:href="#DejaVuSerif-73" x="323.486328"/>
      <use xlink:href="#DejaVuSerif-29" x="374.804688"/>
     </g>
    </g>
   </g>
   <g id="matplotlib.axis_4">
    <g id="ytick_19">
     <g id="line2d_84">
      <g>
       <use xlink:href="#m155ec57aab" x="72" y="500.114936" style="stroke: #000000; stroke-width: 0.8"/>
      </g>
     </g>
     <g id="text_15">
      <!-- −3 -->
      <g transform="translate(53.757812 503.914155) scale(0.1 -0.1)">
       <use xlink:href="#DejaVuSans-2212"/>
       <use xlink:href="#DejaVuSans-33" x="83.789062"/>
      </g>
     </g>
    </g>
    <g id="ytick_20">
     <g id="line2d_85">
      <g>
       <use xlink:href="#m155ec57aab" x="72" y="468.555362" style="stroke: #000000; stroke-width: 0.8"/>
      </g>
     </g>
     <g id="text_16">
      <!-- −2 -->
      <g transform="translate(53.757812 472.354581) scale(0.1 -0.1)">
       <use xlink:href="#DejaVuSans-2212"/>
       <use xlink:href="#DejaVuSans-32" x="83.789062"/>
      </g>
     </g>
    </g>
    <g id="ytick_21">
     <g id="line2d_86">
      <g>
       <use xlink:href="#m155ec57aab" x="72" y="436.995789" style="stroke: #000000; stroke-width: 0.8"/>
      </g>
     </g>
     <g id="text_17">
      <!-- −1 -->
      <g transform="translate(53.757812 440.795007) scale(0.1 -0.1)">
       <use xlink:href="#DejaVuSans-2212"/>
       <use xlink:href="#DejaVuSans-31" x="83.789062"/>
      </g>
     </g>
    </g>
    <g id="ytick_22">
     <g id="line2d_87">
      <g>
       <use xlink:href="#m155ec57aab" x="72" y="405.436215" style="stroke: #000000; stroke-width: 0.8"/>
      </g>
     </g>
     <g id="text_18">
      <!-- 0 -->
      <g transform="translate(62.1375 409.235434) scale(0.1 -0.1)">
       <use xlink:href="#DejaVuSans-30"/>
      </g>
     </g>
    </g>
    <g id="ytick_23">
     <g id="line2d_88">
      <g>
       <use xlink:href="#m155ec57aab" x="72" y="373.876641" style="stroke: #000000; stroke-width: 0.8"/>
      </g>
     </g>
     <g id="text_19">
      <!-- 1 -->
      <g transform="translate(62.1375 377.67586) scale(0.1 -0.1)">
       <use xlink:href="#DejaVuSans-31"/>
      </g>
     </g>
    </g>
    <g id="ytick_24">
     <g id="line2d_89">
      <g>
       <use xlink:href="#m155ec57aab" x="72" y="342.317068" style="stroke: #000000; stroke-width: 0.8"/>
      </g>
     </g>
     <g id="text_20">
      <!-- 2 -->
      <g transform="translate(62.1375 346.116286) scale(0.1 -0.1)">
       <use xlink:href="#DejaVuSans-32"/>
      </g>
     </g>
    </g>
    <g id="ytick_25">
     <g id="line2d_90">
      <g>
       <use xlink:href="#m155ec57aab" x="72" y="310.757494" style="stroke: #000000; stroke-width: 0.8"/>
      </g>
     </g>
     <g id="text_21">
      <!-- 3 -->
      <g transform="translate(62.1375 314.556713) scale(0.1 -0.1)">
       <use xlink:href="#DejaVuSans-33"/>
      </g>
     </g>
    </g>
    <g id="ytick_26">
     <g id="line2d_91">
      <g>
       <use xlink:href="#mf013765068" x="72" y="493.803021" style="stroke: #000000; stroke-width: 0.6"/>
      </g>
     </g>
    </g>
    <g id="ytick_27">
     <g id="line2d_92">
      <g>
       <use xlink:href="#mf013765068" x="72" y="487.491107" style="stroke: #000000; stroke-width: 0.6"/>
      </g>
     </g>
    </g>
    <g id="ytick_28">
     <g id="line2d_93">
      <g>
       <use xlink:href="#mf013765068" x="72" y="481.179192" style="stroke: #000000; stroke-width: 0.6"/>
      </g>
     </g>
    </g>
    <g id="ytick_29">
     <g id="line2d_94">
      <g>
       <use xlink:href="#mf013765068" x="72" y="474.867277" style="stroke: #000000; stroke-width: 0.6"/>
      </g>
     </g>
    </g>
    <g id="ytick_30">
     <g id="line2d_95">
      <g>
       <use xlink:href="#mf013765068" x="72" y="462.243448" style="stroke: #000000; stroke-width: 0.6"/>
      </g>
     </g>
    </g>
    <g id="ytick_31">
     <g id="line2d_96">
      <g>
       <use xlink:href="#mf013765068" x="72" y="455.931533" style="stroke: #000000; stroke-width: 0.6"/>
      </g>
     </g>
    </g>
    <g id="ytick_32">
     <g id="line2d_97">
      <g>
       <use xlink:href="#mf013765068" x="72" y="449.619618" style="stroke: #000000; stroke-width: 0.6"/>
      </g>
     </g>
    </g>
    <g id="ytick_33">
     <g id="line2d_98">
      <g>
       <use xlink:href="#mf013765068" x="72" y="443.307703" style="stroke: #000000; stroke-width: 0.6"/>
      </g>
     </g>
    </g>
    <g id="ytick_34">
     <g id="line2d_99">
      <g>
       <use xlink:href="#mf013765068" x="72" y="430.683874" style="stroke: #000000; stroke-width: 0.6"/>
      </g>
     </g>
    </g>
    <g id="ytick_35">
     <g id="line2d_100">
      <g>
       <use xlink:href="#mf013765068" x="72" y="424.371959" style="stroke: #000000; stroke-width: 0.6"/>
      </g>
     </g>
    </g>
    <g id="ytick_36">
     <g id="line2d_101">
      <g>
       <use xlink:href="#mf013765068" x="72" y="418.060044" style="stroke: #000000; stroke-width: 0.6"/>
      </g>
     </g>
    </g>
    <g id="ytick_37">
     <g id="line2d_102">
      <g>
       <use xlink:href="#mf013765068" x="72" y="411.74813" style="stroke: #000000; stroke-width: 0.6"/>
      </g>
     </g>
    </g>
    <g id="ytick_38">
     <g id="line2d_103">
      <g>
       <use xlink:href="#mf013765068" x="72" y="399.1243" style="stroke: #000000; stroke-width: 0.6"/>
      </g>
     </g>
    </g>
    <g id="ytick_39">
     <g id="line2d_104">
      <g>
       <use xlink:href="#mf013765068" x="72" y="392.812385" style="stroke: #000000; stroke-width: 0.6"/>
      </g>
     </g>
    </g>
    <g id="ytick_40">
     <g id="line2d_105">
      <g>
       <use xlink:href="#mf013765068" x="72" y="386.500471" style="stroke: #000000; stroke-width: 0.6"/>
      </g>
     </g>
    </g>
    <g id="ytick_41">
     <g id="line2d_106">
      <g>
       <use xlink:href="#mf013765068" x="72" y="380.188556" style="stroke: #000000; stroke-width: 0.6"/>
      </g>
     </g>
    </g>
    <g id="ytick_42">
     <g id="line2d_107">
      <g>
       <use xlink:href="#mf013765068" x="72" y="367.564727" style="stroke: #000000; stroke-width: 0.6"/>
      </g>
     </g>
    </g>
    <g id="ytick_43">
     <g id="line2d_108">
      <g>
       <use xlink:href="#mf013765068" x="72" y="361.252812" style="stroke: #000000; stroke-width: 0.6"/>
      </g>
     </g>
    </g>
    <g id="ytick_44">
     <g id="line2d_109">
      <g>
       <use xlink:href="#mf013765068" x="72" y="354.940897" style="stroke: #000000; stroke-width: 0.6"/>
      </g>
     </g>
    </g>
    <g id="ytick_45">
     <g id="line2d_110">
      <g>
       <use xlink:href="#mf013765068" x="72" y="348.628982" style="stroke: #000000; stroke-width: 0.6"/>
      </g>
     </g>
    </g>
    <g id="ytick_46">
     <g id="line2d_111">
      <g>
       <use xlink:href="#mf013765068" x="72" y="336.005153" style="stroke: #000000; stroke-width: 0.6"/>
      </g>
     </g>
    </g>
    <g id="ytick_47">
     <g id="line2d_112">
      <g>
       <use xlink:href="#mf013765068" x="72" y="329.693238" style="stroke: #000000; stroke-width: 0.6"/>
      </g>
     </g>
    </g>
    <g id="ytick_48">
     <g id="line2d_113">
      <g>
       <use xlink:href="#mf013765068" x="72" y="323.381323" style="stroke: #000000; stroke-width: 0.6"/>
      </g>
     </g>
    </g>
    <g id="ytick_49">
     <g id="line2d_114">
      <g>
       <use xlink:href="#mf013765068" x="72" y="317.069409" style="stroke: #000000; stroke-width: 0.6"/>
      </g>
     </g>
    </g>
    <g id="ytick_50">
     <g id="line2d_115">
      <g>
       <use xlink:href="#mf013765068" x="72" y="304.445579" style="stroke: #000000; stroke-width: 0.6"/>
      </g>
     </g>
    </g>
    <g id="ytick_51">
     <g id="line2d_116">
      <g>
       <use xlink:href="#mf013765068" x="72" y="298.133664" style="stroke: #000000; stroke-width: 0.6"/>
      </g>
     </g>
    </g>
    <g id="ytick_52">
     <g id="line2d_117">
      <g>
       <use xlink:href="#mf013765068" x="72" y="291.82175" style="stroke: #000000; stroke-width: 0.6"/>
      </g>
     </g>
    </g>
    <g id="text_22">
     <!-- Error (m) -->
     <g transform="translate(47.678125 419.341719) rotate(-90) scale(0.1 -0.1)">
      <defs>
       <path id="DejaVuSerif-45" d="M 353 0 
L 353 331 
L 947 331 
L 947 4331 
L 353 4331 
L 353 4666 
L 4109 4666 
L 4109 3628 
L 3725 3628 
L 3725 4281 
L 1581 4281 
L 1581 2719 
L 3109 2719 
L 3109 3303 
L 3494 3303 
L 3494 1753 
L 3109 1753 
L 3109 2338 
L 1581 2338 
L 1581 384 
L 3775 384 
L 3775 1038 
L 4159 1038 
L 4159 0 
L 353 0 
z
" transform="scale(0.015625)"/>
       <path id="DejaVuSerif-72" d="M 3059 3328 
L 3059 2497 
L 2728 2497 
Q 2713 2744 2591 2866 
Q 2469 2988 2234 2988 
Q 1809 2988 1582 2694 
Q 1356 2400 1356 1850 
L 1356 331 
L 2022 331 
L 2022 0 
L 263 0 
L 263 331 
L 781 331 
L 781 2994 
L 231 2994 
L 231 3322 
L 1356 3322 
L 1356 2731 
Q 1525 3078 1790 3245 
Q 2056 3413 2438 3413 
Q 2578 3413 2733 3391 
Q 2888 3369 3059 3328 
z
" transform="scale(0.015625)"/>
       <path id="DejaVuSerif-6f" d="M 1925 219 
Q 2388 219 2623 584 
Q 2859 950 2859 1663 
Q 2859 2375 2623 2739 
Q 2388 3103 1925 3103 
Q 1463 3103 1227 2739 
Q 991 2375 991 1663 
Q 991 950 1228 584 
Q 1466 219 1925 219 
z
M 1925 -91 
Q 1200 -91 759 389 
Q 319 869 319 1663 
Q 319 2456 758 2934 
Q 1197 3413 1925 3413 
Q 2653 3413 3092 2934 
Q 3531 2456 3531 1663 
Q 3531 869 3092 389 
Q 2653 -91 1925 -91 
z
" transform="scale(0.015625)"/>
      </defs>
      <use xlink:href="#DejaVuSerif-45"/>
      <use xlink:href="#DejaVuSerif-72" x="72.998047"/>
      <use xlink:href="#DejaVuSerif-72" x="120.800781"/>
      <use xlink:href="#DejaVuSerif-6f" x="168.603516"/>
      <use xlink:href="#DejaVuSerif-72" x="228.808594"/>
      <use xlink:href="#DejaVuSerif-20" x="276.611328"/>
      <use xlink:href="#DejaVuSerif-28" x="308.398438"/>
      <use xlink:href="#DejaVuSerif-6d" x="347.412109"/>
      <use xlink:href="#DejaVuSerif-29" x="442.236328"/>
     </g>
    </g>
   </g>
   <g id="line2d_118">
    <path d="M 72 405.436215 
L 76.464 405.546036 
L 80.928 405.922786 
L 86.88 406.731326 
L 95.808 408.054833 
L 100.272 408.466967 
L 103.248 408.558816 
L 106.224 408.468234 
L 109.2 408.174222 
L 112.176 407.666705 
L 115.152 406.947868 
L 118.128 406.032865 
L 122.592 404.357532 
L 130.032 401.14994 
L 134.496 399.312549 
L 137.472 398.26685 
L 140.448 397.443863 
L 143.424 396.905439 
L 146.4 396.704038 
L 149.376 396.879428 
L 152.352 397.455846 
L 155.328 398.439765 
L 158.304 399.818422 
L 161.28 401.559205 
L 164.256 403.609975 
L 168.72 407.108933 
L 177.648 414.45053 
L 180.624 416.600638 
L 183.6 418.417065 
L 186.576 419.798113 
L 188.064 420.297141 
L 189.552 420.655561 
L 191.04 420.865236 
L 192.528 420.919432 
L 194.016 420.812939 
L 195.504 420.542164 
L 196.992 420.105215 
L 198.48 419.501968 
L 199.968 418.734113 
L 201.456 417.805181 
L 202.944 416.720553 
L 205.92 414.114892 
L 208.896 410.996196 
L 211.872 407.470182 
L 216.336 401.704965 
L 222.288 393.9384 
L 225.264 390.39457 
L 228.24 387.29786 
L 229.728 385.965752 
L 231.216 384.801674 
L 232.704 383.821866 
L 234.192 383.040993 
L 235.68 382.471948 
L 237.168 382.125682 
L 238.656 382.011035 
L 240.144 382.134604 
L 241.632 382.500615 
L 243.12 383.110832 
L 244.608 383.964482 
L 246.096 385.058211 
L 247.584 386.386059 
L 249.072 387.939476 
L 250.56 389.707348 
L 252.048 391.67607 
L 255.024 396.149741 
L 258 401.20591 
L 262.464 409.468883 
L 268.416 420.606041 
L 271.392 425.702301 
L 274.368 430.176953 
L 275.856 432.114151 
L 277.344 433.818472 
L 278.832 435.267675 
L 280.32 436.441736 
L 281.808 437.323092 
L 283.296 437.896876 
L 284.784 438.151124 
L 286.272 438.076955 
L 287.76 437.668718 
L 289.248 436.92412 
L 290.736 435.844305 
L 292.224 434.433911 
L 293.712 432.701083 
L 295.2 430.657457 
L 296.688 428.318102 
L 298.176 425.701423 
L 301.152 419.725596 
L 304.128 412.938157 
L 308.592 401.790475 
L 314.544 386.659243 
L 317.52 379.679221 
L 320.496 373.499473 
L 321.984 370.799301 
L 323.472 368.402815 
L 324.96 366.339828 
L 326.448 364.637243 
L 327.936 363.318726 
L 329.424 362.40441 
L 330.912 361.910625 
L 332.4 361.849665 
L 333.888 362.229592 
L 335.376 363.054087 
L 336.864 364.322332 
L 338.352 366.028948 
L 339.84 368.163973 
L 341.328 370.712888 
L 342.816 373.656694 
L 344.304 376.972029 
L 345.792 380.631341 
L 348.768 388.852061 
L 351.744 398.023857 
L 356.208 412.80228 
L 360.672 427.640095 
L 363.648 436.888703 
L 366.624 445.157742 
L 368.112 448.807935 
L 369.6 452.077718 
L 371.088 454.92784 
L 372.576 457.322716 
L 374.064 459.230844 
L 375.552 460.625194 
L 377.04 461.483553 
L 378.528 461.788824 
L 380.016 461.529285 
L 381.504 460.698786 
L 382.992 459.296901 
L 384.48 457.329016 
L 385.968 454.806365 
L 387.456 451.746006 
L 388.944 448.170729 
L 390.432 444.108916 
L 391.92 439.594329 
L 394.896 429.367167 
L 397.872 417.855604 
L 402.336 399.134166 
L 408.288 374.040851 
L 411.264 362.593377 
L 412.752 357.364166 
L 414.24 352.542982 
L 415.728 348.184618 
L 417.216 344.339968 
L 418.704 341.05545 
L 420.192 338.372465 
L 421.68 336.326912 
L 423.168 334.948735 
L 424.656 334.261536 
L 426.144 334.282247 
L 427.632 335.020858 
L 429.12 336.480218 
L 430.608 338.655907 
L 432.096 341.536174 
L 433.584 345.101955 
L 435.072 349.326965 
L 436.56 354.177859 
L 438.048 359.614476 
L 439.536 365.59015 
L 442.512 378.941846 
L 445.488 393.745744 
L 451.44 425.417817 
L 455.904 448.503927 
L 458.88 462.377409 
L 460.368 468.629912 
L 461.856 474.331966 
L 463.344 479.418437 
L 464.832 483.82953 
L 466.32 487.511473 
L 467.808 490.417137 
L 469.296 492.506612 
L 470.784 493.747703 
L 472.272 494.116364 
L 473.76 493.597047 
L 475.248 492.182981 
L 476.736 489.876352 
L 478.224 486.688404 
L 479.712 482.639442 
L 481.2 477.758755 
L 482.688 472.08443 
L 484.176 465.663088 
L 485.664 458.549527 
L 488.64 442.503032 
L 491.616 424.527743 
L 496.08 395.448035 
L 500.544 366.111009 
L 503.52 347.730116 
L 506.496 331.196 
L 507.984 323.848817 
L 509.472 317.226577 
L 510.96 311.405458 
L 512.448 306.45454 
L 513.936 302.435009 
L 515.424 299.399438 
L 516.912 297.391145 
L 518.4 296.443636 
L 518.4 296.443636 
" clip-path="url(#p2070c81811)" style="fill: none; stroke: #1f77b4; stroke-width: 0.7; stroke-linecap: square"/>
   </g>
   <g id="line2d_119">
    <path d="M 72 405.436215 
L 98.784 405.421542 
L 131.52 405.28762 
L 147.888 405.519785 
L 167.232 405.772546 
L 179.136 405.686873 
L 194.016 405.317916 
L 210.384 404.955862 
L 220.8 404.976567 
L 231.216 405.236928 
L 258 406.088438 
L 266.928 406.0511 
L 275.856 405.782463 
L 305.616 404.611803 
L 313.056 404.661215 
L 321.984 404.981605 
L 335.376 405.765229 
L 345.792 406.281965 
L 353.232 406.431243 
L 360.672 406.336735 
L 368.112 406.009455 
L 380.016 405.196474 
L 390.432 404.538086 
L 397.872 404.295612 
L 403.824 404.299088 
L 411.264 404.559927 
L 418.704 405.052956 
L 439.536 406.585665 
L 445.488 406.753183 
L 451.44 406.713868 
L 457.392 406.46744 
L 464.832 405.921736 
L 485.664 404.170004 
L 491.616 403.962493 
L 497.568 403.985965 
L 503.52 404.243231 
L 510.96 404.8372 
L 518.4 405.601429 
L 518.4 405.601429 
" clip-path="url(#p2070c81811)" style="fill: none; stroke: #ff7f0e; stroke-width: 0.7; stroke-linecap: square"/>
   </g>
   <g id="patch_8">
    <path d="M 72 504 
L 72 286.56 
" style="fill: none; stroke: #000000; stroke-width: 0.8; stroke-linejoin: miter; stroke-linecap: square"/>
   </g>
   <g id="patch_9">
    <path d="M 518.4 504 
L 518.4 286.56 
" style="fill: none; stroke: #000000; stroke-width: 0.8; stroke-linejoin: miter; stroke-linecap: square"/>
   </g>
   <g id="patch_10">
    <path d="M 72 504 
L 518.4 504 
" style="fill: none; stroke: #000000; stroke-width: 0.8; stroke-linejoin: miter; stroke-linecap: square"/>
   </g>
   <g id="patch_11">
    <path d="M 72 286.56 
L 518.4 286.56 
" style="fill: none; stroke: #000000; stroke-width: 0.8; stroke-linejoin: miter; stroke-linecap: square"/>
   </g>
  </g>
  <g id="legend_1">
   <g id="patch_12">
    <path d="M 82.960937 126.914375 
L 262.639062 126.914375 
Q 264.639062 126.914375 264.639062 124.914375 
L 264.639062 81.88 
Q 264.639062 79.88 262.639062 79.88 
L 82.960937 79.88 
Q 80.960937 79.88 80.960937 81.88 
L 80.960937 124.914375 
Q 80.960937 126.914375 82.960937 126.914375 
z
" style="fill: #ffffff; opacity: 0.8; stroke: #cccccc; stroke-linejoin: miter"/>
   </g>
   <g id="line2d_120">
    <path d="M 84.960937 87.978437 
L 94.960937 87.978437 
L 104.960937 87.978437 
" style="fill: none; stroke: #1f77b4; stroke-width: 0.7; stroke-linecap: square"/>
   </g>
   <g id="text_23">
    <!-- Euler Approximation -->
    <g transform="translate(112.960937 91.478437) scale(0.1 -0.1)">
     <defs>
      <path id="DejaVuSans-45" d="M 628 4666 
L 3578 4666 
L 3578 4134 
L 1259 4134 
L 1259 2753 
L 3481 2753 
L 3481 2222 
L 1259 2222 
L 1259 531 
L 3634 531 
L 3634 0 
L 628 0 
L 628 4666 
z
" transform="scale(0.015625)"/>
      <path id="DejaVuSans-75" d="M 544 1381 
L 544 3500 
L 1119 3500 
L 1119 1403 
Q 1119 906 1312 657 
Q 1506 409 1894 409 
Q 2359 409 2629 706 
Q 2900 1003 2900 1516 
L 2900 3500 
L 3475 3500 
L 3475 0 
L 2900 0 
L 2900 538 
Q 2691 219 2414 64 
Q 2138 -91 1772 -91 
Q 1169 -91 856 284 
Q 544 659 544 1381 
z
M 1991 3584 
L 1991 3584 
z
" transform="scale(0.015625)"/>
      <path id="DejaVuSans-6c" d="M 603 4863 
L 1178 4863 
L 1178 0 
L 603 0 
L 603 4863 
z
" transform="scale(0.015625)"/>
      <path id="DejaVuSans-65" d="M 3597 1894 
L 3597 1613 
L 953 1613 
Q 991 1019 1311 708 
Q 1631 397 2203 397 
Q 2534 397 2845 478 
Q 3156 559 3463 722 
L 3463 178 
Q 3153 47 2828 -22 
Q 2503 -91 2169 -91 
Q 1331 -91 842 396 
Q 353 884 353 1716 
Q 353 2575 817 3079 
Q 1281 3584 2069 3584 
Q 2775 3584 3186 3129 
Q 3597 2675 3597 1894 
z
M 3022 2063 
Q 3016 2534 2758 2815 
Q 2500 3097 2075 3097 
Q 1594 3097 1305 2825 
Q 1016 2553 972 2059 
L 3022 2063 
z
" transform="scale(0.015625)"/>
      <path id="DejaVuSans-72" d="M 2631 2963 
Q 2534 3019 2420 3045 
Q 2306 3072 2169 3072 
Q 1681 3072 1420 2755 
Q 1159 2438 1159 1844 
L 1159 0 
L 581 0 
L 581 3500 
L 1159 3500 
L 1159 2956 
Q 1341 3275 1631 3429 
Q 1922 3584 2338 3584 
Q 2397 3584 2469 3576 
Q 2541 3569 2628 3553 
L 2631 2963 
z
" transform="scale(0.015625)"/>
      <path id="DejaVuSans-20" transform="scale(0.015625)"/>
      <path id="DejaVuSans-41" d="M 2188 4044 
L 1331 1722 
L 3047 1722 
L 2188 4044 
z
M 1831 4666 
L 2547 4666 
L 4325 0 
L 3669 0 
L 3244 1197 
L 1141 1197 
L 716 0 
L 50 0 
L 1831 4666 
z
" transform="scale(0.015625)"/>
      <path id="DejaVuSans-70" d="M 1159 525 
L 1159 -1331 
L 581 -1331 
L 581 3500 
L 1159 3500 
L 1159 2969 
Q 1341 3281 1617 3432 
Q 1894 3584 2278 3584 
Q 2916 3584 3314 3078 
Q 3713 2572 3713 1747 
Q 3713 922 3314 415 
Q 2916 -91 2278 -91 
Q 1894 -91 1617 61 
Q 1341 213 1159 525 
z
M 3116 1747 
Q 3116 2381 2855 2742 
Q 2594 3103 2138 3103 
Q 1681 3103 1420 2742 
Q 1159 2381 1159 1747 
Q 1159 1113 1420 752 
Q 1681 391 2138 391 
Q 2594 391 2855 752 
Q 3116 1113 3116 1747 
z
" transform="scale(0.015625)"/>
      <path id="DejaVuSans-6f" d="M 1959 3097 
Q 1497 3097 1228 2736 
Q 959 2375 959 1747 
Q 959 1119 1226 758 
Q 1494 397 1959 397 
Q 2419 397 2687 759 
Q 2956 1122 2956 1747 
Q 2956 2369 2687 2733 
Q 2419 3097 1959 3097 
z
M 1959 3584 
Q 2709 3584 3137 3096 
Q 3566 2609 3566 1747 
Q 3566 888 3137 398 
Q 2709 -91 1959 -91 
Q 1206 -91 779 398 
Q 353 888 353 1747 
Q 353 2609 779 3096 
Q 1206 3584 1959 3584 
z
" transform="scale(0.015625)"/>
      <path id="DejaVuSans-78" d="M 3513 3500 
L 2247 1797 
L 3578 0 
L 2900 0 
L 1881 1375 
L 863 0 
L 184 0 
L 1544 1831 
L 300 3500 
L 978 3500 
L 1906 2253 
L 2834 3500 
L 3513 3500 
z
" transform="scale(0.015625)"/>
      <path id="DejaVuSans-69" d="M 603 3500 
L 1178 3500 
L 1178 0 
L 603 0 
L 603 3500 
z
M 603 4863 
L 1178 4863 
L 1178 4134 
L 603 4134 
L 603 4863 
z
" transform="scale(0.015625)"/>
      <path id="DejaVuSans-6d" d="M 3328 2828 
Q 3544 3216 3844 3400 
Q 4144 3584 4550 3584 
Q 5097 3584 5394 3201 
Q 5691 2819 5691 2113 
L 5691 0 
L 5113 0 
L 5113 2094 
Q 5113 2597 4934 2840 
Q 4756 3084 4391 3084 
Q 3944 3084 3684 2787 
Q 3425 2491 3425 1978 
L 3425 0 
L 2847 0 
L 2847 2094 
Q 2847 2600 2669 2842 
Q 2491 3084 2119 3084 
Q 1678 3084 1418 2786 
Q 1159 2488 1159 1978 
L 1159 0 
L 581 0 
L 581 3500 
L 1159 3500 
L 1159 2956 
Q 1356 3278 1631 3431 
Q 1906 3584 2284 3584 
Q 2666 3584 2933 3390 
Q 3200 3197 3328 2828 
z
" transform="scale(0.015625)"/>
      <path id="DejaVuSans-61" d="M 2194 1759 
Q 1497 1759 1228 1600 
Q 959 1441 959 1056 
Q 959 750 1161 570 
Q 1363 391 1709 391 
Q 2188 391 2477 730 
Q 2766 1069 2766 1631 
L 2766 1759 
L 2194 1759 
z
M 3341 1997 
L 3341 0 
L 2766 0 
L 2766 531 
Q 2569 213 2275 61 
Q 1981 -91 1556 -91 
Q 1019 -91 701 211 
Q 384 513 384 1019 
Q 384 1609 779 1909 
Q 1175 2209 1959 2209 
L 2766 2209 
L 2766 2266 
Q 2766 2663 2505 2880 
Q 2244 3097 1772 3097 
Q 1472 3097 1187 3025 
Q 903 2953 641 2809 
L 641 3341 
Q 956 3463 1253 3523 
Q 1550 3584 1831 3584 
Q 2591 3584 2966 3190 
Q 3341 2797 3341 1997 
z
" transform="scale(0.015625)"/>
      <path id="DejaVuSans-74" d="M 1172 4494 
L 1172 3500 
L 2356 3500 
L 2356 3053 
L 1172 3053 
L 1172 1153 
Q 1172 725 1289 603 
Q 1406 481 1766 481 
L 2356 481 
L 2356 0 
L 1766 0 
Q 1100 0 847 248 
Q 594 497 594 1153 
L 594 3053 
L 172 3053 
L 172 3500 
L 594 3500 
L 594 4494 
L 1172 4494 
z
" transform="scale(0.015625)"/>
      <path id="DejaVuSans-6e" d="M 3513 2113 
L 3513 0 
L 2938 0 
L 2938 2094 
Q 2938 2591 2744 2837 
Q 2550 3084 2163 3084 
Q 1697 3084 1428 2787 
Q 1159 2491 1159 1978 
L 1159 0 
L 581 0 
L 581 3500 
L 1159 3500 
L 1159 2956 
Q 1366 3272 1645 3428 
Q 1925 3584 2291 3584 
Q 2894 3584 3203 3211 
Q 3513 2838 3513 2113 
z
" transform="scale(0.015625)"/>
     </defs>
     <use xlink:href="#DejaVuSans-45"/>
     <use xlink:href="#DejaVuSans-75" x="63.183594"/>
     <use xlink:href="#DejaVuSans-6c" x="126.5625"/>
     <use xlink:href="#DejaVuSans-65" x="154.345703"/>
     <use xlink:href="#DejaVuSans-72" x="215.869141"/>
     <use xlink:href="#DejaVuSans-20" x="256.982422"/>
     <use xlink:href="#DejaVuSans-41" x="288.769531"/>
     <use xlink:href="#DejaVuSans-70" x="357.177734"/>
     <use xlink:href="#DejaVuSans-70" x="420.654297"/>
     <use xlink:href="#DejaVuSans-72" x="484.130859"/>
     <use xlink:href="#DejaVuSans-6f" x="522.994141"/>
     <use xlink:href="#DejaVuSans-78" x="581.050781"/>
     <use xlink:href="#DejaVuSans-69" x="640.230469"/>
     <use xlink:href="#DejaVuSans-6d" x="668.013672"/>
     <use xlink:href="#DejaVuSans-61" x="765.425781"/>
     <use xlink:href="#DejaVuSans-74" x="826.705078"/>
     <use xlink:href="#DejaVuSans-69" x="865.914062"/>
     <use xlink:href="#DejaVuSans-6f" x="893.697266"/>
     <use xlink:href="#DejaVuSans-6e" x="954.878906"/>
    </g>
   </g>
   <g id="line2d_121">
    <path d="M 84.960937 102.656563 
L 94.960937 102.656563 
L 104.960937 102.656563 
" style="fill: none; stroke: #ff7f0e; stroke-width: 0.7; stroke-linecap: square"/>
   </g>
   <g id="text_24">
    <!-- Modified Euler Approximation -->
    <g transform="translate(112.960937 106.156563) scale(0.1 -0.1)">
     <defs>
      <path id="DejaVuSans-4d" d="M 628 4666 
L 1569 4666 
L 2759 1491 
L 3956 4666 
L 4897 4666 
L 4897 0 
L 4281 0 
L 4281 4097 
L 3078 897 
L 2444 897 
L 1241 4097 
L 1241 0 
L 628 0 
L 628 4666 
z
" transform="scale(0.015625)"/>
      <path id="DejaVuSans-64" d="M 2906 2969 
L 2906 4863 
L 3481 4863 
L 3481 0 
L 2906 0 
L 2906 525 
Q 2725 213 2448 61 
Q 2172 -91 1784 -91 
Q 1150 -91 751 415 
Q 353 922 353 1747 
Q 353 2572 751 3078 
Q 1150 3584 1784 3584 
Q 2172 3584 2448 3432 
Q 2725 3281 2906 2969 
z
M 947 1747 
Q 947 1113 1208 752 
Q 1469 391 1925 391 
Q 2381 391 2643 752 
Q 2906 1113 2906 1747 
Q 2906 2381 2643 2742 
Q 2381 3103 1925 3103 
Q 1469 3103 1208 2742 
Q 947 2381 947 1747 
z
" transform="scale(0.015625)"/>
      <path id="DejaVuSans-66" d="M 2375 4863 
L 2375 4384 
L 1825 4384 
Q 1516 4384 1395 4259 
Q 1275 4134 1275 3809 
L 1275 3500 
L 2222 3500 
L 2222 3053 
L 1275 3053 
L 1275 0 
L 697 0 
L 697 3053 
L 147 3053 
L 147 3500 
L 697 3500 
L 697 3744 
Q 697 4328 969 4595 
Q 1241 4863 1831 4863 
L 2375 4863 
z
" transform="scale(0.015625)"/>
     </defs>
     <use xlink:href="#DejaVuSans-4d"/>
     <use xlink:href="#DejaVuSans-6f" x="86.279297"/>
     <use xlink:href="#DejaVuSans-64" x="147.460938"/>
     <use xlink:href="#DejaVuSans-69" x="210.9375"/>
     <use xlink:href="#DejaVuSans-66" x="238.720703"/>
     <use xlink:href="#DejaVuSans-69" x="273.925781"/>
     <use xlink:href="#DejaVuSans-65" x="301.708984"/>
     <use xlink:href="#DejaVuSans-64" x="363.232422"/>
     <use xlink:href="#DejaVuSans-20" x="426.708984"/>
     <use xlink:href="#DejaVuSans-45" x="458.496094"/>
     <use xlink:href="#DejaVuSans-75" x="521.679688"/>
     <use xlink:href="#DejaVuSans-6c" x="585.058594"/>
     <use xlink:href="#DejaVuSans-65" x="612.841797"/>
     <use xlink:href="#DejaVuSans-72" x="674.365234"/>
     <use xlink:href="#DejaVuSans-20" x="715.478516"/>
     <use xlink:href="#DejaVuSans-41" x="747.265625"/>
     <use xlink:href="#DejaVuSans-70" x="815.673828"/>
     <use xlink:href="#DejaVuSans-70" x="879.150391"/>
     <use xlink:href="#DejaVuSans-72" x="942.626953"/>
     <use xlink:href="#DejaVuSans-6f" x="981.490234"/>
     <use xlink:href="#DejaVuSans-78" x="1039.546875"/>
     <use xlink:href="#DejaVuSans-69" x="1098.726562"/>
     <use xlink:href="#DejaVuSans-6d" x="1126.509766"/>
     <use xlink:href="#DejaVuSans-61" x="1223.921875"/>
     <use xlink:href="#DejaVuSans-74" x="1285.201172"/>
     <use xlink:href="#DejaVuSans-69" x="1324.410156"/>
     <use xlink:href="#DejaVuSans-6f" x="1352.193359"/>
     <use xlink:href="#DejaVuSans-6e" x="1413.375"/>
    </g>
   </g>
   <g id="line2d_122">
    <path d="M 84.960937 117.334687 
L 94.960937 117.334687 
L 104.960937 117.334687 
" style="fill: none; stroke-dasharray: 2.59,1.12; stroke-dashoffset: 0; stroke: #000000; stroke-width: 0.7"/>
   </g>
   <g id="text_25">
    <!-- Exact Solution -->
    <g transform="translate(112.960937 120.834687) scale(0.1 -0.1)">
     <defs>
      <path id="DejaVuSans-63" d="M 3122 3366 
L 3122 2828 
Q 2878 2963 2633 3030 
Q 2388 3097 2138 3097 
Q 1578 3097 1268 2742 
Q 959 2388 959 1747 
Q 959 1106 1268 751 
Q 1578 397 2138 397 
Q 2388 397 2633 464 
Q 2878 531 3122 666 
L 3122 134 
Q 2881 22 2623 -34 
Q 2366 -91 2075 -91 
Q 1284 -91 818 406 
Q 353 903 353 1747 
Q 353 2603 823 3093 
Q 1294 3584 2113 3584 
Q 2378 3584 2631 3529 
Q 2884 3475 3122 3366 
z
" transform="scale(0.015625)"/>
      <path id="DejaVuSans-53" d="M 3425 4513 
L 3425 3897 
Q 3066 4069 2747 4153 
Q 2428 4238 2131 4238 
Q 1616 4238 1336 4038 
Q 1056 3838 1056 3469 
Q 1056 3159 1242 3001 
Q 1428 2844 1947 2747 
L 2328 2669 
Q 3034 2534 3370 2195 
Q 3706 1856 3706 1288 
Q 3706 609 3251 259 
Q 2797 -91 1919 -91 
Q 1588 -91 1214 -16 
Q 841 59 441 206 
L 441 856 
Q 825 641 1194 531 
Q 1563 422 1919 422 
Q 2459 422 2753 634 
Q 3047 847 3047 1241 
Q 3047 1584 2836 1778 
Q 2625 1972 2144 2069 
L 1759 2144 
Q 1053 2284 737 2584 
Q 422 2884 422 3419 
Q 422 4038 858 4394 
Q 1294 4750 2059 4750 
Q 2388 4750 2728 4690 
Q 3069 4631 3425 4513 
z
" transform="scale(0.015625)"/>
     </defs>
     <use xlink:href="#DejaVuSans-45"/>
     <use xlink:href="#DejaVuSans-78" x="63.183594"/>
     <use xlink:href="#DejaVuSans-61" x="122.363281"/>
     <use xlink:href="#DejaVuSans-63" x="183.642578"/>
     <use xlink:href="#DejaVuSans-74" x="238.623047"/>
     <use xlink:href="#DejaVuSans-20" x="277.832031"/>
     <use xlink:href="#DejaVuSans-53" x="309.619141"/>
     <use xlink:href="#DejaVuSans-6f" x="373.095703"/>
     <use xlink:href="#DejaVuSans-6c" x="434.277344"/>
     <use xlink:href="#DejaVuSans-75" x="462.060547"/>
     <use xlink:href="#DejaVuSans-74" x="525.439453"/>
     <use xlink:href="#DejaVuSans-69" x="564.648438"/>
     <use xlink:href="#DejaVuSans-6f" x="592.431641"/>
     <use xlink:href="#DejaVuSans-6e" x="653.613281"/>
    </g>
   </g>
  </g>
 </g>
 <defs>
  <clipPath id="pb1e9d7c77d">
   <rect x="72" y="69.12" width="446.4" height="217.44"/>
  </clipPath>
  <clipPath id="p2070c81811">
   <rect x="72" y="286.56" width="446.4" height="217.44"/>
  </clipPath>
 </defs>
</svg>
